<?xml version="1.0" encoding="utf-8" standalone="no"?>
<!DOCTYPE svg PUBLIC "-//W3C//DTD SVG 1.1//EN"
  "http://www.w3.org/Graphics/SVG/1.1/DTD/svg11.dtd">
<!-- Created with matplotlib (https://matplotlib.org/) -->
<svg height="345.6pt" version="1.1" viewBox="0 0 460.8 345.6" width="460.8pt" xmlns="http://www.w3.org/2000/svg" xmlns:xlink="http://www.w3.org/1999/xlink">
 <defs>
  <style type="text/css">
*{stroke-linecap:butt;stroke-linejoin:round;}
  </style>
 </defs>
 <g id="figure_1">
  <g id="patch_1">
   <path d="M 0 345.6 
L 460.8 345.6 
L 460.8 0 
L 0 0 
z
" style="fill:#ffffff;"/>
  </g>
  <g id="axes_1">
   <g id="patch_2">
    <path d="M 57.6 307.584 
L 414.72 307.584 
L 414.72 41.472 
L 57.6 41.472 
z
" style="fill:#ffffff;"/>
   </g>
   <g id="matplotlib.axis_1">
    <g id="xtick_1">
     <g id="line2d_1">
      <path clip-path="url(#pf2d15eb2e8)" d="M 65.508252 307.584 
L 65.508252 41.472 
" style="fill:none;stroke:#cccccc;stroke-linecap:round;stroke-width:0.8;"/>
     </g>
     <g id="text_1">
      <!-- 0 -->
      <defs>
       <path d="M 4.15625 35.296875 
Q 4.15625 48 6.765625 55.734375 
Q 9.375 63.484375 14.515625 67.671875 
Q 19.671875 71.875 27.484375 71.875 
Q 33.25 71.875 37.59375 69.546875 
Q 41.9375 67.234375 44.765625 62.859375 
Q 47.609375 58.5 49.21875 52.21875 
Q 50.828125 45.953125 50.828125 35.296875 
Q 50.828125 22.703125 48.234375 14.96875 
Q 45.65625 7.234375 40.5 3 
Q 35.359375 -1.21875 27.484375 -1.21875 
Q 17.140625 -1.21875 11.234375 6.203125 
Q 4.15625 15.140625 4.15625 35.296875 
z
M 13.1875 35.296875 
Q 13.1875 17.671875 17.3125 11.828125 
Q 21.4375 6 27.484375 6 
Q 33.546875 6 37.671875 11.859375 
Q 41.796875 17.71875 41.796875 35.296875 
Q 41.796875 52.984375 37.671875 58.78125 
Q 33.546875 64.59375 27.390625 64.59375 
Q 21.34375 64.59375 17.71875 59.46875 
Q 13.1875 52.9375 13.1875 35.296875 
z
" id="ArialMT-48"/>
      </defs>
      <g style="fill:#262626;" transform="translate(62.727783 321.741812)scale(0.1 -0.1)">
       <use xlink:href="#ArialMT-48"/>
      </g>
     </g>
    </g>
    <g id="xtick_2">
     <g id="line2d_2">
      <path clip-path="url(#pf2d15eb2e8)" d="M 107.130629 307.584 
L 107.130629 41.472 
" style="fill:none;stroke:#cccccc;stroke-linecap:round;stroke-width:0.8;"/>
     </g>
     <g id="text_2">
      <!-- 50 -->
      <defs>
       <path d="M 4.15625 18.75 
L 13.375 19.53125 
Q 14.40625 12.796875 18.140625 9.390625 
Q 21.875 6 27.15625 6 
Q 33.5 6 37.890625 10.78125 
Q 42.28125 15.578125 42.28125 23.484375 
Q 42.28125 31 38.0625 35.34375 
Q 33.84375 39.703125 27 39.703125 
Q 22.75 39.703125 19.328125 37.765625 
Q 15.921875 35.84375 13.96875 32.765625 
L 5.71875 33.84375 
L 12.640625 70.609375 
L 48.25 70.609375 
L 48.25 62.203125 
L 19.671875 62.203125 
L 15.828125 42.96875 
Q 22.265625 47.46875 29.34375 47.46875 
Q 38.71875 47.46875 45.15625 40.96875 
Q 51.609375 34.46875 51.609375 24.265625 
Q 51.609375 14.546875 45.953125 7.46875 
Q 39.0625 -1.21875 27.15625 -1.21875 
Q 17.390625 -1.21875 11.203125 4.25 
Q 5.03125 9.71875 4.15625 18.75 
z
" id="ArialMT-53"/>
      </defs>
      <g style="fill:#262626;" transform="translate(101.569692 321.741812)scale(0.1 -0.1)">
       <use xlink:href="#ArialMT-53"/>
       <use x="55.615234" xlink:href="#ArialMT-48"/>
      </g>
     </g>
    </g>
    <g id="xtick_3">
     <g id="line2d_3">
      <path clip-path="url(#pf2d15eb2e8)" d="M 148.753007 307.584 
L 148.753007 41.472 
" style="fill:none;stroke:#cccccc;stroke-linecap:round;stroke-width:0.8;"/>
     </g>
     <g id="text_3">
      <!-- 100 -->
      <defs>
       <path d="M 37.25 0 
L 28.46875 0 
L 28.46875 56 
Q 25.296875 52.984375 20.140625 49.953125 
Q 14.984375 46.921875 10.890625 45.40625 
L 10.890625 53.90625 
Q 18.265625 57.375 23.78125 62.296875 
Q 29.296875 67.234375 31.59375 71.875 
L 37.25 71.875 
z
" id="ArialMT-49"/>
      </defs>
      <g style="fill:#262626;" transform="translate(140.411601 321.741812)scale(0.1 -0.1)">
       <use xlink:href="#ArialMT-49"/>
       <use x="55.615234" xlink:href="#ArialMT-48"/>
       <use x="111.230469" xlink:href="#ArialMT-48"/>
      </g>
     </g>
    </g>
    <g id="xtick_4">
     <g id="line2d_4">
      <path clip-path="url(#pf2d15eb2e8)" d="M 190.375385 307.584 
L 190.375385 41.472 
" style="fill:none;stroke:#cccccc;stroke-linecap:round;stroke-width:0.8;"/>
     </g>
     <g id="text_4">
      <!-- 150 -->
      <g style="fill:#262626;" transform="translate(182.033978 321.741812)scale(0.1 -0.1)">
       <use xlink:href="#ArialMT-49"/>
       <use x="55.615234" xlink:href="#ArialMT-53"/>
       <use x="111.230469" xlink:href="#ArialMT-48"/>
      </g>
     </g>
    </g>
    <g id="xtick_5">
     <g id="line2d_5">
      <path clip-path="url(#pf2d15eb2e8)" d="M 231.997762 307.584 
L 231.997762 41.472 
" style="fill:none;stroke:#cccccc;stroke-linecap:round;stroke-width:0.8;"/>
     </g>
     <g id="text_5">
      <!-- 200 -->
      <defs>
       <path d="M 50.34375 8.453125 
L 50.34375 0 
L 3.03125 0 
Q 2.9375 3.171875 4.046875 6.109375 
Q 5.859375 10.9375 9.828125 15.625 
Q 13.8125 20.3125 21.34375 26.46875 
Q 33.015625 36.03125 37.109375 41.625 
Q 41.21875 47.21875 41.21875 52.203125 
Q 41.21875 57.421875 37.46875 61 
Q 33.734375 64.59375 27.734375 64.59375 
Q 21.390625 64.59375 17.578125 60.78125 
Q 13.765625 56.984375 13.71875 50.25 
L 4.6875 51.171875 
Q 5.609375 61.28125 11.65625 66.578125 
Q 17.71875 71.875 27.9375 71.875 
Q 38.234375 71.875 44.234375 66.15625 
Q 50.25 60.453125 50.25 52 
Q 50.25 47.703125 48.484375 43.546875 
Q 46.734375 39.40625 42.65625 34.8125 
Q 38.578125 30.21875 29.109375 22.21875 
Q 21.1875 15.578125 18.9375 13.203125 
Q 16.703125 10.84375 15.234375 8.453125 
z
" id="ArialMT-50"/>
      </defs>
      <g style="fill:#262626;" transform="translate(223.656356 321.741812)scale(0.1 -0.1)">
       <use xlink:href="#ArialMT-50"/>
       <use x="55.615234" xlink:href="#ArialMT-48"/>
       <use x="111.230469" xlink:href="#ArialMT-48"/>
      </g>
     </g>
    </g>
    <g id="xtick_6">
     <g id="line2d_6">
      <path clip-path="url(#pf2d15eb2e8)" d="M 273.62014 307.584 
L 273.62014 41.472 
" style="fill:none;stroke:#cccccc;stroke-linecap:round;stroke-width:0.8;"/>
     </g>
     <g id="text_6">
      <!-- 250 -->
      <g style="fill:#262626;" transform="translate(265.278734 321.741812)scale(0.1 -0.1)">
       <use xlink:href="#ArialMT-50"/>
       <use x="55.615234" xlink:href="#ArialMT-53"/>
       <use x="111.230469" xlink:href="#ArialMT-48"/>
      </g>
     </g>
    </g>
    <g id="xtick_7">
     <g id="line2d_7">
      <path clip-path="url(#pf2d15eb2e8)" d="M 315.242517 307.584 
L 315.242517 41.472 
" style="fill:none;stroke:#cccccc;stroke-linecap:round;stroke-width:0.8;"/>
     </g>
     <g id="text_7">
      <!-- 300 -->
      <defs>
       <path d="M 4.203125 18.890625 
L 12.984375 20.0625 
Q 14.5 12.59375 18.140625 9.296875 
Q 21.78125 6 27 6 
Q 33.203125 6 37.46875 10.296875 
Q 41.75 14.59375 41.75 20.953125 
Q 41.75 27 37.796875 30.921875 
Q 33.84375 34.859375 27.734375 34.859375 
Q 25.25 34.859375 21.53125 33.890625 
L 22.515625 41.609375 
Q 23.390625 41.5 23.921875 41.5 
Q 29.546875 41.5 34.03125 44.421875 
Q 38.53125 47.359375 38.53125 53.46875 
Q 38.53125 58.296875 35.25 61.46875 
Q 31.984375 64.65625 26.8125 64.65625 
Q 21.6875 64.65625 18.265625 61.421875 
Q 14.84375 58.203125 13.875 51.765625 
L 5.078125 53.328125 
Q 6.6875 62.15625 12.390625 67.015625 
Q 18.109375 71.875 26.609375 71.875 
Q 32.46875 71.875 37.390625 69.359375 
Q 42.328125 66.84375 44.9375 62.5 
Q 47.5625 58.15625 47.5625 53.265625 
Q 47.5625 48.640625 45.0625 44.828125 
Q 42.578125 41.015625 37.703125 38.765625 
Q 44.046875 37.3125 47.5625 32.6875 
Q 51.078125 28.078125 51.078125 21.140625 
Q 51.078125 11.765625 44.234375 5.25 
Q 37.40625 -1.265625 26.953125 -1.265625 
Q 17.53125 -1.265625 11.296875 4.34375 
Q 5.078125 9.96875 4.203125 18.890625 
z
" id="ArialMT-51"/>
      </defs>
      <g style="fill:#262626;" transform="translate(306.901111 321.741812)scale(0.1 -0.1)">
       <use xlink:href="#ArialMT-51"/>
       <use x="55.615234" xlink:href="#ArialMT-48"/>
       <use x="111.230469" xlink:href="#ArialMT-48"/>
      </g>
     </g>
    </g>
    <g id="xtick_8">
     <g id="line2d_8">
      <path clip-path="url(#pf2d15eb2e8)" d="M 356.864895 307.584 
L 356.864895 41.472 
" style="fill:none;stroke:#cccccc;stroke-linecap:round;stroke-width:0.8;"/>
     </g>
     <g id="text_8">
      <!-- 350 -->
      <g style="fill:#262626;" transform="translate(348.523489 321.741812)scale(0.1 -0.1)">
       <use xlink:href="#ArialMT-51"/>
       <use x="55.615234" xlink:href="#ArialMT-53"/>
       <use x="111.230469" xlink:href="#ArialMT-48"/>
      </g>
     </g>
    </g>
    <g id="xtick_9">
     <g id="line2d_9">
      <path clip-path="url(#pf2d15eb2e8)" d="M 398.487273 307.584 
L 398.487273 41.472 
" style="fill:none;stroke:#cccccc;stroke-linecap:round;stroke-width:0.8;"/>
     </g>
     <g id="text_9">
      <!-- 400 -->
      <defs>
       <path d="M 32.328125 0 
L 32.328125 17.140625 
L 1.265625 17.140625 
L 1.265625 25.203125 
L 33.9375 71.578125 
L 41.109375 71.578125 
L 41.109375 25.203125 
L 50.78125 25.203125 
L 50.78125 17.140625 
L 41.109375 17.140625 
L 41.109375 0 
z
M 32.328125 25.203125 
L 32.328125 57.46875 
L 9.90625 25.203125 
z
" id="ArialMT-52"/>
      </defs>
      <g style="fill:#262626;" transform="translate(390.145866 321.741812)scale(0.1 -0.1)">
       <use xlink:href="#ArialMT-52"/>
       <use x="55.615234" xlink:href="#ArialMT-48"/>
       <use x="111.230469" xlink:href="#ArialMT-48"/>
      </g>
     </g>
    </g>
    <g id="text_10">
     <!-- experiments run -->
     <defs>
      <path d="M 42.09375 16.703125 
L 51.171875 15.578125 
Q 49.03125 7.625 43.21875 3.21875 
Q 37.40625 -1.171875 28.375 -1.171875 
Q 17 -1.171875 10.328125 5.828125 
Q 3.65625 12.84375 3.65625 25.484375 
Q 3.65625 38.578125 10.390625 45.796875 
Q 17.140625 53.03125 27.875 53.03125 
Q 38.28125 53.03125 44.875 45.953125 
Q 51.46875 38.875 51.46875 26.03125 
Q 51.46875 25.25 51.421875 23.6875 
L 12.75 23.6875 
Q 13.234375 15.140625 17.578125 10.59375 
Q 21.921875 6.0625 28.421875 6.0625 
Q 33.25 6.0625 36.671875 8.59375 
Q 40.09375 11.140625 42.09375 16.703125 
z
M 13.234375 30.90625 
L 42.1875 30.90625 
Q 41.609375 37.453125 38.875 40.71875 
Q 34.671875 45.796875 27.984375 45.796875 
Q 21.921875 45.796875 17.796875 41.75 
Q 13.671875 37.703125 13.234375 30.90625 
z
" id="ArialMT-101"/>
      <path d="M 0.734375 0 
L 19.671875 26.953125 
L 2.15625 51.859375 
L 13.140625 51.859375 
L 21.09375 39.703125 
Q 23.34375 36.234375 24.703125 33.890625 
Q 26.859375 37.109375 28.65625 39.59375 
L 37.40625 51.859375 
L 47.90625 51.859375 
L 29.984375 27.4375 
L 49.265625 0 
L 38.484375 0 
L 27.828125 16.109375 
L 25 20.453125 
L 11.375 0 
z
" id="ArialMT-120"/>
      <path d="M 6.59375 -19.875 
L 6.59375 51.859375 
L 14.59375 51.859375 
L 14.59375 45.125 
Q 17.4375 49.078125 21 51.046875 
Q 24.5625 53.03125 29.640625 53.03125 
Q 36.28125 53.03125 41.359375 49.609375 
Q 46.4375 46.1875 49.015625 39.953125 
Q 51.609375 33.734375 51.609375 26.3125 
Q 51.609375 18.359375 48.75 11.984375 
Q 45.90625 5.609375 40.453125 2.21875 
Q 35.015625 -1.171875 29 -1.171875 
Q 24.609375 -1.171875 21.109375 0.6875 
Q 17.625 2.546875 15.375 5.375 
L 15.375 -19.875 
z
M 14.546875 25.640625 
Q 14.546875 15.625 18.59375 10.84375 
Q 22.65625 6.0625 28.421875 6.0625 
Q 34.28125 6.0625 38.453125 11.015625 
Q 42.625 15.96875 42.625 26.375 
Q 42.625 36.28125 38.546875 41.203125 
Q 34.46875 46.140625 28.8125 46.140625 
Q 23.1875 46.140625 18.859375 40.890625 
Q 14.546875 35.640625 14.546875 25.640625 
z
" id="ArialMT-112"/>
      <path d="M 6.5 0 
L 6.5 51.859375 
L 14.40625 51.859375 
L 14.40625 44 
Q 17.4375 49.515625 20 51.265625 
Q 22.5625 53.03125 25.640625 53.03125 
Q 30.078125 53.03125 34.671875 50.203125 
L 31.640625 42.046875 
Q 28.421875 43.953125 25.203125 43.953125 
Q 22.3125 43.953125 20.015625 42.21875 
Q 17.71875 40.484375 16.75 37.40625 
Q 15.28125 32.71875 15.28125 27.15625 
L 15.28125 0 
z
" id="ArialMT-114"/>
      <path d="M 6.640625 61.46875 
L 6.640625 71.578125 
L 15.4375 71.578125 
L 15.4375 61.46875 
z
M 6.640625 0 
L 6.640625 51.859375 
L 15.4375 51.859375 
L 15.4375 0 
z
" id="ArialMT-105"/>
      <path d="M 6.59375 0 
L 6.59375 51.859375 
L 14.453125 51.859375 
L 14.453125 44.578125 
Q 16.890625 48.390625 20.9375 50.703125 
Q 25 53.03125 30.171875 53.03125 
Q 35.9375 53.03125 39.625 50.640625 
Q 43.3125 48.25 44.828125 43.953125 
Q 50.984375 53.03125 60.84375 53.03125 
Q 68.5625 53.03125 72.703125 48.75 
Q 76.859375 44.484375 76.859375 35.59375 
L 76.859375 0 
L 68.109375 0 
L 68.109375 32.671875 
Q 68.109375 37.9375 67.25 40.25 
Q 66.40625 42.578125 64.15625 43.984375 
Q 61.921875 45.40625 58.890625 45.40625 
Q 53.421875 45.40625 49.796875 41.765625 
Q 46.1875 38.140625 46.1875 30.125 
L 46.1875 0 
L 37.40625 0 
L 37.40625 33.6875 
Q 37.40625 39.546875 35.25 42.46875 
Q 33.109375 45.40625 28.21875 45.40625 
Q 24.515625 45.40625 21.359375 43.453125 
Q 18.21875 41.5 16.796875 37.734375 
Q 15.375 33.984375 15.375 26.90625 
L 15.375 0 
z
" id="ArialMT-109"/>
      <path d="M 6.59375 0 
L 6.59375 51.859375 
L 14.5 51.859375 
L 14.5 44.484375 
Q 20.21875 53.03125 31 53.03125 
Q 35.6875 53.03125 39.625 51.34375 
Q 43.5625 49.65625 45.515625 46.921875 
Q 47.46875 44.1875 48.25 40.4375 
Q 48.734375 37.984375 48.734375 31.890625 
L 48.734375 0 
L 39.9375 0 
L 39.9375 31.546875 
Q 39.9375 36.921875 38.90625 39.578125 
Q 37.890625 42.234375 35.28125 43.8125 
Q 32.671875 45.40625 29.15625 45.40625 
Q 23.53125 45.40625 19.453125 41.84375 
Q 15.375 38.28125 15.375 28.328125 
L 15.375 0 
z
" id="ArialMT-110"/>
      <path d="M 25.78125 7.859375 
L 27.046875 0.09375 
Q 23.34375 -0.6875 20.40625 -0.6875 
Q 15.625 -0.6875 12.984375 0.828125 
Q 10.359375 2.34375 9.28125 4.8125 
Q 8.203125 7.28125 8.203125 15.1875 
L 8.203125 45.015625 
L 1.765625 45.015625 
L 1.765625 51.859375 
L 8.203125 51.859375 
L 8.203125 64.703125 
L 16.9375 69.96875 
L 16.9375 51.859375 
L 25.78125 51.859375 
L 25.78125 45.015625 
L 16.9375 45.015625 
L 16.9375 14.703125 
Q 16.9375 10.9375 17.40625 9.859375 
Q 17.875 8.796875 18.921875 8.15625 
Q 19.96875 7.515625 21.921875 7.515625 
Q 23.390625 7.515625 25.78125 7.859375 
z
" id="ArialMT-116"/>
      <path d="M 3.078125 15.484375 
L 11.765625 16.84375 
Q 12.5 11.625 15.84375 8.84375 
Q 19.1875 6.0625 25.203125 6.0625 
Q 31.25 6.0625 34.171875 8.515625 
Q 37.109375 10.984375 37.109375 14.3125 
Q 37.109375 17.28125 34.515625 19 
Q 32.71875 20.171875 25.53125 21.96875 
Q 15.875 24.421875 12.140625 26.203125 
Q 8.40625 27.984375 6.46875 31.125 
Q 4.546875 34.28125 4.546875 38.09375 
Q 4.546875 41.546875 6.125 44.5 
Q 7.71875 47.46875 10.453125 49.421875 
Q 12.5 50.921875 16.03125 51.96875 
Q 19.578125 53.03125 23.640625 53.03125 
Q 29.734375 53.03125 34.34375 51.265625 
Q 38.96875 49.515625 41.15625 46.5 
Q 43.359375 43.5 44.1875 38.484375 
L 35.59375 37.3125 
Q 35.015625 41.3125 32.203125 43.546875 
Q 29.390625 45.796875 24.265625 45.796875 
Q 18.21875 45.796875 15.625 43.796875 
Q 13.03125 41.796875 13.03125 39.109375 
Q 13.03125 37.40625 14.109375 36.03125 
Q 15.1875 34.625 17.484375 33.6875 
Q 18.796875 33.203125 25.25 31.453125 
Q 34.578125 28.953125 38.25 27.359375 
Q 41.9375 25.78125 44.03125 22.75 
Q 46.140625 19.734375 46.140625 15.234375 
Q 46.140625 10.84375 43.578125 6.953125 
Q 41.015625 3.078125 36.171875 0.953125 
Q 31.34375 -1.171875 25.25 -1.171875 
Q 15.140625 -1.171875 9.84375 3.03125 
Q 4.546875 7.234375 3.078125 15.484375 
z
" id="ArialMT-115"/>
      <path id="ArialMT-32"/>
      <path d="M 40.578125 0 
L 40.578125 7.625 
Q 34.515625 -1.171875 24.125 -1.171875 
Q 19.53125 -1.171875 15.546875 0.578125 
Q 11.578125 2.34375 9.640625 5 
Q 7.71875 7.671875 6.9375 11.53125 
Q 6.390625 14.109375 6.390625 19.734375 
L 6.390625 51.859375 
L 15.1875 51.859375 
L 15.1875 23.09375 
Q 15.1875 16.21875 15.71875 13.8125 
Q 16.546875 10.359375 19.234375 8.375 
Q 21.921875 6.390625 25.875 6.390625 
Q 29.828125 6.390625 33.296875 8.421875 
Q 36.765625 10.453125 38.203125 13.9375 
Q 39.65625 17.4375 39.65625 24.078125 
L 39.65625 51.859375 
L 48.4375 51.859375 
L 48.4375 0 
z
" id="ArialMT-117"/>
     </defs>
     <g style="fill:#262626;" transform="translate(200.313125 334.887125)scale(0.1 -0.1)">
      <use xlink:href="#ArialMT-101"/>
      <use x="55.615234" xlink:href="#ArialMT-120"/>
      <use x="105.615234" xlink:href="#ArialMT-112"/>
      <use x="161.230469" xlink:href="#ArialMT-101"/>
      <use x="216.845703" xlink:href="#ArialMT-114"/>
      <use x="250.146484" xlink:href="#ArialMT-105"/>
      <use x="272.363281" xlink:href="#ArialMT-109"/>
      <use x="355.664062" xlink:href="#ArialMT-101"/>
      <use x="411.279297" xlink:href="#ArialMT-110"/>
      <use x="466.894531" xlink:href="#ArialMT-116"/>
      <use x="494.677734" xlink:href="#ArialMT-115"/>
      <use x="544.677734" xlink:href="#ArialMT-32"/>
      <use x="572.460938" xlink:href="#ArialMT-114"/>
      <use x="605.761719" xlink:href="#ArialMT-117"/>
      <use x="661.376953" xlink:href="#ArialMT-110"/>
     </g>
    </g>
   </g>
   <g id="matplotlib.axis_2">
    <g id="ytick_1">
     <g id="line2d_10">
      <path clip-path="url(#pf2d15eb2e8)" d="M 57.6 299.630896 
L 414.72 299.630896 
" style="fill:none;stroke:#cccccc;stroke-linecap:round;stroke-width:0.8;"/>
     </g>
     <g id="text_11">
      <!-- 0 -->
      <g style="fill:#262626;" transform="translate(45.039062 303.209802)scale(0.1 -0.1)">
       <use xlink:href="#ArialMT-48"/>
      </g>
     </g>
    </g>
    <g id="ytick_2">
     <g id="line2d_11">
      <path clip-path="url(#pf2d15eb2e8)" d="M 57.6 268.245322 
L 414.72 268.245322 
" style="fill:none;stroke:#cccccc;stroke-linecap:round;stroke-width:0.8;"/>
     </g>
     <g id="text_12">
      <!-- 50 -->
      <g style="fill:#262626;" transform="translate(39.478125 271.824229)scale(0.1 -0.1)">
       <use xlink:href="#ArialMT-53"/>
       <use x="55.615234" xlink:href="#ArialMT-48"/>
      </g>
     </g>
    </g>
    <g id="ytick_3">
     <g id="line2d_12">
      <path clip-path="url(#pf2d15eb2e8)" d="M 57.6 236.859749 
L 414.72 236.859749 
" style="fill:none;stroke:#cccccc;stroke-linecap:round;stroke-width:0.8;"/>
     </g>
     <g id="text_13">
      <!-- 100 -->
      <g style="fill:#262626;" transform="translate(33.917187 240.438655)scale(0.1 -0.1)">
       <use xlink:href="#ArialMT-49"/>
       <use x="55.615234" xlink:href="#ArialMT-48"/>
       <use x="111.230469" xlink:href="#ArialMT-48"/>
      </g>
     </g>
    </g>
    <g id="ytick_4">
     <g id="line2d_13">
      <path clip-path="url(#pf2d15eb2e8)" d="M 57.6 205.474175 
L 414.72 205.474175 
" style="fill:none;stroke:#cccccc;stroke-linecap:round;stroke-width:0.8;"/>
     </g>
     <g id="text_14">
      <!-- 150 -->
      <g style="fill:#262626;" transform="translate(33.917187 209.053082)scale(0.1 -0.1)">
       <use xlink:href="#ArialMT-49"/>
       <use x="55.615234" xlink:href="#ArialMT-53"/>
       <use x="111.230469" xlink:href="#ArialMT-48"/>
      </g>
     </g>
    </g>
    <g id="ytick_5">
     <g id="line2d_14">
      <path clip-path="url(#pf2d15eb2e8)" d="M 57.6 174.088602 
L 414.72 174.088602 
" style="fill:none;stroke:#cccccc;stroke-linecap:round;stroke-width:0.8;"/>
     </g>
     <g id="text_15">
      <!-- 200 -->
      <g style="fill:#262626;" transform="translate(33.917187 177.667508)scale(0.1 -0.1)">
       <use xlink:href="#ArialMT-50"/>
       <use x="55.615234" xlink:href="#ArialMT-48"/>
       <use x="111.230469" xlink:href="#ArialMT-48"/>
      </g>
     </g>
    </g>
    <g id="ytick_6">
     <g id="line2d_15">
      <path clip-path="url(#pf2d15eb2e8)" d="M 57.6 142.703029 
L 414.72 142.703029 
" style="fill:none;stroke:#cccccc;stroke-linecap:round;stroke-width:0.8;"/>
     </g>
     <g id="text_16">
      <!-- 250 -->
      <g style="fill:#262626;" transform="translate(33.917187 146.281935)scale(0.1 -0.1)">
       <use xlink:href="#ArialMT-50"/>
       <use x="55.615234" xlink:href="#ArialMT-53"/>
       <use x="111.230469" xlink:href="#ArialMT-48"/>
      </g>
     </g>
    </g>
    <g id="ytick_7">
     <g id="line2d_16">
      <path clip-path="url(#pf2d15eb2e8)" d="M 57.6 111.317455 
L 414.72 111.317455 
" style="fill:none;stroke:#cccccc;stroke-linecap:round;stroke-width:0.8;"/>
     </g>
     <g id="text_17">
      <!-- 300 -->
      <g style="fill:#262626;" transform="translate(33.917187 114.896361)scale(0.1 -0.1)">
       <use xlink:href="#ArialMT-51"/>
       <use x="55.615234" xlink:href="#ArialMT-48"/>
       <use x="111.230469" xlink:href="#ArialMT-48"/>
      </g>
     </g>
    </g>
    <g id="ytick_8">
     <g id="line2d_17">
      <path clip-path="url(#pf2d15eb2e8)" d="M 57.6 79.931882 
L 414.72 79.931882 
" style="fill:none;stroke:#cccccc;stroke-linecap:round;stroke-width:0.8;"/>
     </g>
     <g id="text_18">
      <!-- 350 -->
      <g style="fill:#262626;" transform="translate(33.917187 83.510788)scale(0.1 -0.1)">
       <use xlink:href="#ArialMT-51"/>
       <use x="55.615234" xlink:href="#ArialMT-53"/>
       <use x="111.230469" xlink:href="#ArialMT-48"/>
      </g>
     </g>
    </g>
    <g id="ytick_9">
     <g id="line2d_18">
      <path clip-path="url(#pf2d15eb2e8)" d="M 57.6 48.546308 
L 414.72 48.546308 
" style="fill:none;stroke:#cccccc;stroke-linecap:round;stroke-width:0.8;"/>
     </g>
     <g id="text_19">
      <!-- 400 -->
      <g style="fill:#262626;" transform="translate(33.917187 52.125215)scale(0.1 -0.1)">
       <use xlink:href="#ArialMT-52"/>
       <use x="55.615234" xlink:href="#ArialMT-48"/>
       <use x="111.230469" xlink:href="#ArialMT-48"/>
      </g>
     </g>
    </g>
    <g id="text_20">
     <!-- faults found -->
     <defs>
      <path d="M 8.6875 0 
L 8.6875 45.015625 
L 0.921875 45.015625 
L 0.921875 51.859375 
L 8.6875 51.859375 
L 8.6875 57.375 
Q 8.6875 62.59375 9.625 65.140625 
Q 10.890625 68.5625 14.078125 70.671875 
Q 17.28125 72.796875 23.046875 72.796875 
Q 26.765625 72.796875 31.25 71.921875 
L 29.9375 64.265625 
Q 27.203125 64.75 24.75 64.75 
Q 20.75 64.75 19.09375 63.03125 
Q 17.4375 61.328125 17.4375 56.640625 
L 17.4375 51.859375 
L 27.546875 51.859375 
L 27.546875 45.015625 
L 17.4375 45.015625 
L 17.4375 0 
z
" id="ArialMT-102"/>
      <path d="M 40.4375 6.390625 
Q 35.546875 2.25 31.03125 0.53125 
Q 26.515625 -1.171875 21.34375 -1.171875 
Q 12.796875 -1.171875 8.203125 3 
Q 3.609375 7.171875 3.609375 13.671875 
Q 3.609375 17.484375 5.34375 20.625 
Q 7.078125 23.78125 9.890625 25.6875 
Q 12.703125 27.59375 16.21875 28.5625 
Q 18.796875 29.25 24.03125 29.890625 
Q 34.671875 31.15625 39.703125 32.90625 
Q 39.75 34.71875 39.75 35.203125 
Q 39.75 40.578125 37.25 42.78125 
Q 33.890625 45.75 27.25 45.75 
Q 21.046875 45.75 18.09375 43.578125 
Q 15.140625 41.40625 13.71875 35.890625 
L 5.125 37.0625 
Q 6.296875 42.578125 8.984375 45.96875 
Q 11.671875 49.359375 16.75 51.1875 
Q 21.828125 53.03125 28.515625 53.03125 
Q 35.15625 53.03125 39.296875 51.46875 
Q 43.453125 49.90625 45.40625 47.53125 
Q 47.359375 45.171875 48.140625 41.546875 
Q 48.578125 39.3125 48.578125 33.453125 
L 48.578125 21.734375 
Q 48.578125 9.46875 49.140625 6.21875 
Q 49.703125 2.984375 51.375 0 
L 42.1875 0 
Q 40.828125 2.734375 40.4375 6.390625 
z
M 39.703125 26.03125 
Q 34.90625 24.078125 25.34375 22.703125 
Q 19.921875 21.921875 17.671875 20.9375 
Q 15.4375 19.96875 14.203125 18.09375 
Q 12.984375 16.21875 12.984375 13.921875 
Q 12.984375 10.40625 15.640625 8.0625 
Q 18.3125 5.71875 23.4375 5.71875 
Q 28.515625 5.71875 32.46875 7.9375 
Q 36.421875 10.15625 38.28125 14.015625 
Q 39.703125 17 39.703125 22.796875 
z
" id="ArialMT-97"/>
      <path d="M 6.390625 0 
L 6.390625 71.578125 
L 15.1875 71.578125 
L 15.1875 0 
z
" id="ArialMT-108"/>
      <path d="M 3.328125 25.921875 
Q 3.328125 40.328125 11.328125 47.265625 
Q 18.015625 53.03125 27.640625 53.03125 
Q 38.328125 53.03125 45.109375 46.015625 
Q 51.90625 39.015625 51.90625 26.65625 
Q 51.90625 16.65625 48.90625 10.90625 
Q 45.90625 5.171875 40.15625 2 
Q 34.421875 -1.171875 27.640625 -1.171875 
Q 16.75 -1.171875 10.03125 5.8125 
Q 3.328125 12.796875 3.328125 25.921875 
z
M 12.359375 25.921875 
Q 12.359375 15.96875 16.703125 11.015625 
Q 21.046875 6.0625 27.640625 6.0625 
Q 34.1875 6.0625 38.53125 11.03125 
Q 42.875 16.015625 42.875 26.21875 
Q 42.875 35.84375 38.5 40.796875 
Q 34.125 45.75 27.640625 45.75 
Q 21.046875 45.75 16.703125 40.8125 
Q 12.359375 35.890625 12.359375 25.921875 
z
" id="ArialMT-111"/>
      <path d="M 40.234375 0 
L 40.234375 6.546875 
Q 35.296875 -1.171875 25.734375 -1.171875 
Q 19.53125 -1.171875 14.328125 2.25 
Q 9.125 5.671875 6.265625 11.796875 
Q 3.421875 17.921875 3.421875 25.875 
Q 3.421875 33.640625 6 39.96875 
Q 8.59375 46.296875 13.765625 49.65625 
Q 18.953125 53.03125 25.34375 53.03125 
Q 30.03125 53.03125 33.6875 51.046875 
Q 37.359375 49.078125 39.65625 45.90625 
L 39.65625 71.578125 
L 48.390625 71.578125 
L 48.390625 0 
z
M 12.453125 25.875 
Q 12.453125 15.921875 16.640625 10.984375 
Q 20.84375 6.0625 26.5625 6.0625 
Q 32.328125 6.0625 36.34375 10.765625 
Q 40.375 15.484375 40.375 25.140625 
Q 40.375 35.796875 36.265625 40.765625 
Q 32.171875 45.75 26.171875 45.75 
Q 20.3125 45.75 16.375 40.96875 
Q 12.453125 36.1875 12.453125 25.875 
z
" id="ArialMT-100"/>
     </defs>
     <g style="fill:#262626;" transform="translate(27.929687 200.378)rotate(-90)scale(0.1 -0.1)">
      <use xlink:href="#ArialMT-102"/>
      <use x="27.783203" xlink:href="#ArialMT-97"/>
      <use x="83.398438" xlink:href="#ArialMT-117"/>
      <use x="139.013672" xlink:href="#ArialMT-108"/>
      <use x="161.230469" xlink:href="#ArialMT-116"/>
      <use x="189.013672" xlink:href="#ArialMT-115"/>
      <use x="239.013672" xlink:href="#ArialMT-32"/>
      <use x="266.796875" xlink:href="#ArialMT-102"/>
      <use x="294.580078" xlink:href="#ArialMT-111"/>
      <use x="350.195312" xlink:href="#ArialMT-117"/>
      <use x="405.810547" xlink:href="#ArialMT-110"/>
      <use x="461.425781" xlink:href="#ArialMT-100"/>
     </g>
    </g>
   </g>
   <g id="line2d_19">
    <path clip-path="url(#pf2d15eb2e8)" d="M 73.832727 294.577818 
L 82.157203 288.300704 
L 90.481678 283.247626 
L 98.806154 276.970512 
L 107.130629 270.756168 
L 115.455105 264.479053 
L 123.77958 259.394591 
L 132.104056 253.117476 
L 140.428531 246.871747 
L 148.753007 240.594632 
L 157.077483 234.348903 
L 165.401958 228.071788 
L 173.726434 221.794674 
L 182.050909 215.517559 
L 190.375385 209.240444 
L 198.69986 202.96333 
L 207.024336 197.816095 
L 215.348811 191.538981 
L 223.673287 185.261866 
L 231.997762 178.984751 
L 240.322238 172.801793 
L 248.646713 166.524679 
L 256.971189 160.247564 
L 265.295664 153.970449 
L 273.62014 147.72472 
L 281.944615 141.447606 
L 290.269091 135.170491 
L 298.593566 128.893376 
L 306.918042 122.616262 
L 315.242517 116.339147 
L 323.566993 110.062032 
L 331.891469 103.784917 
L 340.215944 97.507803 
L 348.54042 91.230688 
L 356.864895 84.953573 
L 365.189371 78.676459 
L 373.513846 72.399344 
L 381.838322 66.122229 
L 390.162797 59.845115 
L 398.487273 53.568 
" style="fill:none;stroke:#1f77b4;stroke-linecap:round;stroke-width:1.5;"/>
   </g>
   <g id="line2d_20">
    <path clip-path="url(#pf2d15eb2e8)" d="M 73.832727 294.13842 
L 82.157203 288.39486 
L 90.481678 282.525758 
L 98.806154 276.62527 
L 107.130629 270.693397 
L 115.455105 264.85568 
L 123.77958 258.923807 
L 132.104056 252.897777 
L 140.428531 246.934518 
L 148.753007 240.971259 
L 157.077483 234.976614 
L 165.401958 228.919199 
L 173.726434 222.799012 
L 182.050909 216.804367 
L 190.375385 210.778337 
L 198.69986 204.65815 
L 207.024336 198.537964 
L 215.348811 192.386391 
L 223.673287 186.234819 
L 231.997762 180.114632 
L 240.322238 173.900289 
L 248.646713 167.874258 
L 256.971189 161.597144 
L 265.295664 155.571114 
L 273.62014 149.325385 
L 281.944615 143.173812 
L 290.269091 137.02224 
L 298.593566 130.870667 
L 306.918042 124.687709 
L 315.242517 118.473366 
L 323.566993 112.227637 
L 331.891469 106.10745 
L 340.215944 99.893106 
L 348.54042 93.804305 
L 356.864895 87.589962 
L 365.189371 81.375618 
L 373.513846 75.224046 
L 381.838322 68.978317 
L 390.162797 62.85813 
L 398.487273 56.800714 
" style="fill:none;stroke:#ff7f0e;stroke-linecap:round;stroke-width:1.5;"/>
   </g>
   <g id="line2d_21">
    <path clip-path="url(#pf2d15eb2e8)" d="M 73.832727 294.64059 
L 82.157203 289.556127 
L 90.481678 284.28335 
L 98.806154 278.916417 
L 107.130629 273.831954 
L 115.455105 268.68472 
L 123.77958 263.380558 
L 132.104056 258.358867 
L 140.428531 252.991934 
L 148.753007 247.813314 
L 157.077483 242.414995 
L 165.401958 236.953906 
L 173.726434 231.869443 
L 182.050909 226.533895 
L 190.375385 221.104191 
L 198.69986 215.800029 
L 207.024336 210.590024 
L 215.348811 205.662489 
L 223.673287 200.54664 
L 231.997762 195.30525 
L 240.322238 190.220787 
L 248.646713 185.199095 
L 256.971189 179.832162 
L 265.295664 174.465229 
L 273.62014 169.004139 
L 281.944615 163.699977 
L 290.269091 158.301659 
L 298.593566 152.966111 
L 306.918042 147.881648 
L 315.242517 142.608872 
L 323.566993 137.085011 
L 331.891469 131.84362 
L 340.215944 126.633615 
L 348.54042 121.580538 
L 356.864895 116.433304 
L 365.189371 111.066371 
L 373.513846 105.636666 
L 381.838322 100.206962 
L 390.162797 94.965571 
L 398.487273 89.692795 
" style="fill:none;stroke:#2ca02c;stroke-linecap:round;stroke-width:1.5;"/>
   </g>
   <g id="line2d_22">
    <path clip-path="url(#pf2d15eb2e8)" d="M 73.832727 293.950107 
L 82.157203 288.614559 
L 90.481678 282.965156 
L 98.806154 277.723765 
L 107.130629 271.94882 
L 115.455105 266.330802 
L 123.77958 260.681399 
L 132.104056 255.126153 
L 140.428531 249.570906 
L 148.753007 244.29813 
L 157.077483 238.774269 
L 165.401958 233.187637 
L 173.726434 227.757933 
L 182.050909 222.077144 
L 190.375385 216.64744 
L 198.69986 210.90388 
L 207.024336 205.317248 
L 215.348811 199.856158 
L 223.673287 194.269526 
L 231.997762 188.714279 
L 240.322238 183.159033 
L 248.646713 177.572401 
L 256.971189 171.985769 
L 265.295664 166.116666 
L 273.62014 160.686962 
L 281.944615 155.194487 
L 290.269091 149.702011 
L 298.593566 144.052608 
L 306.918042 138.591518 
L 315.242517 133.224585 
L 323.566993 127.575182 
L 331.891469 121.957165 
L 340.215944 116.276376 
L 348.54042 110.815286 
L 356.864895 105.322811 
L 365.189371 99.610636 
L 373.513846 94.149546 
L 381.838322 88.657071 
L 390.162797 82.819354 
L 398.487273 77.326879 
" style="fill:none;stroke:#d62728;stroke-linecap:round;stroke-width:1.5;"/>
   </g>
   <g id="line2d_23">
    <path clip-path="url(#pf2d15eb2e8)" d="M 73.832727 294.452276 
L 82.157203 289.116729 
L 90.481678 284.126422 
L 98.806154 278.853646 
L 107.130629 273.612255 
L 115.455105 268.465021 
L 123.77958 263.066703 
L 132.104056 257.762541 
L 140.428531 252.395608 
L 148.753007 247.279759 
L 157.077483 241.159572 
L 165.401958 234.976614 
L 173.726434 228.919199 
L 182.050909 222.799012 
L 190.375385 216.64744 
L 198.69986 210.464482 
L 207.024336 204.281524 
L 215.348811 198.06718 
L 223.673287 191.915608 
L 231.997762 185.826806 
L 240.322238 179.738005 
L 248.646713 173.586433 
L 256.971189 167.372089 
L 265.295664 161.12636 
L 273.62014 154.943402 
L 281.944615 148.697673 
L 290.269091 142.577486 
L 298.593566 136.457299 
L 306.918042 130.21157 
L 315.242517 123.965841 
L 323.566993 117.814269 
L 331.891469 111.756853 
L 340.215944 105.699437 
L 348.54042 99.547865 
L 356.864895 93.459064 
L 365.189371 87.276106 
L 373.513846 81.061762 
L 381.838322 74.91019 
L 390.162797 68.758618 
L 398.487273 62.57566 
" style="fill:none;stroke:#9467bd;stroke-linecap:round;stroke-width:1.5;"/>
   </g>
   <g id="line2d_24">
    <path clip-path="url(#pf2d15eb2e8)" d="M 73.832727 295.268301 
L 82.157203 290.654622 
L 90.481678 286.48034 
L 98.806154 282.149131 
L 107.130629 277.723765 
L 115.455105 273.172857 
L 123.77958 268.716106 
L 132.104056 263.976884 
L 140.428531 259.394591 
L 148.753007 255.408623 
L 157.077483 249.194279 
L 165.401958 243.136864 
L 173.726434 236.92252 
L 182.050909 230.833719 
L 190.375385 224.650761 
L 198.69986 218.56196 
L 207.024336 212.473158 
L 215.348811 206.2902 
L 223.673287 200.170013 
L 231.997762 194.112598 
L 240.322238 187.92964 
L 248.646713 181.809453 
L 256.971189 175.720652 
L 265.295664 169.631851 
L 273.62014 163.543049 
L 281.944615 157.485634 
L 290.269091 151.428218 
L 298.593566 145.339417 
L 306.918042 139.313387 
L 315.242517 133.099043 
L 323.566993 127.135784 
L 331.891469 121.078368 
L 340.215944 115.020953 
L 348.54042 108.932152 
L 356.864895 103.157206 
L 365.189371 97.162561 
L 373.513846 91.010989 
L 381.838322 85.016345 
L 390.162797 79.147242 
L 398.487273 73.309526 
" style="fill:none;stroke:#8c564b;stroke-linecap:round;stroke-width:1.5;"/>
   </g>
   <g id="line2d_25">
    <path clip-path="url(#pf2d15eb2e8)" d="M 73.832727 294.577818 
L 82.157203 290.30938 
L 90.481678 285.193532 
L 98.806154 279.638285 
L 107.130629 274.177196 
L 115.455105 268.590564 
L 123.77958 263.035317 
L 132.104056 257.323143 
L 140.428531 251.610968 
L 148.753007 246.087107 
L 157.077483 240.594632 
L 165.401958 234.976614 
L 173.726434 229.233054 
L 182.050909 223.709194 
L 190.375385 218.028405 
L 198.69986 212.504544 
L 207.024336 206.949297 
L 215.348811 201.237123 
L 223.673287 195.368021 
L 231.997762 189.718618 
L 240.322238 184.66554 
L 248.646713 180.302946 
L 256.971189 175.344025 
L 265.295664 169.85155 
L 273.62014 164.516002 
L 281.944615 158.960756 
L 290.269091 153.279967 
L 298.593566 147.756106 
L 306.918042 142.232245 
L 315.242517 136.676998 
L 323.566993 130.99621 
L 331.891469 125.315421 
L 340.215944 119.50909 
L 348.54042 113.953843 
L 356.864895 108.178898 
L 365.189371 102.592266 
L 373.513846 97.131176 
L 381.838322 91.607315 
L 390.162797 85.832369 
L 398.487273 80.151581 
" style="fill:none;stroke:#e377c2;stroke-linecap:round;stroke-width:1.5;"/>
   </g>
   <g id="line2d_26">
    <path clip-path="url(#pf2d15eb2e8)" d="M 73.832727 295.488 
L 82.157203 290.968477 
L 90.481678 286.543112 
L 98.806154 282.525758 
L 107.130629 278.351477 
L 115.455105 274.051653 
L 123.77958 269.689059 
L 132.104056 265.075379 
L 140.428531 261.02664 
L 148.753007 256.946516 
L 157.077483 253.023319 
L 165.401958 248.629339 
L 173.726434 244.172587 
L 182.050909 240.061077 
L 190.375385 236.043724 
L 198.69986 231.775286 
L 207.024336 227.192992 
L 215.348811 223.207024 
L 223.673287 218.593345 
L 231.997762 214.544606 
L 240.322238 210.244783 
L 248.646713 205.756646 
L 256.971189 201.550979 
L 265.295664 197.439469 
L 273.62014 193.202416 
L 281.944615 188.620122 
L 290.269091 184.351684 
L 298.593566 180.051861 
L 306.918042 175.783423 
L 315.242517 171.546371 
L 323.566993 167.685945 
L 331.891469 163.762748 
L 340.215944 159.651238 
L 348.54042 155.602499 
L 356.864895 151.334061 
L 365.189371 147.097009 
L 373.513846 142.357787 
L 381.838322 138.120735 
L 390.162797 134.228924 
L 398.487273 130.368498 
" style="fill:none;stroke:#7f7f7f;stroke-linecap:round;stroke-width:1.5;"/>
   </g>
   <g id="line2d_27">
    <path clip-path="url(#pf2d15eb2e8)" d="M 73.832727 294.295348 
L 82.157203 288.39486 
L 90.481678 282.36883 
L 98.806154 276.531114 
L 107.130629 270.410927 
L 115.455105 264.541825 
L 123.77958 258.672722 
L 132.104056 252.709463 
L 140.428531 246.871747 
L 148.753007 240.782946 
L 157.077483 234.662759 
L 165.401958 228.668114 
L 173.726434 222.704855 
L 182.050909 216.64744 
L 190.375385 210.590024 
L 198.69986 204.689536 
L 207.024336 198.63212 
L 215.348811 192.543319 
L 223.673287 186.674217 
L 231.997762 180.710958 
L 240.322238 174.653542 
L 248.646713 168.596127 
L 256.971189 162.601482 
L 265.295664 156.512681 
L 273.62014 150.42388 
L 281.944615 144.240922 
L 290.269091 138.15212 
L 298.593566 132.031934 
L 306.918042 126.005903 
L 315.242517 119.948488 
L 323.566993 113.922458 
L 331.891469 107.7395 
L 340.215944 101.682084 
L 348.54042 95.844367 
L 356.864895 89.755566 
L 365.189371 83.666765 
L 373.513846 77.67212 
L 381.838322 71.64609 
L 390.162797 65.463132 
L 398.487273 59.437102 
" style="fill:none;stroke:#bcbd22;stroke-linecap:round;stroke-width:1.5;"/>
   </g>
   <g id="patch_3">
    <path d="M 57.6 307.584 
L 57.6 41.472 
" style="fill:none;stroke:#cccccc;stroke-linecap:square;stroke-linejoin:miter;stroke-width:0.8;"/>
   </g>
   <g id="patch_4">
    <path d="M 414.72 307.584 
L 414.72 41.472 
" style="fill:none;stroke:#cccccc;stroke-linecap:square;stroke-linejoin:miter;stroke-width:0.8;"/>
   </g>
   <g id="patch_5">
    <path d="M 57.6 307.584 
L 414.72 307.584 
" style="fill:none;stroke:#cccccc;stroke-linecap:square;stroke-linejoin:miter;stroke-width:0.8;"/>
   </g>
   <g id="patch_6">
    <path d="M 57.6 41.472 
L 414.72 41.472 
" style="fill:none;stroke:#cccccc;stroke-linecap:square;stroke-linejoin:miter;stroke-width:0.8;"/>
   </g>
   <g id="text_21">
    <!-- FDR for a1false-a2true-b1false-c1false, reward function 1 -->
    <defs>
     <path d="M 8.203125 0 
L 8.203125 71.578125 
L 56.5 71.578125 
L 56.5 63.140625 
L 17.671875 63.140625 
L 17.671875 40.96875 
L 51.265625 40.96875 
L 51.265625 32.515625 
L 17.671875 32.515625 
L 17.671875 0 
z
" id="ArialMT-70"/>
     <path d="M 7.71875 0 
L 7.71875 71.578125 
L 32.375 71.578125 
Q 40.71875 71.578125 45.125 70.5625 
Q 51.265625 69.140625 55.609375 65.4375 
Q 61.28125 60.640625 64.078125 53.1875 
Q 66.890625 45.75 66.890625 36.1875 
Q 66.890625 28.03125 64.984375 21.734375 
Q 63.09375 15.4375 60.109375 11.296875 
Q 57.125 7.171875 53.578125 4.796875 
Q 50.046875 2.4375 45.046875 1.21875 
Q 40.046875 0 33.546875 0 
z
M 17.1875 8.453125 
L 32.46875 8.453125 
Q 39.546875 8.453125 43.578125 9.765625 
Q 47.609375 11.078125 50 13.484375 
Q 53.375 16.84375 55.25 22.53125 
Q 57.125 28.21875 57.125 36.328125 
Q 57.125 47.5625 53.4375 53.59375 
Q 49.75 59.625 44.484375 61.671875 
Q 40.671875 63.140625 32.234375 63.140625 
L 17.1875 63.140625 
z
" id="ArialMT-68"/>
     <path d="M 7.859375 0 
L 7.859375 71.578125 
L 39.59375 71.578125 
Q 49.171875 71.578125 54.140625 69.640625 
Q 59.125 67.71875 62.109375 62.828125 
Q 65.09375 57.953125 65.09375 52.046875 
Q 65.09375 44.4375 60.15625 39.203125 
Q 55.21875 33.984375 44.921875 32.5625 
Q 48.6875 30.765625 50.640625 29 
Q 54.78125 25.203125 58.5 19.484375 
L 70.953125 0 
L 59.03125 0 
L 49.5625 14.890625 
Q 45.40625 21.34375 42.71875 24.75 
Q 40.046875 28.171875 37.921875 29.53125 
Q 35.796875 30.90625 33.59375 31.453125 
Q 31.984375 31.78125 28.328125 31.78125 
L 17.328125 31.78125 
L 17.328125 0 
z
M 17.328125 39.984375 
L 37.703125 39.984375 
Q 44.1875 39.984375 47.84375 41.328125 
Q 51.515625 42.671875 53.421875 45.625 
Q 55.328125 48.578125 55.328125 52.046875 
Q 55.328125 57.125 51.640625 60.390625 
Q 47.953125 63.671875 39.984375 63.671875 
L 17.328125 63.671875 
z
" id="ArialMT-82"/>
     <path d="M 3.171875 21.484375 
L 3.171875 30.328125 
L 30.171875 30.328125 
L 30.171875 21.484375 
z
" id="ArialMT-45"/>
     <path d="M 14.703125 0 
L 6.546875 0 
L 6.546875 71.578125 
L 15.328125 71.578125 
L 15.328125 46.046875 
Q 20.90625 53.03125 29.546875 53.03125 
Q 34.328125 53.03125 38.59375 51.09375 
Q 42.875 49.171875 45.625 45.671875 
Q 48.390625 42.1875 49.953125 37.25 
Q 51.515625 32.328125 51.515625 26.703125 
Q 51.515625 13.375 44.921875 6.09375 
Q 38.328125 -1.171875 29.109375 -1.171875 
Q 19.921875 -1.171875 14.703125 6.5 
z
M 14.59375 26.3125 
Q 14.59375 17 17.140625 12.84375 
Q 21.296875 6.0625 28.375 6.0625 
Q 34.125 6.0625 38.328125 11.0625 
Q 42.53125 16.0625 42.53125 25.984375 
Q 42.53125 36.140625 38.5 40.96875 
Q 34.46875 45.796875 28.765625 45.796875 
Q 23 45.796875 18.796875 40.796875 
Q 14.59375 35.796875 14.59375 26.3125 
z
" id="ArialMT-98"/>
     <path d="M 40.4375 19 
L 49.078125 17.875 
Q 47.65625 8.9375 41.8125 3.875 
Q 35.984375 -1.171875 27.484375 -1.171875 
Q 16.84375 -1.171875 10.375 5.78125 
Q 3.90625 12.75 3.90625 25.734375 
Q 3.90625 34.125 6.6875 40.421875 
Q 9.46875 46.734375 15.15625 49.875 
Q 20.84375 53.03125 27.546875 53.03125 
Q 35.984375 53.03125 41.359375 48.75 
Q 46.734375 44.484375 48.25 36.625 
L 39.703125 35.296875 
Q 38.484375 40.53125 35.375 43.15625 
Q 32.28125 45.796875 27.875 45.796875 
Q 21.234375 45.796875 17.078125 41.03125 
Q 12.9375 36.28125 12.9375 25.984375 
Q 12.9375 15.53125 16.9375 10.796875 
Q 20.953125 6.0625 27.390625 6.0625 
Q 32.5625 6.0625 36.03125 9.234375 
Q 39.5 12.40625 40.4375 19 
z
" id="ArialMT-99"/>
     <path d="M 8.890625 0 
L 8.890625 10.015625 
L 18.890625 10.015625 
L 18.890625 0 
Q 18.890625 -5.515625 16.9375 -8.90625 
Q 14.984375 -12.3125 10.75 -14.15625 
L 8.296875 -10.40625 
Q 11.078125 -9.1875 12.390625 -6.8125 
Q 13.71875 -4.4375 13.875 0 
z
" id="ArialMT-44"/>
     <path d="M 16.15625 0 
L 0.296875 51.859375 
L 9.375 51.859375 
L 17.625 21.921875 
L 20.703125 10.796875 
Q 20.90625 11.625 23.390625 21.484375 
L 31.640625 51.859375 
L 40.671875 51.859375 
L 48.4375 21.78125 
L 51.03125 11.859375 
L 54 21.875 
L 62.890625 51.859375 
L 71.4375 51.859375 
L 55.21875 0 
L 46.09375 0 
L 37.84375 31.0625 
L 35.84375 39.890625 
L 25.34375 0 
z
" id="ArialMT-119"/>
    </defs>
    <g style="fill:#262626;" transform="translate(83.431875 35.472)scale(0.12 -0.12)">
     <use xlink:href="#ArialMT-70"/>
     <use x="61.083984" xlink:href="#ArialMT-68"/>
     <use x="133.300781" xlink:href="#ArialMT-82"/>
     <use x="205.517578" xlink:href="#ArialMT-32"/>
     <use x="233.300781" xlink:href="#ArialMT-102"/>
     <use x="261.083984" xlink:href="#ArialMT-111"/>
     <use x="316.699219" xlink:href="#ArialMT-114"/>
     <use x="350" xlink:href="#ArialMT-32"/>
     <use x="377.783203" xlink:href="#ArialMT-97"/>
     <use x="433.398438" xlink:href="#ArialMT-49"/>
     <use x="489.013672" xlink:href="#ArialMT-102"/>
     <use x="516.796875" xlink:href="#ArialMT-97"/>
     <use x="572.412109" xlink:href="#ArialMT-108"/>
     <use x="594.628906" xlink:href="#ArialMT-115"/>
     <use x="644.628906" xlink:href="#ArialMT-101"/>
     <use x="700.244141" xlink:href="#ArialMT-45"/>
     <use x="733.544922" xlink:href="#ArialMT-97"/>
     <use x="789.160156" xlink:href="#ArialMT-50"/>
     <use x="844.775391" xlink:href="#ArialMT-116"/>
     <use x="872.558594" xlink:href="#ArialMT-114"/>
     <use x="905.859375" xlink:href="#ArialMT-117"/>
     <use x="961.474609" xlink:href="#ArialMT-101"/>
     <use x="1017.089844" xlink:href="#ArialMT-45"/>
     <use x="1050.390625" xlink:href="#ArialMT-98"/>
     <use x="1106.005859" xlink:href="#ArialMT-49"/>
     <use x="1161.621094" xlink:href="#ArialMT-102"/>
     <use x="1189.404297" xlink:href="#ArialMT-97"/>
     <use x="1245.019531" xlink:href="#ArialMT-108"/>
     <use x="1267.236328" xlink:href="#ArialMT-115"/>
     <use x="1317.236328" xlink:href="#ArialMT-101"/>
     <use x="1372.851562" xlink:href="#ArialMT-45"/>
     <use x="1406.152344" xlink:href="#ArialMT-99"/>
     <use x="1456.152344" xlink:href="#ArialMT-49"/>
     <use x="1511.767578" xlink:href="#ArialMT-102"/>
     <use x="1539.550781" xlink:href="#ArialMT-97"/>
     <use x="1595.166016" xlink:href="#ArialMT-108"/>
     <use x="1617.382812" xlink:href="#ArialMT-115"/>
     <use x="1667.382812" xlink:href="#ArialMT-101"/>
     <use x="1722.998047" xlink:href="#ArialMT-44"/>
     <use x="1750.78125" xlink:href="#ArialMT-32"/>
     <use x="1778.564453" xlink:href="#ArialMT-114"/>
     <use x="1811.865234" xlink:href="#ArialMT-101"/>
     <use x="1867.480469" xlink:href="#ArialMT-119"/>
     <use x="1939.697266" xlink:href="#ArialMT-97"/>
     <use x="1995.3125" xlink:href="#ArialMT-114"/>
     <use x="2028.613281" xlink:href="#ArialMT-100"/>
     <use x="2084.228516" xlink:href="#ArialMT-32"/>
     <use x="2112.011719" xlink:href="#ArialMT-102"/>
     <use x="2139.794922" xlink:href="#ArialMT-117"/>
     <use x="2195.410156" xlink:href="#ArialMT-110"/>
     <use x="2251.025391" xlink:href="#ArialMT-99"/>
     <use x="2301.025391" xlink:href="#ArialMT-116"/>
     <use x="2328.808594" xlink:href="#ArialMT-105"/>
     <use x="2351.025391" xlink:href="#ArialMT-111"/>
     <use x="2406.640625" xlink:href="#ArialMT-110"/>
     <use x="2462.255859" xlink:href="#ArialMT-32"/>
     <use x="2490.039062" xlink:href="#ArialMT-49"/>
    </g>
   </g>
   <g id="legend_1">
    <g id="patch_7">
     <path d="M 64.6 177.25325 
L 145.517188 177.25325 
Q 147.517188 177.25325 147.517188 175.25325 
L 147.517188 48.472 
Q 147.517188 46.472 145.517188 46.472 
L 64.6 46.472 
Q 62.6 46.472 62.6 48.472 
L 62.6 175.25325 
Q 62.6 177.25325 64.6 177.25325 
z
" style="fill:#ffffff;opacity:0.8;stroke:#cccccc;stroke-linejoin:miter;"/>
    </g>
    <g id="line2d_28">
     <path d="M 66.6 54.129813 
L 86.6 54.129813 
" style="fill:none;stroke:#1f77b4;stroke-linecap:round;stroke-width:1.5;"/>
    </g>
    <g id="line2d_29"/>
    <g id="text_22">
     <!-- bandit-opt -->
     <g style="fill:#262626;" transform="translate(94.6 57.629813)scale(0.1 -0.1)">
      <use xlink:href="#ArialMT-98"/>
      <use x="55.615234" xlink:href="#ArialMT-97"/>
      <use x="111.230469" xlink:href="#ArialMT-110"/>
      <use x="166.845703" xlink:href="#ArialMT-100"/>
      <use x="222.460938" xlink:href="#ArialMT-105"/>
      <use x="244.677734" xlink:href="#ArialMT-116"/>
      <use x="272.460938" xlink:href="#ArialMT-45"/>
      <use x="305.761719" xlink:href="#ArialMT-111"/>
      <use x="361.376953" xlink:href="#ArialMT-112"/>
      <use x="416.992188" xlink:href="#ArialMT-116"/>
     </g>
    </g>
    <g id="line2d_30">
     <path d="M 66.6 68.275125 
L 86.6 68.275125 
" style="fill:none;stroke:#ff7f0e;stroke-linecap:round;stroke-width:1.5;"/>
    </g>
    <g id="line2d_31"/>
    <g id="text_23">
     <!-- bandit-eps -->
     <g style="fill:#262626;" transform="translate(94.6 71.775125)scale(0.1 -0.1)">
      <use xlink:href="#ArialMT-98"/>
      <use x="55.615234" xlink:href="#ArialMT-97"/>
      <use x="111.230469" xlink:href="#ArialMT-110"/>
      <use x="166.845703" xlink:href="#ArialMT-100"/>
      <use x="222.460938" xlink:href="#ArialMT-105"/>
      <use x="244.677734" xlink:href="#ArialMT-116"/>
      <use x="272.460938" xlink:href="#ArialMT-45"/>
      <use x="305.761719" xlink:href="#ArialMT-101"/>
      <use x="361.376953" xlink:href="#ArialMT-112"/>
      <use x="416.992188" xlink:href="#ArialMT-115"/>
     </g>
    </g>
    <g id="line2d_32">
     <path d="M 66.6 82.420437 
L 86.6 82.420437 
" style="fill:none;stroke:#2ca02c;stroke-linecap:round;stroke-width:1.5;"/>
    </g>
    <g id="line2d_33"/>
    <g id="text_24">
     <!-- random -->
     <g style="fill:#262626;" transform="translate(94.6 85.920437)scale(0.1 -0.1)">
      <use xlink:href="#ArialMT-114"/>
      <use x="33.300781" xlink:href="#ArialMT-97"/>
      <use x="88.916016" xlink:href="#ArialMT-110"/>
      <use x="144.53125" xlink:href="#ArialMT-100"/>
      <use x="200.146484" xlink:href="#ArialMT-111"/>
      <use x="255.761719" xlink:href="#ArialMT-109"/>
     </g>
    </g>
    <g id="line2d_34">
     <path d="M 66.6 96.56575 
L 86.6 96.56575 
" style="fill:none;stroke:#d62728;stroke-linecap:round;stroke-width:1.5;"/>
    </g>
    <g id="line2d_35"/>
    <g id="text_25">
     <!-- qlearning -->
     <defs>
      <path d="M 39.65625 -19.875 
L 39.65625 5.515625 
Q 37.59375 2.640625 33.90625 0.734375 
Q 30.21875 -1.171875 26.078125 -1.171875 
Q 16.84375 -1.171875 10.171875 6.203125 
Q 3.515625 13.578125 3.515625 26.421875 
Q 3.515625 34.234375 6.21875 40.421875 
Q 8.9375 46.625 14.078125 49.828125 
Q 19.234375 53.03125 25.390625 53.03125 
Q 35.015625 53.03125 40.53125 44.921875 
L 40.53125 51.859375 
L 48.4375 51.859375 
L 48.4375 -19.875 
z
M 12.546875 26.078125 
Q 12.546875 16.0625 16.75 11.0625 
Q 20.953125 6.0625 26.8125 6.0625 
Q 32.421875 6.0625 36.46875 10.8125 
Q 40.53125 15.578125 40.53125 25.296875 
Q 40.53125 35.640625 36.25 40.859375 
Q 31.984375 46.09375 26.21875 46.09375 
Q 20.515625 46.09375 16.53125 41.234375 
Q 12.546875 36.375 12.546875 26.078125 
z
" id="ArialMT-113"/>
      <path d="M 4.984375 -4.296875 
L 13.53125 -5.5625 
Q 14.0625 -9.515625 16.5 -11.328125 
Q 19.78125 -13.765625 25.4375 -13.765625 
Q 31.546875 -13.765625 34.859375 -11.328125 
Q 38.1875 -8.890625 39.359375 -4.5 
Q 40.046875 -1.8125 39.984375 6.78125 
Q 34.234375 0 25.640625 0 
Q 14.9375 0 9.078125 7.71875 
Q 3.21875 15.4375 3.21875 26.21875 
Q 3.21875 33.640625 5.90625 39.90625 
Q 8.59375 46.1875 13.6875 49.609375 
Q 18.796875 53.03125 25.6875 53.03125 
Q 34.859375 53.03125 40.828125 45.609375 
L 40.828125 51.859375 
L 48.921875 51.859375 
L 48.921875 7.03125 
Q 48.921875 -5.078125 46.453125 -10.125 
Q 44 -15.1875 38.640625 -18.109375 
Q 33.296875 -21.046875 25.484375 -21.046875 
Q 16.21875 -21.046875 10.5 -16.875 
Q 4.78125 -12.703125 4.984375 -4.296875 
z
M 12.25 26.859375 
Q 12.25 16.65625 16.296875 11.96875 
Q 20.359375 7.28125 26.46875 7.28125 
Q 32.515625 7.28125 36.609375 11.9375 
Q 40.71875 16.609375 40.71875 26.5625 
Q 40.71875 36.078125 36.5 40.90625 
Q 32.28125 45.75 26.3125 45.75 
Q 20.453125 45.75 16.34375 40.984375 
Q 12.25 36.234375 12.25 26.859375 
z
" id="ArialMT-103"/>
     </defs>
     <g style="fill:#262626;" transform="translate(94.6 100.06575)scale(0.1 -0.1)">
      <use xlink:href="#ArialMT-113"/>
      <use x="55.615234" xlink:href="#ArialMT-108"/>
      <use x="77.832031" xlink:href="#ArialMT-101"/>
      <use x="133.447266" xlink:href="#ArialMT-97"/>
      <use x="189.0625" xlink:href="#ArialMT-114"/>
      <use x="222.363281" xlink:href="#ArialMT-110"/>
      <use x="277.978516" xlink:href="#ArialMT-105"/>
      <use x="300.195312" xlink:href="#ArialMT-110"/>
      <use x="355.810547" xlink:href="#ArialMT-103"/>
     </g>
    </g>
    <g id="line2d_36">
     <path d="M 66.6 110.82825 
L 86.6 110.82825 
" style="fill:none;stroke:#9467bd;stroke-linecap:round;stroke-width:1.5;"/>
    </g>
    <g id="line2d_37"/>
    <g id="text_26">
     <!-- bayes-low -->
     <defs>
      <path d="M 6.203125 -19.96875 
L 5.21875 -11.71875 
Q 8.109375 -12.5 10.25 -12.5 
Q 13.1875 -12.5 14.9375 -11.515625 
Q 16.703125 -10.546875 17.828125 -8.796875 
Q 18.65625 -7.46875 20.515625 -2.25 
Q 20.75 -1.515625 21.296875 -0.09375 
L 1.609375 51.859375 
L 11.078125 51.859375 
L 21.875 21.828125 
Q 23.96875 16.109375 25.640625 9.8125 
Q 27.15625 15.875 29.25 21.625 
L 40.328125 51.859375 
L 49.125 51.859375 
L 29.390625 -0.875 
Q 26.21875 -9.421875 24.46875 -12.640625 
Q 22.125 -17 19.09375 -19.015625 
Q 16.0625 -21.046875 11.859375 -21.046875 
Q 9.328125 -21.046875 6.203125 -19.96875 
z
" id="ArialMT-121"/>
     </defs>
     <g style="fill:#262626;" transform="translate(94.6 114.32825)scale(0.1 -0.1)">
      <use xlink:href="#ArialMT-98"/>
      <use x="55.615234" xlink:href="#ArialMT-97"/>
      <use x="111.230469" xlink:href="#ArialMT-121"/>
      <use x="161.230469" xlink:href="#ArialMT-101"/>
      <use x="216.845703" xlink:href="#ArialMT-115"/>
      <use x="266.845703" xlink:href="#ArialMT-45"/>
      <use x="300.146484" xlink:href="#ArialMT-108"/>
      <use x="322.363281" xlink:href="#ArialMT-111"/>
      <use x="377.978516" xlink:href="#ArialMT-119"/>
     </g>
    </g>
    <g id="line2d_38">
     <path d="M 66.6 125.09075 
L 86.6 125.09075 
" style="fill:none;stroke:#8c564b;stroke-linecap:round;stroke-width:1.5;"/>
    </g>
    <g id="line2d_39"/>
    <g id="text_27">
     <!-- bayes-high -->
     <defs>
      <path d="M 6.59375 0 
L 6.59375 71.578125 
L 15.375 71.578125 
L 15.375 45.90625 
Q 21.53125 53.03125 30.90625 53.03125 
Q 36.671875 53.03125 40.921875 50.75 
Q 45.171875 48.484375 47 44.484375 
Q 48.828125 40.484375 48.828125 32.859375 
L 48.828125 0 
L 40.046875 0 
L 40.046875 32.859375 
Q 40.046875 39.453125 37.1875 42.453125 
Q 34.328125 45.453125 29.109375 45.453125 
Q 25.203125 45.453125 21.75 43.421875 
Q 18.3125 41.40625 16.84375 37.9375 
Q 15.375 34.46875 15.375 28.375 
L 15.375 0 
z
" id="ArialMT-104"/>
     </defs>
     <g style="fill:#262626;" transform="translate(94.6 128.59075)scale(0.1 -0.1)">
      <use xlink:href="#ArialMT-98"/>
      <use x="55.615234" xlink:href="#ArialMT-97"/>
      <use x="111.230469" xlink:href="#ArialMT-121"/>
      <use x="161.230469" xlink:href="#ArialMT-101"/>
      <use x="216.845703" xlink:href="#ArialMT-115"/>
      <use x="266.845703" xlink:href="#ArialMT-45"/>
      <use x="300.146484" xlink:href="#ArialMT-104"/>
      <use x="355.761719" xlink:href="#ArialMT-105"/>
      <use x="377.978516" xlink:href="#ArialMT-103"/>
      <use x="433.59375" xlink:href="#ArialMT-104"/>
     </g>
    </g>
    <g id="line2d_40">
     <path d="M 66.6 139.475125 
L 86.6 139.475125 
" style="fill:none;stroke:#e377c2;stroke-linecap:round;stroke-width:1.5;"/>
    </g>
    <g id="line2d_41"/>
    <g id="text_28">
     <!-- mlfq -->
     <g style="fill:#262626;" transform="translate(94.6 142.975125)scale(0.1 -0.1)">
      <use xlink:href="#ArialMT-109"/>
      <use x="83.300781" xlink:href="#ArialMT-108"/>
      <use x="105.517578" xlink:href="#ArialMT-102"/>
      <use x="133.300781" xlink:href="#ArialMT-113"/>
     </g>
    </g>
    <g id="line2d_42">
     <path d="M 66.6 153.620438 
L 86.6 153.620438 
" style="fill:none;stroke:#7f7f7f;stroke-linecap:round;stroke-width:1.5;"/>
    </g>
    <g id="line2d_43"/>
    <g id="text_29">
     <!-- tableau -->
     <g style="fill:#262626;" transform="translate(94.6 157.120438)scale(0.1 -0.1)">
      <use xlink:href="#ArialMT-116"/>
      <use x="27.783203" xlink:href="#ArialMT-97"/>
      <use x="83.398438" xlink:href="#ArialMT-98"/>
      <use x="139.013672" xlink:href="#ArialMT-108"/>
      <use x="161.230469" xlink:href="#ArialMT-101"/>
      <use x="216.845703" xlink:href="#ArialMT-97"/>
      <use x="272.460938" xlink:href="#ArialMT-117"/>
     </g>
    </g>
    <g id="line2d_44">
     <path d="M 66.6 167.76575 
L 86.6 167.76575 
" style="fill:none;stroke:#bcbd22;stroke-linecap:round;stroke-width:1.5;"/>
    </g>
    <g id="line2d_45"/>
    <g id="text_30">
     <!-- ann -->
     <g style="fill:#262626;" transform="translate(94.6 171.26575)scale(0.1 -0.1)">
      <use xlink:href="#ArialMT-97"/>
      <use x="55.615234" xlink:href="#ArialMT-110"/>
      <use x="111.230469" xlink:href="#ArialMT-110"/>
     </g>
    </g>
   </g>
  </g>
 </g>
 <defs>
  <clipPath id="pf2d15eb2e8">
   <rect height="266.112" width="357.12" x="57.6" y="41.472"/>
  </clipPath>
 </defs>
</svg>
