<?xml version="1.0" encoding="utf-8" standalone="no"?>
<!DOCTYPE svg PUBLIC "-//W3C//DTD SVG 1.1//EN"
  "http://www.w3.org/Graphics/SVG/1.1/DTD/svg11.dtd">
<!-- Created with matplotlib (https://matplotlib.org/) -->
<svg height="345.6pt" version="1.1" viewBox="0 0 460.8 345.6" width="460.8pt" xmlns="http://www.w3.org/2000/svg" xmlns:xlink="http://www.w3.org/1999/xlink">
 <defs>
  <style type="text/css">
*{stroke-linecap:butt;stroke-linejoin:round;}
  </style>
 </defs>
 <g id="figure_1">
  <g id="patch_1">
   <path d="M 0 345.6 
L 460.8 345.6 
L 460.8 0 
L 0 0 
z
" style="fill:#ffffff;"/>
  </g>
  <g id="axes_1">
   <g id="patch_2">
    <path d="M 57.6 307.584 
L 414.72 307.584 
L 414.72 41.472 
L 57.6 41.472 
z
" style="fill:#ffffff;"/>
   </g>
   <g id="matplotlib.axis_1">
    <g id="xtick_1">
     <g id="line2d_1">
      <path clip-path="url(#p8b95328a43)" d="M 65.508252 307.584 
L 65.508252 41.472 
" style="fill:none;stroke:#cccccc;stroke-linecap:round;stroke-width:0.8;"/>
     </g>
     <g id="text_1">
      <!-- 0 -->
      <defs>
       <path d="M 4.15625 35.296875 
Q 4.15625 48 6.765625 55.734375 
Q 9.375 63.484375 14.515625 67.671875 
Q 19.671875 71.875 27.484375 71.875 
Q 33.25 71.875 37.59375 69.546875 
Q 41.9375 67.234375 44.765625 62.859375 
Q 47.609375 58.5 49.21875 52.21875 
Q 50.828125 45.953125 50.828125 35.296875 
Q 50.828125 22.703125 48.234375 14.96875 
Q 45.65625 7.234375 40.5 3 
Q 35.359375 -1.21875 27.484375 -1.21875 
Q 17.140625 -1.21875 11.234375 6.203125 
Q 4.15625 15.140625 4.15625 35.296875 
z
M 13.1875 35.296875 
Q 13.1875 17.671875 17.3125 11.828125 
Q 21.4375 6 27.484375 6 
Q 33.546875 6 37.671875 11.859375 
Q 41.796875 17.71875 41.796875 35.296875 
Q 41.796875 52.984375 37.671875 58.78125 
Q 33.546875 64.59375 27.390625 64.59375 
Q 21.34375 64.59375 17.71875 59.46875 
Q 13.1875 52.9375 13.1875 35.296875 
z
" id="ArialMT-48"/>
      </defs>
      <g style="fill:#262626;" transform="translate(62.727783 321.741812)scale(0.1 -0.1)">
       <use xlink:href="#ArialMT-48"/>
      </g>
     </g>
    </g>
    <g id="xtick_2">
     <g id="line2d_2">
      <path clip-path="url(#p8b95328a43)" d="M 107.130629 307.584 
L 107.130629 41.472 
" style="fill:none;stroke:#cccccc;stroke-linecap:round;stroke-width:0.8;"/>
     </g>
     <g id="text_2">
      <!-- 50 -->
      <defs>
       <path d="M 4.15625 18.75 
L 13.375 19.53125 
Q 14.40625 12.796875 18.140625 9.390625 
Q 21.875 6 27.15625 6 
Q 33.5 6 37.890625 10.78125 
Q 42.28125 15.578125 42.28125 23.484375 
Q 42.28125 31 38.0625 35.34375 
Q 33.84375 39.703125 27 39.703125 
Q 22.75 39.703125 19.328125 37.765625 
Q 15.921875 35.84375 13.96875 32.765625 
L 5.71875 33.84375 
L 12.640625 70.609375 
L 48.25 70.609375 
L 48.25 62.203125 
L 19.671875 62.203125 
L 15.828125 42.96875 
Q 22.265625 47.46875 29.34375 47.46875 
Q 38.71875 47.46875 45.15625 40.96875 
Q 51.609375 34.46875 51.609375 24.265625 
Q 51.609375 14.546875 45.953125 7.46875 
Q 39.0625 -1.21875 27.15625 -1.21875 
Q 17.390625 -1.21875 11.203125 4.25 
Q 5.03125 9.71875 4.15625 18.75 
z
" id="ArialMT-53"/>
      </defs>
      <g style="fill:#262626;" transform="translate(101.569692 321.741812)scale(0.1 -0.1)">
       <use xlink:href="#ArialMT-53"/>
       <use x="55.615234" xlink:href="#ArialMT-48"/>
      </g>
     </g>
    </g>
    <g id="xtick_3">
     <g id="line2d_3">
      <path clip-path="url(#p8b95328a43)" d="M 148.753007 307.584 
L 148.753007 41.472 
" style="fill:none;stroke:#cccccc;stroke-linecap:round;stroke-width:0.8;"/>
     </g>
     <g id="text_3">
      <!-- 100 -->
      <defs>
       <path d="M 37.25 0 
L 28.46875 0 
L 28.46875 56 
Q 25.296875 52.984375 20.140625 49.953125 
Q 14.984375 46.921875 10.890625 45.40625 
L 10.890625 53.90625 
Q 18.265625 57.375 23.78125 62.296875 
Q 29.296875 67.234375 31.59375 71.875 
L 37.25 71.875 
z
" id="ArialMT-49"/>
      </defs>
      <g style="fill:#262626;" transform="translate(140.411601 321.741812)scale(0.1 -0.1)">
       <use xlink:href="#ArialMT-49"/>
       <use x="55.615234" xlink:href="#ArialMT-48"/>
       <use x="111.230469" xlink:href="#ArialMT-48"/>
      </g>
     </g>
    </g>
    <g id="xtick_4">
     <g id="line2d_4">
      <path clip-path="url(#p8b95328a43)" d="M 190.375385 307.584 
L 190.375385 41.472 
" style="fill:none;stroke:#cccccc;stroke-linecap:round;stroke-width:0.8;"/>
     </g>
     <g id="text_4">
      <!-- 150 -->
      <g style="fill:#262626;" transform="translate(182.033978 321.741812)scale(0.1 -0.1)">
       <use xlink:href="#ArialMT-49"/>
       <use x="55.615234" xlink:href="#ArialMT-53"/>
       <use x="111.230469" xlink:href="#ArialMT-48"/>
      </g>
     </g>
    </g>
    <g id="xtick_5">
     <g id="line2d_5">
      <path clip-path="url(#p8b95328a43)" d="M 231.997762 307.584 
L 231.997762 41.472 
" style="fill:none;stroke:#cccccc;stroke-linecap:round;stroke-width:0.8;"/>
     </g>
     <g id="text_5">
      <!-- 200 -->
      <defs>
       <path d="M 50.34375 8.453125 
L 50.34375 0 
L 3.03125 0 
Q 2.9375 3.171875 4.046875 6.109375 
Q 5.859375 10.9375 9.828125 15.625 
Q 13.8125 20.3125 21.34375 26.46875 
Q 33.015625 36.03125 37.109375 41.625 
Q 41.21875 47.21875 41.21875 52.203125 
Q 41.21875 57.421875 37.46875 61 
Q 33.734375 64.59375 27.734375 64.59375 
Q 21.390625 64.59375 17.578125 60.78125 
Q 13.765625 56.984375 13.71875 50.25 
L 4.6875 51.171875 
Q 5.609375 61.28125 11.65625 66.578125 
Q 17.71875 71.875 27.9375 71.875 
Q 38.234375 71.875 44.234375 66.15625 
Q 50.25 60.453125 50.25 52 
Q 50.25 47.703125 48.484375 43.546875 
Q 46.734375 39.40625 42.65625 34.8125 
Q 38.578125 30.21875 29.109375 22.21875 
Q 21.1875 15.578125 18.9375 13.203125 
Q 16.703125 10.84375 15.234375 8.453125 
z
" id="ArialMT-50"/>
      </defs>
      <g style="fill:#262626;" transform="translate(223.656356 321.741812)scale(0.1 -0.1)">
       <use xlink:href="#ArialMT-50"/>
       <use x="55.615234" xlink:href="#ArialMT-48"/>
       <use x="111.230469" xlink:href="#ArialMT-48"/>
      </g>
     </g>
    </g>
    <g id="xtick_6">
     <g id="line2d_6">
      <path clip-path="url(#p8b95328a43)" d="M 273.62014 307.584 
L 273.62014 41.472 
" style="fill:none;stroke:#cccccc;stroke-linecap:round;stroke-width:0.8;"/>
     </g>
     <g id="text_6">
      <!-- 250 -->
      <g style="fill:#262626;" transform="translate(265.278734 321.741812)scale(0.1 -0.1)">
       <use xlink:href="#ArialMT-50"/>
       <use x="55.615234" xlink:href="#ArialMT-53"/>
       <use x="111.230469" xlink:href="#ArialMT-48"/>
      </g>
     </g>
    </g>
    <g id="xtick_7">
     <g id="line2d_7">
      <path clip-path="url(#p8b95328a43)" d="M 315.242517 307.584 
L 315.242517 41.472 
" style="fill:none;stroke:#cccccc;stroke-linecap:round;stroke-width:0.8;"/>
     </g>
     <g id="text_7">
      <!-- 300 -->
      <defs>
       <path d="M 4.203125 18.890625 
L 12.984375 20.0625 
Q 14.5 12.59375 18.140625 9.296875 
Q 21.78125 6 27 6 
Q 33.203125 6 37.46875 10.296875 
Q 41.75 14.59375 41.75 20.953125 
Q 41.75 27 37.796875 30.921875 
Q 33.84375 34.859375 27.734375 34.859375 
Q 25.25 34.859375 21.53125 33.890625 
L 22.515625 41.609375 
Q 23.390625 41.5 23.921875 41.5 
Q 29.546875 41.5 34.03125 44.421875 
Q 38.53125 47.359375 38.53125 53.46875 
Q 38.53125 58.296875 35.25 61.46875 
Q 31.984375 64.65625 26.8125 64.65625 
Q 21.6875 64.65625 18.265625 61.421875 
Q 14.84375 58.203125 13.875 51.765625 
L 5.078125 53.328125 
Q 6.6875 62.15625 12.390625 67.015625 
Q 18.109375 71.875 26.609375 71.875 
Q 32.46875 71.875 37.390625 69.359375 
Q 42.328125 66.84375 44.9375 62.5 
Q 47.5625 58.15625 47.5625 53.265625 
Q 47.5625 48.640625 45.0625 44.828125 
Q 42.578125 41.015625 37.703125 38.765625 
Q 44.046875 37.3125 47.5625 32.6875 
Q 51.078125 28.078125 51.078125 21.140625 
Q 51.078125 11.765625 44.234375 5.25 
Q 37.40625 -1.265625 26.953125 -1.265625 
Q 17.53125 -1.265625 11.296875 4.34375 
Q 5.078125 9.96875 4.203125 18.890625 
z
" id="ArialMT-51"/>
      </defs>
      <g style="fill:#262626;" transform="translate(306.901111 321.741812)scale(0.1 -0.1)">
       <use xlink:href="#ArialMT-51"/>
       <use x="55.615234" xlink:href="#ArialMT-48"/>
       <use x="111.230469" xlink:href="#ArialMT-48"/>
      </g>
     </g>
    </g>
    <g id="xtick_8">
     <g id="line2d_8">
      <path clip-path="url(#p8b95328a43)" d="M 356.864895 307.584 
L 356.864895 41.472 
" style="fill:none;stroke:#cccccc;stroke-linecap:round;stroke-width:0.8;"/>
     </g>
     <g id="text_8">
      <!-- 350 -->
      <g style="fill:#262626;" transform="translate(348.523489 321.741812)scale(0.1 -0.1)">
       <use xlink:href="#ArialMT-51"/>
       <use x="55.615234" xlink:href="#ArialMT-53"/>
       <use x="111.230469" xlink:href="#ArialMT-48"/>
      </g>
     </g>
    </g>
    <g id="xtick_9">
     <g id="line2d_9">
      <path clip-path="url(#p8b95328a43)" d="M 398.487273 307.584 
L 398.487273 41.472 
" style="fill:none;stroke:#cccccc;stroke-linecap:round;stroke-width:0.8;"/>
     </g>
     <g id="text_9">
      <!-- 400 -->
      <defs>
       <path d="M 32.328125 0 
L 32.328125 17.140625 
L 1.265625 17.140625 
L 1.265625 25.203125 
L 33.9375 71.578125 
L 41.109375 71.578125 
L 41.109375 25.203125 
L 50.78125 25.203125 
L 50.78125 17.140625 
L 41.109375 17.140625 
L 41.109375 0 
z
M 32.328125 25.203125 
L 32.328125 57.46875 
L 9.90625 25.203125 
z
" id="ArialMT-52"/>
      </defs>
      <g style="fill:#262626;" transform="translate(390.145866 321.741812)scale(0.1 -0.1)">
       <use xlink:href="#ArialMT-52"/>
       <use x="55.615234" xlink:href="#ArialMT-48"/>
       <use x="111.230469" xlink:href="#ArialMT-48"/>
      </g>
     </g>
    </g>
    <g id="text_10">
     <!-- experiments run -->
     <defs>
      <path d="M 42.09375 16.703125 
L 51.171875 15.578125 
Q 49.03125 7.625 43.21875 3.21875 
Q 37.40625 -1.171875 28.375 -1.171875 
Q 17 -1.171875 10.328125 5.828125 
Q 3.65625 12.84375 3.65625 25.484375 
Q 3.65625 38.578125 10.390625 45.796875 
Q 17.140625 53.03125 27.875 53.03125 
Q 38.28125 53.03125 44.875 45.953125 
Q 51.46875 38.875 51.46875 26.03125 
Q 51.46875 25.25 51.421875 23.6875 
L 12.75 23.6875 
Q 13.234375 15.140625 17.578125 10.59375 
Q 21.921875 6.0625 28.421875 6.0625 
Q 33.25 6.0625 36.671875 8.59375 
Q 40.09375 11.140625 42.09375 16.703125 
z
M 13.234375 30.90625 
L 42.1875 30.90625 
Q 41.609375 37.453125 38.875 40.71875 
Q 34.671875 45.796875 27.984375 45.796875 
Q 21.921875 45.796875 17.796875 41.75 
Q 13.671875 37.703125 13.234375 30.90625 
z
" id="ArialMT-101"/>
      <path d="M 0.734375 0 
L 19.671875 26.953125 
L 2.15625 51.859375 
L 13.140625 51.859375 
L 21.09375 39.703125 
Q 23.34375 36.234375 24.703125 33.890625 
Q 26.859375 37.109375 28.65625 39.59375 
L 37.40625 51.859375 
L 47.90625 51.859375 
L 29.984375 27.4375 
L 49.265625 0 
L 38.484375 0 
L 27.828125 16.109375 
L 25 20.453125 
L 11.375 0 
z
" id="ArialMT-120"/>
      <path d="M 6.59375 -19.875 
L 6.59375 51.859375 
L 14.59375 51.859375 
L 14.59375 45.125 
Q 17.4375 49.078125 21 51.046875 
Q 24.5625 53.03125 29.640625 53.03125 
Q 36.28125 53.03125 41.359375 49.609375 
Q 46.4375 46.1875 49.015625 39.953125 
Q 51.609375 33.734375 51.609375 26.3125 
Q 51.609375 18.359375 48.75 11.984375 
Q 45.90625 5.609375 40.453125 2.21875 
Q 35.015625 -1.171875 29 -1.171875 
Q 24.609375 -1.171875 21.109375 0.6875 
Q 17.625 2.546875 15.375 5.375 
L 15.375 -19.875 
z
M 14.546875 25.640625 
Q 14.546875 15.625 18.59375 10.84375 
Q 22.65625 6.0625 28.421875 6.0625 
Q 34.28125 6.0625 38.453125 11.015625 
Q 42.625 15.96875 42.625 26.375 
Q 42.625 36.28125 38.546875 41.203125 
Q 34.46875 46.140625 28.8125 46.140625 
Q 23.1875 46.140625 18.859375 40.890625 
Q 14.546875 35.640625 14.546875 25.640625 
z
" id="ArialMT-112"/>
      <path d="M 6.5 0 
L 6.5 51.859375 
L 14.40625 51.859375 
L 14.40625 44 
Q 17.4375 49.515625 20 51.265625 
Q 22.5625 53.03125 25.640625 53.03125 
Q 30.078125 53.03125 34.671875 50.203125 
L 31.640625 42.046875 
Q 28.421875 43.953125 25.203125 43.953125 
Q 22.3125 43.953125 20.015625 42.21875 
Q 17.71875 40.484375 16.75 37.40625 
Q 15.28125 32.71875 15.28125 27.15625 
L 15.28125 0 
z
" id="ArialMT-114"/>
      <path d="M 6.640625 61.46875 
L 6.640625 71.578125 
L 15.4375 71.578125 
L 15.4375 61.46875 
z
M 6.640625 0 
L 6.640625 51.859375 
L 15.4375 51.859375 
L 15.4375 0 
z
" id="ArialMT-105"/>
      <path d="M 6.59375 0 
L 6.59375 51.859375 
L 14.453125 51.859375 
L 14.453125 44.578125 
Q 16.890625 48.390625 20.9375 50.703125 
Q 25 53.03125 30.171875 53.03125 
Q 35.9375 53.03125 39.625 50.640625 
Q 43.3125 48.25 44.828125 43.953125 
Q 50.984375 53.03125 60.84375 53.03125 
Q 68.5625 53.03125 72.703125 48.75 
Q 76.859375 44.484375 76.859375 35.59375 
L 76.859375 0 
L 68.109375 0 
L 68.109375 32.671875 
Q 68.109375 37.9375 67.25 40.25 
Q 66.40625 42.578125 64.15625 43.984375 
Q 61.921875 45.40625 58.890625 45.40625 
Q 53.421875 45.40625 49.796875 41.765625 
Q 46.1875 38.140625 46.1875 30.125 
L 46.1875 0 
L 37.40625 0 
L 37.40625 33.6875 
Q 37.40625 39.546875 35.25 42.46875 
Q 33.109375 45.40625 28.21875 45.40625 
Q 24.515625 45.40625 21.359375 43.453125 
Q 18.21875 41.5 16.796875 37.734375 
Q 15.375 33.984375 15.375 26.90625 
L 15.375 0 
z
" id="ArialMT-109"/>
      <path d="M 6.59375 0 
L 6.59375 51.859375 
L 14.5 51.859375 
L 14.5 44.484375 
Q 20.21875 53.03125 31 53.03125 
Q 35.6875 53.03125 39.625 51.34375 
Q 43.5625 49.65625 45.515625 46.921875 
Q 47.46875 44.1875 48.25 40.4375 
Q 48.734375 37.984375 48.734375 31.890625 
L 48.734375 0 
L 39.9375 0 
L 39.9375 31.546875 
Q 39.9375 36.921875 38.90625 39.578125 
Q 37.890625 42.234375 35.28125 43.8125 
Q 32.671875 45.40625 29.15625 45.40625 
Q 23.53125 45.40625 19.453125 41.84375 
Q 15.375 38.28125 15.375 28.328125 
L 15.375 0 
z
" id="ArialMT-110"/>
      <path d="M 25.78125 7.859375 
L 27.046875 0.09375 
Q 23.34375 -0.6875 20.40625 -0.6875 
Q 15.625 -0.6875 12.984375 0.828125 
Q 10.359375 2.34375 9.28125 4.8125 
Q 8.203125 7.28125 8.203125 15.1875 
L 8.203125 45.015625 
L 1.765625 45.015625 
L 1.765625 51.859375 
L 8.203125 51.859375 
L 8.203125 64.703125 
L 16.9375 69.96875 
L 16.9375 51.859375 
L 25.78125 51.859375 
L 25.78125 45.015625 
L 16.9375 45.015625 
L 16.9375 14.703125 
Q 16.9375 10.9375 17.40625 9.859375 
Q 17.875 8.796875 18.921875 8.15625 
Q 19.96875 7.515625 21.921875 7.515625 
Q 23.390625 7.515625 25.78125 7.859375 
z
" id="ArialMT-116"/>
      <path d="M 3.078125 15.484375 
L 11.765625 16.84375 
Q 12.5 11.625 15.84375 8.84375 
Q 19.1875 6.0625 25.203125 6.0625 
Q 31.25 6.0625 34.171875 8.515625 
Q 37.109375 10.984375 37.109375 14.3125 
Q 37.109375 17.28125 34.515625 19 
Q 32.71875 20.171875 25.53125 21.96875 
Q 15.875 24.421875 12.140625 26.203125 
Q 8.40625 27.984375 6.46875 31.125 
Q 4.546875 34.28125 4.546875 38.09375 
Q 4.546875 41.546875 6.125 44.5 
Q 7.71875 47.46875 10.453125 49.421875 
Q 12.5 50.921875 16.03125 51.96875 
Q 19.578125 53.03125 23.640625 53.03125 
Q 29.734375 53.03125 34.34375 51.265625 
Q 38.96875 49.515625 41.15625 46.5 
Q 43.359375 43.5 44.1875 38.484375 
L 35.59375 37.3125 
Q 35.015625 41.3125 32.203125 43.546875 
Q 29.390625 45.796875 24.265625 45.796875 
Q 18.21875 45.796875 15.625 43.796875 
Q 13.03125 41.796875 13.03125 39.109375 
Q 13.03125 37.40625 14.109375 36.03125 
Q 15.1875 34.625 17.484375 33.6875 
Q 18.796875 33.203125 25.25 31.453125 
Q 34.578125 28.953125 38.25 27.359375 
Q 41.9375 25.78125 44.03125 22.75 
Q 46.140625 19.734375 46.140625 15.234375 
Q 46.140625 10.84375 43.578125 6.953125 
Q 41.015625 3.078125 36.171875 0.953125 
Q 31.34375 -1.171875 25.25 -1.171875 
Q 15.140625 -1.171875 9.84375 3.03125 
Q 4.546875 7.234375 3.078125 15.484375 
z
" id="ArialMT-115"/>
      <path id="ArialMT-32"/>
      <path d="M 40.578125 0 
L 40.578125 7.625 
Q 34.515625 -1.171875 24.125 -1.171875 
Q 19.53125 -1.171875 15.546875 0.578125 
Q 11.578125 2.34375 9.640625 5 
Q 7.71875 7.671875 6.9375 11.53125 
Q 6.390625 14.109375 6.390625 19.734375 
L 6.390625 51.859375 
L 15.1875 51.859375 
L 15.1875 23.09375 
Q 15.1875 16.21875 15.71875 13.8125 
Q 16.546875 10.359375 19.234375 8.375 
Q 21.921875 6.390625 25.875 6.390625 
Q 29.828125 6.390625 33.296875 8.421875 
Q 36.765625 10.453125 38.203125 13.9375 
Q 39.65625 17.4375 39.65625 24.078125 
L 39.65625 51.859375 
L 48.4375 51.859375 
L 48.4375 0 
z
" id="ArialMT-117"/>
     </defs>
     <g style="fill:#262626;" transform="translate(200.313125 334.887125)scale(0.1 -0.1)">
      <use xlink:href="#ArialMT-101"/>
      <use x="55.615234" xlink:href="#ArialMT-120"/>
      <use x="105.615234" xlink:href="#ArialMT-112"/>
      <use x="161.230469" xlink:href="#ArialMT-101"/>
      <use x="216.845703" xlink:href="#ArialMT-114"/>
      <use x="250.146484" xlink:href="#ArialMT-105"/>
      <use x="272.363281" xlink:href="#ArialMT-109"/>
      <use x="355.664062" xlink:href="#ArialMT-101"/>
      <use x="411.279297" xlink:href="#ArialMT-110"/>
      <use x="466.894531" xlink:href="#ArialMT-116"/>
      <use x="494.677734" xlink:href="#ArialMT-115"/>
      <use x="544.677734" xlink:href="#ArialMT-32"/>
      <use x="572.460938" xlink:href="#ArialMT-114"/>
      <use x="605.761719" xlink:href="#ArialMT-117"/>
      <use x="661.376953" xlink:href="#ArialMT-110"/>
     </g>
    </g>
   </g>
   <g id="matplotlib.axis_2">
    <g id="ytick_1">
     <g id="line2d_10">
      <path clip-path="url(#p8b95328a43)" d="M 57.6 274.591887 
L 414.72 274.591887 
" style="fill:none;stroke:#cccccc;stroke-linecap:round;stroke-width:0.8;"/>
     </g>
     <g id="text_11">
      <!-- 0.4 -->
      <defs>
       <path d="M 9.078125 0 
L 9.078125 10.015625 
L 19.09375 10.015625 
L 19.09375 0 
z
" id="ArialMT-46"/>
      </defs>
      <g style="fill:#262626;" transform="translate(36.7 278.170793)scale(0.1 -0.1)">
       <use xlink:href="#ArialMT-48"/>
       <use x="55.615234" xlink:href="#ArialMT-46"/>
       <use x="83.398438" xlink:href="#ArialMT-52"/>
      </g>
     </g>
    </g>
    <g id="ytick_2">
     <g id="line2d_11">
      <path clip-path="url(#p8b95328a43)" d="M 57.6 236.598954 
L 414.72 236.598954 
" style="fill:none;stroke:#cccccc;stroke-linecap:round;stroke-width:0.8;"/>
     </g>
     <g id="text_12">
      <!-- 0.5 -->
      <g style="fill:#262626;" transform="translate(36.7 240.17786)scale(0.1 -0.1)">
       <use xlink:href="#ArialMT-48"/>
       <use x="55.615234" xlink:href="#ArialMT-46"/>
       <use x="83.398438" xlink:href="#ArialMT-53"/>
      </g>
     </g>
    </g>
    <g id="ytick_3">
     <g id="line2d_12">
      <path clip-path="url(#p8b95328a43)" d="M 57.6 198.606021 
L 414.72 198.606021 
" style="fill:none;stroke:#cccccc;stroke-linecap:round;stroke-width:0.8;"/>
     </g>
     <g id="text_13">
      <!-- 0.6 -->
      <defs>
       <path d="M 49.75 54.046875 
L 41.015625 53.375 
Q 39.84375 58.546875 37.703125 60.890625 
Q 34.125 64.65625 28.90625 64.65625 
Q 24.703125 64.65625 21.53125 62.3125 
Q 17.390625 59.28125 14.984375 53.46875 
Q 12.59375 47.65625 12.5 36.921875 
Q 15.671875 41.75 20.265625 44.09375 
Q 24.859375 46.4375 29.890625 46.4375 
Q 38.671875 46.4375 44.84375 39.96875 
Q 51.03125 33.5 51.03125 23.25 
Q 51.03125 16.5 48.125 10.71875 
Q 45.21875 4.9375 40.140625 1.859375 
Q 35.0625 -1.21875 28.609375 -1.21875 
Q 17.625 -1.21875 10.6875 6.859375 
Q 3.765625 14.9375 3.765625 33.5 
Q 3.765625 54.25 11.421875 63.671875 
Q 18.109375 71.875 29.4375 71.875 
Q 37.890625 71.875 43.28125 67.140625 
Q 48.6875 62.40625 49.75 54.046875 
z
M 13.875 23.1875 
Q 13.875 18.65625 15.796875 14.5 
Q 17.71875 10.359375 21.1875 8.171875 
Q 24.65625 6 28.46875 6 
Q 34.03125 6 38.03125 10.484375 
Q 42.046875 14.984375 42.046875 22.703125 
Q 42.046875 30.125 38.078125 34.390625 
Q 34.125 38.671875 28.125 38.671875 
Q 22.171875 38.671875 18.015625 34.390625 
Q 13.875 30.125 13.875 23.1875 
z
" id="ArialMT-54"/>
      </defs>
      <g style="fill:#262626;" transform="translate(36.7 202.184927)scale(0.1 -0.1)">
       <use xlink:href="#ArialMT-48"/>
       <use x="55.615234" xlink:href="#ArialMT-46"/>
       <use x="83.398438" xlink:href="#ArialMT-54"/>
      </g>
     </g>
    </g>
    <g id="ytick_4">
     <g id="line2d_13">
      <path clip-path="url(#p8b95328a43)" d="M 57.6 160.613088 
L 414.72 160.613088 
" style="fill:none;stroke:#cccccc;stroke-linecap:round;stroke-width:0.8;"/>
     </g>
     <g id="text_14">
      <!-- 0.7 -->
      <defs>
       <path d="M 4.734375 62.203125 
L 4.734375 70.65625 
L 51.078125 70.65625 
L 51.078125 63.8125 
Q 44.234375 56.546875 37.515625 44.484375 
Q 30.8125 32.421875 27.15625 19.671875 
Q 24.515625 10.6875 23.78125 0 
L 14.75 0 
Q 14.890625 8.453125 18.0625 20.40625 
Q 21.234375 32.375 27.171875 43.484375 
Q 33.109375 54.59375 39.796875 62.203125 
z
" id="ArialMT-55"/>
      </defs>
      <g style="fill:#262626;" transform="translate(36.7 164.191995)scale(0.1 -0.1)">
       <use xlink:href="#ArialMT-48"/>
       <use x="55.615234" xlink:href="#ArialMT-46"/>
       <use x="83.398438" xlink:href="#ArialMT-55"/>
      </g>
     </g>
    </g>
    <g id="ytick_5">
     <g id="line2d_14">
      <path clip-path="url(#p8b95328a43)" d="M 57.6 122.620155 
L 414.72 122.620155 
" style="fill:none;stroke:#cccccc;stroke-linecap:round;stroke-width:0.8;"/>
     </g>
     <g id="text_15">
      <!-- 0.8 -->
      <defs>
       <path d="M 17.671875 38.8125 
Q 12.203125 40.828125 9.5625 44.53125 
Q 6.9375 48.25 6.9375 53.421875 
Q 6.9375 61.234375 12.546875 66.546875 
Q 18.171875 71.875 27.484375 71.875 
Q 36.859375 71.875 42.578125 66.421875 
Q 48.296875 60.984375 48.296875 53.171875 
Q 48.296875 48.1875 45.671875 44.5 
Q 43.0625 40.828125 37.75 38.8125 
Q 44.34375 36.671875 47.78125 31.875 
Q 51.21875 27.09375 51.21875 20.453125 
Q 51.21875 11.28125 44.71875 5.03125 
Q 38.234375 -1.21875 27.640625 -1.21875 
Q 17.046875 -1.21875 10.546875 5.046875 
Q 4.046875 11.328125 4.046875 20.703125 
Q 4.046875 27.6875 7.59375 32.390625 
Q 11.140625 37.109375 17.671875 38.8125 
z
M 15.921875 53.71875 
Q 15.921875 48.640625 19.1875 45.40625 
Q 22.46875 42.1875 27.6875 42.1875 
Q 32.765625 42.1875 36.015625 45.375 
Q 39.265625 48.578125 39.265625 53.21875 
Q 39.265625 58.0625 35.90625 61.359375 
Q 32.5625 64.65625 27.59375 64.65625 
Q 22.5625 64.65625 19.234375 61.421875 
Q 15.921875 58.203125 15.921875 53.71875 
z
M 13.09375 20.65625 
Q 13.09375 16.890625 14.875 13.375 
Q 16.65625 9.859375 20.171875 7.921875 
Q 23.6875 6 27.734375 6 
Q 34.03125 6 38.125 10.046875 
Q 42.234375 14.109375 42.234375 20.359375 
Q 42.234375 26.703125 38.015625 30.859375 
Q 33.796875 35.015625 27.4375 35.015625 
Q 21.234375 35.015625 17.15625 30.90625 
Q 13.09375 26.8125 13.09375 20.65625 
z
" id="ArialMT-56"/>
      </defs>
      <g style="fill:#262626;" transform="translate(36.7 126.199062)scale(0.1 -0.1)">
       <use xlink:href="#ArialMT-48"/>
       <use x="55.615234" xlink:href="#ArialMT-46"/>
       <use x="83.398438" xlink:href="#ArialMT-56"/>
      </g>
     </g>
    </g>
    <g id="ytick_6">
     <g id="line2d_15">
      <path clip-path="url(#p8b95328a43)" d="M 57.6 84.627223 
L 414.72 84.627223 
" style="fill:none;stroke:#cccccc;stroke-linecap:round;stroke-width:0.8;"/>
     </g>
     <g id="text_16">
      <!-- 0.9 -->
      <defs>
       <path d="M 5.46875 16.546875 
L 13.921875 17.328125 
Q 14.984375 11.375 18.015625 8.6875 
Q 21.046875 6 25.78125 6 
Q 29.828125 6 32.875 7.859375 
Q 35.9375 9.71875 37.890625 12.8125 
Q 39.84375 15.921875 41.15625 21.1875 
Q 42.484375 26.46875 42.484375 31.9375 
Q 42.484375 32.515625 42.4375 33.6875 
Q 39.796875 29.5 35.234375 26.875 
Q 30.671875 24.265625 25.34375 24.265625 
Q 16.453125 24.265625 10.296875 30.703125 
Q 4.15625 37.15625 4.15625 47.703125 
Q 4.15625 58.59375 10.578125 65.234375 
Q 17 71.875 26.65625 71.875 
Q 33.640625 71.875 39.421875 68.109375 
Q 45.21875 64.359375 48.21875 57.390625 
Q 51.21875 50.4375 51.21875 37.25 
Q 51.21875 23.53125 48.234375 15.40625 
Q 45.265625 7.28125 39.375 3.03125 
Q 33.5 -1.21875 25.59375 -1.21875 
Q 17.1875 -1.21875 11.859375 3.4375 
Q 6.546875 8.109375 5.46875 16.546875 
z
M 41.453125 48.140625 
Q 41.453125 55.71875 37.421875 60.15625 
Q 33.40625 64.59375 27.734375 64.59375 
Q 21.875 64.59375 17.53125 59.8125 
Q 13.1875 55.03125 13.1875 47.40625 
Q 13.1875 40.578125 17.3125 36.296875 
Q 21.4375 32.03125 27.484375 32.03125 
Q 33.59375 32.03125 37.515625 36.296875 
Q 41.453125 40.578125 41.453125 48.140625 
z
" id="ArialMT-57"/>
      </defs>
      <g style="fill:#262626;" transform="translate(36.7 88.206129)scale(0.1 -0.1)">
       <use xlink:href="#ArialMT-48"/>
       <use x="55.615234" xlink:href="#ArialMT-46"/>
       <use x="83.398438" xlink:href="#ArialMT-57"/>
      </g>
     </g>
    </g>
    <g id="ytick_7">
     <g id="line2d_16">
      <path clip-path="url(#p8b95328a43)" d="M 57.6 46.63429 
L 414.72 46.63429 
" style="fill:none;stroke:#cccccc;stroke-linecap:round;stroke-width:0.8;"/>
     </g>
     <g id="text_17">
      <!-- 1.0 -->
      <g style="fill:#262626;" transform="translate(36.7 50.213196)scale(0.1 -0.1)">
       <use xlink:href="#ArialMT-49"/>
       <use x="55.615234" xlink:href="#ArialMT-46"/>
       <use x="83.398438" xlink:href="#ArialMT-48"/>
      </g>
     </g>
    </g>
    <g id="text_18">
     <!-- WFDR -->
     <defs>
      <path d="M 20.21875 0 
L 1.21875 71.578125 
L 10.9375 71.578125 
L 21.828125 24.65625 
Q 23.578125 17.28125 24.859375 10.015625 
Q 27.59375 21.484375 28.078125 23.25 
L 41.703125 71.578125 
L 53.125 71.578125 
L 63.375 35.359375 
Q 67.234375 21.875 68.953125 10.015625 
Q 70.3125 16.796875 72.515625 25.59375 
L 83.734375 71.578125 
L 93.265625 71.578125 
L 73.640625 0 
L 64.5 0 
L 49.421875 54.546875 
Q 47.515625 61.375 47.171875 62.9375 
Q 46.046875 58.015625 45.0625 54.546875 
L 29.890625 0 
z
" id="ArialMT-87"/>
      <path d="M 8.203125 0 
L 8.203125 71.578125 
L 56.5 71.578125 
L 56.5 63.140625 
L 17.671875 63.140625 
L 17.671875 40.96875 
L 51.265625 40.96875 
L 51.265625 32.515625 
L 17.671875 32.515625 
L 17.671875 0 
z
" id="ArialMT-70"/>
      <path d="M 7.71875 0 
L 7.71875 71.578125 
L 32.375 71.578125 
Q 40.71875 71.578125 45.125 70.5625 
Q 51.265625 69.140625 55.609375 65.4375 
Q 61.28125 60.640625 64.078125 53.1875 
Q 66.890625 45.75 66.890625 36.1875 
Q 66.890625 28.03125 64.984375 21.734375 
Q 63.09375 15.4375 60.109375 11.296875 
Q 57.125 7.171875 53.578125 4.796875 
Q 50.046875 2.4375 45.046875 1.21875 
Q 40.046875 0 33.546875 0 
z
M 17.1875 8.453125 
L 32.46875 8.453125 
Q 39.546875 8.453125 43.578125 9.765625 
Q 47.609375 11.078125 50 13.484375 
Q 53.375 16.84375 55.25 22.53125 
Q 57.125 28.21875 57.125 36.328125 
Q 57.125 47.5625 53.4375 53.59375 
Q 49.75 59.625 44.484375 61.671875 
Q 40.671875 63.140625 32.234375 63.140625 
L 17.1875 63.140625 
z
" id="ArialMT-68"/>
      <path d="M 7.859375 0 
L 7.859375 71.578125 
L 39.59375 71.578125 
Q 49.171875 71.578125 54.140625 69.640625 
Q 59.125 67.71875 62.109375 62.828125 
Q 65.09375 57.953125 65.09375 52.046875 
Q 65.09375 44.4375 60.15625 39.203125 
Q 55.21875 33.984375 44.921875 32.5625 
Q 48.6875 30.765625 50.640625 29 
Q 54.78125 25.203125 58.5 19.484375 
L 70.953125 0 
L 59.03125 0 
L 49.5625 14.890625 
Q 45.40625 21.34375 42.71875 24.75 
Q 40.046875 28.171875 37.921875 29.53125 
Q 35.796875 30.90625 33.59375 31.453125 
Q 31.984375 31.78125 28.328125 31.78125 
L 17.328125 31.78125 
L 17.328125 0 
z
M 17.328125 39.984375 
L 37.703125 39.984375 
Q 44.1875 39.984375 47.84375 41.328125 
Q 51.515625 42.671875 53.421875 45.625 
Q 55.328125 48.578125 55.328125 52.046875 
Q 55.328125 57.125 51.640625 60.390625 
Q 47.953125 63.671875 39.984375 63.671875 
L 17.328125 63.671875 
z
" id="ArialMT-82"/>
     </defs>
     <g style="fill:#262626;" transform="translate(30.7125 189.523313)rotate(-90)scale(0.1 -0.1)">
      <use xlink:href="#ArialMT-87"/>
      <use x="94.384766" xlink:href="#ArialMT-70"/>
      <use x="155.46875" xlink:href="#ArialMT-68"/>
      <use x="227.685547" xlink:href="#ArialMT-82"/>
     </g>
    </g>
   </g>
   <g id="line2d_17">
    <path clip-path="url(#p8b95328a43)" d="M 73.832727 194.806728 
L 82.157203 119.770686 
L 90.481678 144.149484 
L 98.806154 120.245597 
L 107.130629 118.061004 
L 115.455105 118.187647 
L 123.77958 106.608848 
L 132.104056 98.162205 
L 140.428531 92.225809 
L 148.753007 86.716834 
L 157.077483 81.691405 
L 165.401958 77.661852 
L 173.726434 74.982863 
L 182.050909 72.415208 
L 190.375385 79.941428 
L 198.69986 77.266092 
L 207.024336 75.352477 
L 215.348811 73.545951 
L 223.673287 71.929585 
L 231.997762 70.189908 
L 240.322238 68.887293 
L 248.646713 67.012317 
L 256.971189 65.878536 
L 265.295664 64.760085 
L 273.62014 63.73111 
L 281.944615 62.927413 
L 290.269091 61.90182 
L 298.593566 60.88164 
L 306.918042 60.259342 
L 315.242517 59.171958 
L 323.566993 58.399843 
L 331.891469 57.794714 
L 340.215944 57.341389 
L 348.54042 56.523627 
L 356.864895 56.023972 
L 365.189371 55.393771 
L 373.513846 54.951662 
L 381.838322 54.432839 
L 390.162797 54.038041 
L 398.487273 53.568 
" style="fill:none;stroke:#1f77b4;stroke-linecap:round;stroke-width:1.5;"/>
   </g>
   <g id="line2d_18">
    <path clip-path="url(#p8b95328a43)" d="M 73.832727 204.304961 
L 82.157203 161.562912 
L 90.481678 134.018035 
L 98.806154 125.944537 
L 107.130629 115.401498 
L 115.455105 110.58906 
L 123.77958 107.422982 
L 132.104056 102.673866 
L 140.428531 99.824396 
L 148.753007 97.734784 
L 157.077483 97.233969 
L 165.401958 95.866799 
L 173.726434 93.833203 
L 182.050909 92.632876 
L 190.375385 90.832735 
L 198.69986 89.851251 
L 207.024336 87.97954 
L 215.348811 86.526869 
L 223.673287 85.627037 
L 231.997762 84.437258 
L 240.322238 83.451251 
L 248.646713 82.641228 
L 256.971189 82.149423 
L 265.295664 81.144537 
L 273.62014 80.523986 
L 281.944615 80.243423 
L 290.269091 79.631856 
L 298.593566 79.131816 
L 306.918042 78.404242 
L 315.242517 78.041781 
L 323.566993 77.212473 
L 331.891469 76.553724 
L 340.215944 76.05003 
L 348.54042 75.631837 
L 356.864895 75.291816 
L 365.189371 74.759614 
L 373.513846 74.256179 
L 381.838322 73.879222 
L 390.162797 73.667723 
L 398.487273 73.229343 
" style="fill:none;stroke:#ff7f0e;stroke-linecap:round;stroke-width:1.5;"/>
   </g>
   <g id="line2d_19">
    <path clip-path="url(#p8b95328a43)" d="M 73.832727 130.218742 
L 82.157203 126.419449 
L 90.481678 120.720509 
L 98.806154 117.871039 
L 107.130629 120.720509 
L 115.455105 122.303548 
L 123.77958 122.348777 
L 132.104056 121.19542 
L 140.428531 121.775868 
L 148.753007 122.050261 
L 157.077483 122.274765 
L 165.401958 122.620155 
L 173.726434 123.204662 
L 182.050909 123.841357 
L 190.375385 122.746799 
L 198.69986 123.569979 
L 207.024336 123.290619 
L 215.348811 122.936763 
L 223.673287 123.619969 
L 231.997762 123.380014 
L 240.322238 123.796127 
L 248.646713 123.742674 
L 256.971189 123.941649 
L 265.295664 123.490827 
L 273.62014 123.076071 
L 281.944615 123.058535 
L 290.269091 122.690513 
L 298.593566 122.009555 
L 306.918042 121.703085 
L 315.242517 121.543689 
L 323.566993 122.068645 
L 331.891469 122.08588 
L 340.215944 122.2172 
L 348.54042 122.17318 
L 356.864895 121.860297 
L 365.189371 121.7231 
L 373.513846 121.644661 
L 381.838322 121.870295 
L 390.162797 121.889522 
L 398.487273 121.57535 
" style="fill:none;stroke:#2ca02c;stroke-linecap:round;stroke-width:1.5;"/>
   </g>
   <g id="line2d_20">
    <path clip-path="url(#p8b95328a43)" d="M 73.832727 177.709908 
L 82.157203 168.211675 
L 90.481678 163.145951 
L 98.806154 162.037823 
L 107.130629 161.752876 
L 115.455105 163.462558 
L 123.77958 163.326869 
L 132.104056 160.613088 
L 140.428531 163.779166 
L 148.753007 165.362205 
L 157.077483 162.512735 
L 165.401958 162.196127 
L 173.726434 160.174708 
L 182.050909 162.105668 
L 190.375385 162.259449 
L 198.69986 161.562912 
L 207.024336 161.50704 
L 215.348811 161.879519 
L 223.673287 162.612716 
L 231.997762 163.082629 
L 240.322238 162.150898 
L 248.646713 162.599083 
L 256.971189 162.347548 
L 265.295664 162.512735 
L 273.62014 162.436749 
L 281.944615 162.731925 
L 290.269091 163.075593 
L 298.593566 162.851958 
L 306.918042 162.84026 
L 315.242517 162.7027 
L 323.566993 163.248082 
L 331.891469 163.047011 
L 340.215944 163.318646 
L 348.54042 163.909534 
L 356.864895 164.466657 
L 365.189371 164.676221 
L 373.513846 164.36104 
L 381.838322 164.562354 
L 390.162797 164.704635 
L 398.487273 164.887293 
" style="fill:none;stroke:#d62728;stroke-linecap:round;stroke-width:1.5;"/>
   </g>
   <g id="line2d_21">
    <path clip-path="url(#p8b95328a43)" d="M 73.832727 170.111322 
L 82.157203 167.261852 
L 90.481678 166.945244 
L 98.806154 167.736763 
L 107.130629 168.591604 
L 115.455105 165.678813 
L 123.77958 167.126163 
L 132.104056 167.736763 
L 140.428531 166.312028 
L 148.753007 165.362205 
L 157.077483 154.223368 
L 165.401958 145.099307 
L 173.726434 137.086695 
L 182.050909 130.625809 
L 190.375385 124.519802 
L 198.69986 119.53323 
L 207.024336 114.686337 
L 215.348811 111.11674 
L 223.673287 107.323001 
L 231.997762 104.288565 
L 240.322238 101.452664 
L 248.646713 98.96092 
L 256.971189 96.603256 
L 265.295664 94.521216 
L 273.62014 92.453767 
L 281.944615 90.326163 
L 290.269091 88.496873 
L 298.593566 87.001781 
L 306.918042 85.609798 
L 315.242517 83.930686 
L 323.566993 82.666297 
L 331.891469 81.480933 
L 340.215944 80.482539 
L 348.54042 79.375258 
L 356.864895 78.385527 
L 365.189371 77.292476 
L 373.513846 76.463876 
L 381.838322 75.478924 
L 390.162797 74.885445 
L 398.487273 74.084184 
" style="fill:none;stroke:#9467bd;stroke-linecap:round;stroke-width:1.5;"/>
   </g>
   <g id="line2d_22">
    <path clip-path="url(#p8b95328a43)" d="M 73.832727 156.813795 
L 82.157203 166.312028 
L 90.481678 161.879519 
L 98.806154 168.686587 
L 107.130629 163.272594 
L 115.455105 166.945244 
L 123.77958 167.126163 
L 132.104056 167.736763 
L 140.428531 168.211675 
L 148.753007 168.781569 
L 157.077483 157.677271 
L 165.401958 148.265385 
L 173.726434 141.032115 
L 182.050909 134.560792 
L 190.375385 128.572382 
L 198.69986 123.095067 
L 207.024336 118.373887 
L 215.348811 114.599425 
L 223.673287 110.82235 
L 231.997762 107.612947 
L 240.322238 105.251958 
L 248.646713 103.019256 
L 256.971189 100.732922 
L 265.295664 98.557965 
L 273.62014 96.708975 
L 281.944615 94.929152 
L 290.269091 93.49224 
L 298.593566 91.615208 
L 306.918042 89.867627 
L 315.242517 88.489837 
L 323.566993 87.139658 
L 331.891469 86.348777 
L 340.215944 84.915048 
L 348.54042 83.677399 
L 356.864895 82.890403 
L 365.189371 81.672217 
L 373.513846 80.930613 
L 381.838322 80.428004 
L 390.162797 79.46408 
L 398.487273 78.738318 
" style="fill:none;stroke:#8c564b;stroke-linecap:round;stroke-width:1.5;"/>
   </g>
   <g id="line2d_23">
    <path clip-path="url(#p8b95328a43)" d="M 73.832727 295.488 
L 82.157203 238.498601 
L 90.481678 204.938177 
L 98.806154 180.559378 
L 107.130629 161.752876 
L 115.455105 149.531816 
L 123.77958 142.159378 
L 132.104056 135.44277 
L 140.428531 130.218742 
L 148.753007 125.469625 
L 157.077483 120.375119 
L 165.401958 117.237823 
L 173.726434 113.998682 
L 182.050909 111.222276 
L 190.375385 109.195986 
L 198.69986 107.422982 
L 207.024336 105.746824 
L 215.348811 104.784584 
L 223.673287 103.72367 
L 231.997762 103.053795 
L 240.322238 112.941004 
L 248.646713 115.539654 
L 256.971189 116.590842 
L 265.295664 115.89224 
L 273.62014 114.869597 
L 281.944615 114.217872 
L 290.269091 113.19228 
L 298.593566 112.375633 
L 306.918042 111.02576 
L 315.242517 110.145809 
L 323.566993 108.771119 
L 331.891469 108.254078 
L 340.215944 107.595677 
L 348.54042 106.920135 
L 356.864895 106.066092 
L 365.189371 105.15396 
L 373.513846 104.188449 
L 381.838322 103.923633 
L 390.162797 103.087891 
L 398.487273 102.388919 
" style="fill:none;stroke:#e377c2;stroke-linecap:round;stroke-width:1.5;"/>
   </g>
   <g id="line2d_24">
    <path clip-path="url(#p8b95328a43)" d="M 73.832727 149.215208 
L 82.157203 159.663265 
L 90.481678 163.779166 
L 98.806154 167.261852 
L 107.130629 160.993018 
L 115.455105 159.346657 
L 123.77958 156.271039 
L 132.104056 155.38906 
L 140.428531 157.447011 
L 148.753007 157.953583 
L 157.077483 157.849966 
L 165.401958 157.288707 
L 173.726434 157.106048 
L 182.050909 156.406728 
L 190.375385 157.067081 
L 198.69986 157.526163 
L 207.024336 157.707746 
L 215.348811 158.50237 
L 223.673287 158.61346 
L 231.997762 159.4733 
L 240.322238 158.622982 
L 248.646713 158.972484 
L 256.971189 158.052695 
L 265.295664 158.871746 
L 273.62014 157.725625 
L 281.944615 159.078758 
L 290.269091 160.261302 
L 298.593566 159.866799 
L 306.918042 159.565007 
L 315.242517 159.093371 
L 323.566993 159.326231 
L 331.891469 159.485173 
L 340.215944 159.289092 
L 348.54042 158.992801 
L 356.864895 159.256198 
L 365.189371 158.76621 
L 373.513846 157.789289 
L 381.838322 156.963767 
L 390.162797 156.131871 
L 398.487273 156.243901 
" style="fill:none;stroke:#7f7f7f;stroke-linecap:round;stroke-width:1.5;"/>
   </g>
   <g id="line2d_25">
    <path clip-path="url(#p8b95328a43)" d="M 73.832727 116.921216 
L 82.157203 102.673866 
L 90.481678 99.19118 
L 98.806154 93.175633 
L 107.130629 89.566304 
L 115.455105 86.210261 
L 123.77958 82.18482 
L 132.104056 79.64065 
L 140.428531 78.295067 
L 148.753007 78.168424 
L 157.077483 76.855941 
L 165.401958 75.603901 
L 173.726434 75.421243 
L 182.050909 75.264678 
L 190.375385 74.369131 
L 198.69986 74.891534 
L 207.024336 74.346782 
L 215.348811 73.440415 
L 223.673287 73.529287 
L 231.997762 73.039378 
L 240.322238 72.596127 
L 248.646713 72.62491 
L 256.971189 71.990443 
L 265.295664 70.933936 
L 273.62014 70.265894 
L 281.944615 69.868429 
L 290.269091 69.359692 
L 298.593566 69.29436 
L 306.918042 69.430049 
L 315.242517 69.113442 
L 323.566993 69.001097 
L 331.891469 68.658318 
L 340.215944 68.796834 
L 348.54042 68.31261 
L 356.864895 67.69323 
L 365.189371 67.688707 
L 373.513846 67.479061 
L 381.838322 67.230459 
L 390.162797 66.751061 
L 398.487273 66.438106 
" style="fill:none;stroke:#bcbd22;stroke-linecap:round;stroke-width:1.5;"/>
   </g>
   <g id="patch_3">
    <path d="M 57.6 307.584 
L 57.6 41.472 
" style="fill:none;stroke:#cccccc;stroke-linecap:square;stroke-linejoin:miter;stroke-width:0.8;"/>
   </g>
   <g id="patch_4">
    <path d="M 414.72 307.584 
L 414.72 41.472 
" style="fill:none;stroke:#cccccc;stroke-linecap:square;stroke-linejoin:miter;stroke-width:0.8;"/>
   </g>
   <g id="patch_5">
    <path d="M 57.6 307.584 
L 414.72 307.584 
" style="fill:none;stroke:#cccccc;stroke-linecap:square;stroke-linejoin:miter;stroke-width:0.8;"/>
   </g>
   <g id="patch_6">
    <path d="M 57.6 41.472 
L 414.72 41.472 
" style="fill:none;stroke:#cccccc;stroke-linecap:square;stroke-linejoin:miter;stroke-width:0.8;"/>
   </g>
   <g id="text_19">
    <!-- WFDR for a1false-a2false-b1true-c1false, reward function 1 -->
    <defs>
     <path d="M 8.6875 0 
L 8.6875 45.015625 
L 0.921875 45.015625 
L 0.921875 51.859375 
L 8.6875 51.859375 
L 8.6875 57.375 
Q 8.6875 62.59375 9.625 65.140625 
Q 10.890625 68.5625 14.078125 70.671875 
Q 17.28125 72.796875 23.046875 72.796875 
Q 26.765625 72.796875 31.25 71.921875 
L 29.9375 64.265625 
Q 27.203125 64.75 24.75 64.75 
Q 20.75 64.75 19.09375 63.03125 
Q 17.4375 61.328125 17.4375 56.640625 
L 17.4375 51.859375 
L 27.546875 51.859375 
L 27.546875 45.015625 
L 17.4375 45.015625 
L 17.4375 0 
z
" id="ArialMT-102"/>
     <path d="M 3.328125 25.921875 
Q 3.328125 40.328125 11.328125 47.265625 
Q 18.015625 53.03125 27.640625 53.03125 
Q 38.328125 53.03125 45.109375 46.015625 
Q 51.90625 39.015625 51.90625 26.65625 
Q 51.90625 16.65625 48.90625 10.90625 
Q 45.90625 5.171875 40.15625 2 
Q 34.421875 -1.171875 27.640625 -1.171875 
Q 16.75 -1.171875 10.03125 5.8125 
Q 3.328125 12.796875 3.328125 25.921875 
z
M 12.359375 25.921875 
Q 12.359375 15.96875 16.703125 11.015625 
Q 21.046875 6.0625 27.640625 6.0625 
Q 34.1875 6.0625 38.53125 11.03125 
Q 42.875 16.015625 42.875 26.21875 
Q 42.875 35.84375 38.5 40.796875 
Q 34.125 45.75 27.640625 45.75 
Q 21.046875 45.75 16.703125 40.8125 
Q 12.359375 35.890625 12.359375 25.921875 
z
" id="ArialMT-111"/>
     <path d="M 40.4375 6.390625 
Q 35.546875 2.25 31.03125 0.53125 
Q 26.515625 -1.171875 21.34375 -1.171875 
Q 12.796875 -1.171875 8.203125 3 
Q 3.609375 7.171875 3.609375 13.671875 
Q 3.609375 17.484375 5.34375 20.625 
Q 7.078125 23.78125 9.890625 25.6875 
Q 12.703125 27.59375 16.21875 28.5625 
Q 18.796875 29.25 24.03125 29.890625 
Q 34.671875 31.15625 39.703125 32.90625 
Q 39.75 34.71875 39.75 35.203125 
Q 39.75 40.578125 37.25 42.78125 
Q 33.890625 45.75 27.25 45.75 
Q 21.046875 45.75 18.09375 43.578125 
Q 15.140625 41.40625 13.71875 35.890625 
L 5.125 37.0625 
Q 6.296875 42.578125 8.984375 45.96875 
Q 11.671875 49.359375 16.75 51.1875 
Q 21.828125 53.03125 28.515625 53.03125 
Q 35.15625 53.03125 39.296875 51.46875 
Q 43.453125 49.90625 45.40625 47.53125 
Q 47.359375 45.171875 48.140625 41.546875 
Q 48.578125 39.3125 48.578125 33.453125 
L 48.578125 21.734375 
Q 48.578125 9.46875 49.140625 6.21875 
Q 49.703125 2.984375 51.375 0 
L 42.1875 0 
Q 40.828125 2.734375 40.4375 6.390625 
z
M 39.703125 26.03125 
Q 34.90625 24.078125 25.34375 22.703125 
Q 19.921875 21.921875 17.671875 20.9375 
Q 15.4375 19.96875 14.203125 18.09375 
Q 12.984375 16.21875 12.984375 13.921875 
Q 12.984375 10.40625 15.640625 8.0625 
Q 18.3125 5.71875 23.4375 5.71875 
Q 28.515625 5.71875 32.46875 7.9375 
Q 36.421875 10.15625 38.28125 14.015625 
Q 39.703125 17 39.703125 22.796875 
z
" id="ArialMT-97"/>
     <path d="M 6.390625 0 
L 6.390625 71.578125 
L 15.1875 71.578125 
L 15.1875 0 
z
" id="ArialMT-108"/>
     <path d="M 3.171875 21.484375 
L 3.171875 30.328125 
L 30.171875 30.328125 
L 30.171875 21.484375 
z
" id="ArialMT-45"/>
     <path d="M 14.703125 0 
L 6.546875 0 
L 6.546875 71.578125 
L 15.328125 71.578125 
L 15.328125 46.046875 
Q 20.90625 53.03125 29.546875 53.03125 
Q 34.328125 53.03125 38.59375 51.09375 
Q 42.875 49.171875 45.625 45.671875 
Q 48.390625 42.1875 49.953125 37.25 
Q 51.515625 32.328125 51.515625 26.703125 
Q 51.515625 13.375 44.921875 6.09375 
Q 38.328125 -1.171875 29.109375 -1.171875 
Q 19.921875 -1.171875 14.703125 6.5 
z
M 14.59375 26.3125 
Q 14.59375 17 17.140625 12.84375 
Q 21.296875 6.0625 28.375 6.0625 
Q 34.125 6.0625 38.328125 11.0625 
Q 42.53125 16.0625 42.53125 25.984375 
Q 42.53125 36.140625 38.5 40.96875 
Q 34.46875 45.796875 28.765625 45.796875 
Q 23 45.796875 18.796875 40.796875 
Q 14.59375 35.796875 14.59375 26.3125 
z
" id="ArialMT-98"/>
     <path d="M 40.4375 19 
L 49.078125 17.875 
Q 47.65625 8.9375 41.8125 3.875 
Q 35.984375 -1.171875 27.484375 -1.171875 
Q 16.84375 -1.171875 10.375 5.78125 
Q 3.90625 12.75 3.90625 25.734375 
Q 3.90625 34.125 6.6875 40.421875 
Q 9.46875 46.734375 15.15625 49.875 
Q 20.84375 53.03125 27.546875 53.03125 
Q 35.984375 53.03125 41.359375 48.75 
Q 46.734375 44.484375 48.25 36.625 
L 39.703125 35.296875 
Q 38.484375 40.53125 35.375 43.15625 
Q 32.28125 45.796875 27.875 45.796875 
Q 21.234375 45.796875 17.078125 41.03125 
Q 12.9375 36.28125 12.9375 25.984375 
Q 12.9375 15.53125 16.9375 10.796875 
Q 20.953125 6.0625 27.390625 6.0625 
Q 32.5625 6.0625 36.03125 9.234375 
Q 39.5 12.40625 40.4375 19 
z
" id="ArialMT-99"/>
     <path d="M 8.890625 0 
L 8.890625 10.015625 
L 18.890625 10.015625 
L 18.890625 0 
Q 18.890625 -5.515625 16.9375 -8.90625 
Q 14.984375 -12.3125 10.75 -14.15625 
L 8.296875 -10.40625 
Q 11.078125 -9.1875 12.390625 -6.8125 
Q 13.71875 -4.4375 13.875 0 
z
" id="ArialMT-44"/>
     <path d="M 16.15625 0 
L 0.296875 51.859375 
L 9.375 51.859375 
L 17.625 21.921875 
L 20.703125 10.796875 
Q 20.90625 11.625 23.390625 21.484375 
L 31.640625 51.859375 
L 40.671875 51.859375 
L 48.4375 21.78125 
L 51.03125 11.859375 
L 54 21.875 
L 62.890625 51.859375 
L 71.4375 51.859375 
L 55.21875 0 
L 46.09375 0 
L 37.84375 31.0625 
L 35.84375 39.890625 
L 25.34375 0 
z
" id="ArialMT-119"/>
     <path d="M 40.234375 0 
L 40.234375 6.546875 
Q 35.296875 -1.171875 25.734375 -1.171875 
Q 19.53125 -1.171875 14.328125 2.25 
Q 9.125 5.671875 6.265625 11.796875 
Q 3.421875 17.921875 3.421875 25.875 
Q 3.421875 33.640625 6 39.96875 
Q 8.59375 46.296875 13.765625 49.65625 
Q 18.953125 53.03125 25.34375 53.03125 
Q 30.03125 53.03125 33.6875 51.046875 
Q 37.359375 49.078125 39.65625 45.90625 
L 39.65625 71.578125 
L 48.390625 71.578125 
L 48.390625 0 
z
M 12.453125 25.875 
Q 12.453125 15.921875 16.640625 10.984375 
Q 20.84375 6.0625 26.5625 6.0625 
Q 32.328125 6.0625 36.34375 10.765625 
Q 40.375 15.484375 40.375 25.140625 
Q 40.375 35.796875 36.265625 40.765625 
Q 32.171875 45.75 26.171875 45.75 
Q 20.3125 45.75 16.375 40.96875 
Q 12.453125 36.1875 12.453125 25.875 
z
" id="ArialMT-100"/>
    </defs>
    <g style="fill:#262626;" transform="translate(77.768438 35.472)scale(0.12 -0.12)">
     <use xlink:href="#ArialMT-87"/>
     <use x="94.384766" xlink:href="#ArialMT-70"/>
     <use x="155.46875" xlink:href="#ArialMT-68"/>
     <use x="227.685547" xlink:href="#ArialMT-82"/>
     <use x="299.902344" xlink:href="#ArialMT-32"/>
     <use x="327.685547" xlink:href="#ArialMT-102"/>
     <use x="355.46875" xlink:href="#ArialMT-111"/>
     <use x="411.083984" xlink:href="#ArialMT-114"/>
     <use x="444.384766" xlink:href="#ArialMT-32"/>
     <use x="472.167969" xlink:href="#ArialMT-97"/>
     <use x="527.783203" xlink:href="#ArialMT-49"/>
     <use x="583.398438" xlink:href="#ArialMT-102"/>
     <use x="611.181641" xlink:href="#ArialMT-97"/>
     <use x="666.796875" xlink:href="#ArialMT-108"/>
     <use x="689.013672" xlink:href="#ArialMT-115"/>
     <use x="739.013672" xlink:href="#ArialMT-101"/>
     <use x="794.628906" xlink:href="#ArialMT-45"/>
     <use x="827.929688" xlink:href="#ArialMT-97"/>
     <use x="883.544922" xlink:href="#ArialMT-50"/>
     <use x="939.160156" xlink:href="#ArialMT-102"/>
     <use x="966.943359" xlink:href="#ArialMT-97"/>
     <use x="1022.558594" xlink:href="#ArialMT-108"/>
     <use x="1044.775391" xlink:href="#ArialMT-115"/>
     <use x="1094.775391" xlink:href="#ArialMT-101"/>
     <use x="1150.390625" xlink:href="#ArialMT-45"/>
     <use x="1183.691406" xlink:href="#ArialMT-98"/>
     <use x="1239.306641" xlink:href="#ArialMT-49"/>
     <use x="1294.921875" xlink:href="#ArialMT-116"/>
     <use x="1322.705078" xlink:href="#ArialMT-114"/>
     <use x="1356.005859" xlink:href="#ArialMT-117"/>
     <use x="1411.621094" xlink:href="#ArialMT-101"/>
     <use x="1467.236328" xlink:href="#ArialMT-45"/>
     <use x="1500.537109" xlink:href="#ArialMT-99"/>
     <use x="1550.537109" xlink:href="#ArialMT-49"/>
     <use x="1606.152344" xlink:href="#ArialMT-102"/>
     <use x="1633.935547" xlink:href="#ArialMT-97"/>
     <use x="1689.550781" xlink:href="#ArialMT-108"/>
     <use x="1711.767578" xlink:href="#ArialMT-115"/>
     <use x="1761.767578" xlink:href="#ArialMT-101"/>
     <use x="1817.382812" xlink:href="#ArialMT-44"/>
     <use x="1845.166016" xlink:href="#ArialMT-32"/>
     <use x="1872.949219" xlink:href="#ArialMT-114"/>
     <use x="1906.25" xlink:href="#ArialMT-101"/>
     <use x="1961.865234" xlink:href="#ArialMT-119"/>
     <use x="2034.082031" xlink:href="#ArialMT-97"/>
     <use x="2089.697266" xlink:href="#ArialMT-114"/>
     <use x="2122.998047" xlink:href="#ArialMT-100"/>
     <use x="2178.613281" xlink:href="#ArialMT-32"/>
     <use x="2206.396484" xlink:href="#ArialMT-102"/>
     <use x="2234.179688" xlink:href="#ArialMT-117"/>
     <use x="2289.794922" xlink:href="#ArialMT-110"/>
     <use x="2345.410156" xlink:href="#ArialMT-99"/>
     <use x="2395.410156" xlink:href="#ArialMT-116"/>
     <use x="2423.193359" xlink:href="#ArialMT-105"/>
     <use x="2445.410156" xlink:href="#ArialMT-111"/>
     <use x="2501.025391" xlink:href="#ArialMT-110"/>
     <use x="2556.640625" xlink:href="#ArialMT-32"/>
     <use x="2584.423828" xlink:href="#ArialMT-49"/>
    </g>
   </g>
   <g id="legend_1">
    <g id="patch_7">
     <path d="M 326.802813 302.584 
L 407.72 302.584 
Q 409.72 302.584 409.72 300.584 
L 409.72 173.80275 
Q 409.72 171.80275 407.72 171.80275 
L 326.802813 171.80275 
Q 324.802813 171.80275 324.802813 173.80275 
L 324.802813 300.584 
Q 324.802813 302.584 326.802813 302.584 
z
" style="fill:#ffffff;opacity:0.8;stroke:#cccccc;stroke-linejoin:miter;"/>
    </g>
    <g id="line2d_26">
     <path d="M 328.802813 179.460562 
L 348.802813 179.460562 
" style="fill:none;stroke:#1f77b4;stroke-linecap:round;stroke-width:1.5;"/>
    </g>
    <g id="line2d_27"/>
    <g id="text_20">
     <!-- bandit-opt -->
     <g style="fill:#262626;" transform="translate(356.802813 182.960562)scale(0.1 -0.1)">
      <use xlink:href="#ArialMT-98"/>
      <use x="55.615234" xlink:href="#ArialMT-97"/>
      <use x="111.230469" xlink:href="#ArialMT-110"/>
      <use x="166.845703" xlink:href="#ArialMT-100"/>
      <use x="222.460938" xlink:href="#ArialMT-105"/>
      <use x="244.677734" xlink:href="#ArialMT-116"/>
      <use x="272.460938" xlink:href="#ArialMT-45"/>
      <use x="305.761719" xlink:href="#ArialMT-111"/>
      <use x="361.376953" xlink:href="#ArialMT-112"/>
      <use x="416.992188" xlink:href="#ArialMT-116"/>
     </g>
    </g>
    <g id="line2d_28">
     <path d="M 328.802813 193.605875 
L 348.802813 193.605875 
" style="fill:none;stroke:#ff7f0e;stroke-linecap:round;stroke-width:1.5;"/>
    </g>
    <g id="line2d_29"/>
    <g id="text_21">
     <!-- bandit-eps -->
     <g style="fill:#262626;" transform="translate(356.802813 197.105875)scale(0.1 -0.1)">
      <use xlink:href="#ArialMT-98"/>
      <use x="55.615234" xlink:href="#ArialMT-97"/>
      <use x="111.230469" xlink:href="#ArialMT-110"/>
      <use x="166.845703" xlink:href="#ArialMT-100"/>
      <use x="222.460938" xlink:href="#ArialMT-105"/>
      <use x="244.677734" xlink:href="#ArialMT-116"/>
      <use x="272.460938" xlink:href="#ArialMT-45"/>
      <use x="305.761719" xlink:href="#ArialMT-101"/>
      <use x="361.376953" xlink:href="#ArialMT-112"/>
      <use x="416.992188" xlink:href="#ArialMT-115"/>
     </g>
    </g>
    <g id="line2d_30">
     <path d="M 328.802813 207.751187 
L 348.802813 207.751187 
" style="fill:none;stroke:#2ca02c;stroke-linecap:round;stroke-width:1.5;"/>
    </g>
    <g id="line2d_31"/>
    <g id="text_22">
     <!-- qlearning -->
     <defs>
      <path d="M 39.65625 -19.875 
L 39.65625 5.515625 
Q 37.59375 2.640625 33.90625 0.734375 
Q 30.21875 -1.171875 26.078125 -1.171875 
Q 16.84375 -1.171875 10.171875 6.203125 
Q 3.515625 13.578125 3.515625 26.421875 
Q 3.515625 34.234375 6.21875 40.421875 
Q 8.9375 46.625 14.078125 49.828125 
Q 19.234375 53.03125 25.390625 53.03125 
Q 35.015625 53.03125 40.53125 44.921875 
L 40.53125 51.859375 
L 48.4375 51.859375 
L 48.4375 -19.875 
z
M 12.546875 26.078125 
Q 12.546875 16.0625 16.75 11.0625 
Q 20.953125 6.0625 26.8125 6.0625 
Q 32.421875 6.0625 36.46875 10.8125 
Q 40.53125 15.578125 40.53125 25.296875 
Q 40.53125 35.640625 36.25 40.859375 
Q 31.984375 46.09375 26.21875 46.09375 
Q 20.515625 46.09375 16.53125 41.234375 
Q 12.546875 36.375 12.546875 26.078125 
z
" id="ArialMT-113"/>
      <path d="M 4.984375 -4.296875 
L 13.53125 -5.5625 
Q 14.0625 -9.515625 16.5 -11.328125 
Q 19.78125 -13.765625 25.4375 -13.765625 
Q 31.546875 -13.765625 34.859375 -11.328125 
Q 38.1875 -8.890625 39.359375 -4.5 
Q 40.046875 -1.8125 39.984375 6.78125 
Q 34.234375 0 25.640625 0 
Q 14.9375 0 9.078125 7.71875 
Q 3.21875 15.4375 3.21875 26.21875 
Q 3.21875 33.640625 5.90625 39.90625 
Q 8.59375 46.1875 13.6875 49.609375 
Q 18.796875 53.03125 25.6875 53.03125 
Q 34.859375 53.03125 40.828125 45.609375 
L 40.828125 51.859375 
L 48.921875 51.859375 
L 48.921875 7.03125 
Q 48.921875 -5.078125 46.453125 -10.125 
Q 44 -15.1875 38.640625 -18.109375 
Q 33.296875 -21.046875 25.484375 -21.046875 
Q 16.21875 -21.046875 10.5 -16.875 
Q 4.78125 -12.703125 4.984375 -4.296875 
z
M 12.25 26.859375 
Q 12.25 16.65625 16.296875 11.96875 
Q 20.359375 7.28125 26.46875 7.28125 
Q 32.515625 7.28125 36.609375 11.9375 
Q 40.71875 16.609375 40.71875 26.5625 
Q 40.71875 36.078125 36.5 40.90625 
Q 32.28125 45.75 26.3125 45.75 
Q 20.453125 45.75 16.34375 40.984375 
Q 12.25 36.234375 12.25 26.859375 
z
" id="ArialMT-103"/>
     </defs>
     <g style="fill:#262626;" transform="translate(356.802813 211.251187)scale(0.1 -0.1)">
      <use xlink:href="#ArialMT-113"/>
      <use x="55.615234" xlink:href="#ArialMT-108"/>
      <use x="77.832031" xlink:href="#ArialMT-101"/>
      <use x="133.447266" xlink:href="#ArialMT-97"/>
      <use x="189.0625" xlink:href="#ArialMT-114"/>
      <use x="222.363281" xlink:href="#ArialMT-110"/>
      <use x="277.978516" xlink:href="#ArialMT-105"/>
      <use x="300.195312" xlink:href="#ArialMT-110"/>
      <use x="355.810547" xlink:href="#ArialMT-103"/>
     </g>
    </g>
    <g id="line2d_32">
     <path d="M 328.802813 222.013687 
L 348.802813 222.013687 
" style="fill:none;stroke:#d62728;stroke-linecap:round;stroke-width:1.5;"/>
    </g>
    <g id="line2d_33"/>
    <g id="text_23">
     <!-- random -->
     <g style="fill:#262626;" transform="translate(356.802813 225.513687)scale(0.1 -0.1)">
      <use xlink:href="#ArialMT-114"/>
      <use x="33.300781" xlink:href="#ArialMT-97"/>
      <use x="88.916016" xlink:href="#ArialMT-110"/>
      <use x="144.53125" xlink:href="#ArialMT-100"/>
      <use x="200.146484" xlink:href="#ArialMT-111"/>
      <use x="255.761719" xlink:href="#ArialMT-109"/>
     </g>
    </g>
    <g id="line2d_34">
     <path d="M 328.802813 236.159 
L 348.802813 236.159 
" style="fill:none;stroke:#9467bd;stroke-linecap:round;stroke-width:1.5;"/>
    </g>
    <g id="line2d_35"/>
    <g id="text_24">
     <!-- bayes-low -->
     <defs>
      <path d="M 6.203125 -19.96875 
L 5.21875 -11.71875 
Q 8.109375 -12.5 10.25 -12.5 
Q 13.1875 -12.5 14.9375 -11.515625 
Q 16.703125 -10.546875 17.828125 -8.796875 
Q 18.65625 -7.46875 20.515625 -2.25 
Q 20.75 -1.515625 21.296875 -0.09375 
L 1.609375 51.859375 
L 11.078125 51.859375 
L 21.875 21.828125 
Q 23.96875 16.109375 25.640625 9.8125 
Q 27.15625 15.875 29.25 21.625 
L 40.328125 51.859375 
L 49.125 51.859375 
L 29.390625 -0.875 
Q 26.21875 -9.421875 24.46875 -12.640625 
Q 22.125 -17 19.09375 -19.015625 
Q 16.0625 -21.046875 11.859375 -21.046875 
Q 9.328125 -21.046875 6.203125 -19.96875 
z
" id="ArialMT-121"/>
     </defs>
     <g style="fill:#262626;" transform="translate(356.802813 239.659)scale(0.1 -0.1)">
      <use xlink:href="#ArialMT-98"/>
      <use x="55.615234" xlink:href="#ArialMT-97"/>
      <use x="111.230469" xlink:href="#ArialMT-121"/>
      <use x="161.230469" xlink:href="#ArialMT-101"/>
      <use x="216.845703" xlink:href="#ArialMT-115"/>
      <use x="266.845703" xlink:href="#ArialMT-45"/>
      <use x="300.146484" xlink:href="#ArialMT-108"/>
      <use x="322.363281" xlink:href="#ArialMT-111"/>
      <use x="377.978516" xlink:href="#ArialMT-119"/>
     </g>
    </g>
    <g id="line2d_36">
     <path d="M 328.802813 250.4215 
L 348.802813 250.4215 
" style="fill:none;stroke:#8c564b;stroke-linecap:round;stroke-width:1.5;"/>
    </g>
    <g id="line2d_37"/>
    <g id="text_25">
     <!-- bayes-high -->
     <defs>
      <path d="M 6.59375 0 
L 6.59375 71.578125 
L 15.375 71.578125 
L 15.375 45.90625 
Q 21.53125 53.03125 30.90625 53.03125 
Q 36.671875 53.03125 40.921875 50.75 
Q 45.171875 48.484375 47 44.484375 
Q 48.828125 40.484375 48.828125 32.859375 
L 48.828125 0 
L 40.046875 0 
L 40.046875 32.859375 
Q 40.046875 39.453125 37.1875 42.453125 
Q 34.328125 45.453125 29.109375 45.453125 
Q 25.203125 45.453125 21.75 43.421875 
Q 18.3125 41.40625 16.84375 37.9375 
Q 15.375 34.46875 15.375 28.375 
L 15.375 0 
z
" id="ArialMT-104"/>
     </defs>
     <g style="fill:#262626;" transform="translate(356.802813 253.9215)scale(0.1 -0.1)">
      <use xlink:href="#ArialMT-98"/>
      <use x="55.615234" xlink:href="#ArialMT-97"/>
      <use x="111.230469" xlink:href="#ArialMT-121"/>
      <use x="161.230469" xlink:href="#ArialMT-101"/>
      <use x="216.845703" xlink:href="#ArialMT-115"/>
      <use x="266.845703" xlink:href="#ArialMT-45"/>
      <use x="300.146484" xlink:href="#ArialMT-104"/>
      <use x="355.761719" xlink:href="#ArialMT-105"/>
      <use x="377.978516" xlink:href="#ArialMT-103"/>
      <use x="433.59375" xlink:href="#ArialMT-104"/>
     </g>
    </g>
    <g id="line2d_38">
     <path d="M 328.802813 264.805875 
L 348.802813 264.805875 
" style="fill:none;stroke:#e377c2;stroke-linecap:round;stroke-width:1.5;"/>
    </g>
    <g id="line2d_39"/>
    <g id="text_26">
     <!-- mlfq -->
     <g style="fill:#262626;" transform="translate(356.802813 268.305875)scale(0.1 -0.1)">
      <use xlink:href="#ArialMT-109"/>
      <use x="83.300781" xlink:href="#ArialMT-108"/>
      <use x="105.517578" xlink:href="#ArialMT-102"/>
      <use x="133.300781" xlink:href="#ArialMT-113"/>
     </g>
    </g>
    <g id="line2d_40">
     <path d="M 328.802813 278.951188 
L 348.802813 278.951188 
" style="fill:none;stroke:#7f7f7f;stroke-linecap:round;stroke-width:1.5;"/>
    </g>
    <g id="line2d_41"/>
    <g id="text_27">
     <!-- tableau -->
     <g style="fill:#262626;" transform="translate(356.802813 282.451188)scale(0.1 -0.1)">
      <use xlink:href="#ArialMT-116"/>
      <use x="27.783203" xlink:href="#ArialMT-97"/>
      <use x="83.398438" xlink:href="#ArialMT-98"/>
      <use x="139.013672" xlink:href="#ArialMT-108"/>
      <use x="161.230469" xlink:href="#ArialMT-101"/>
      <use x="216.845703" xlink:href="#ArialMT-97"/>
      <use x="272.460938" xlink:href="#ArialMT-117"/>
     </g>
    </g>
    <g id="line2d_42">
     <path d="M 328.802813 293.0965 
L 348.802813 293.0965 
" style="fill:none;stroke:#bcbd22;stroke-linecap:round;stroke-width:1.5;"/>
    </g>
    <g id="line2d_43"/>
    <g id="text_28">
     <!-- ann -->
     <g style="fill:#262626;" transform="translate(356.802813 296.5965)scale(0.1 -0.1)">
      <use xlink:href="#ArialMT-97"/>
      <use x="55.615234" xlink:href="#ArialMT-110"/>
      <use x="111.230469" xlink:href="#ArialMT-110"/>
     </g>
    </g>
   </g>
  </g>
 </g>
 <defs>
  <clipPath id="p8b95328a43">
   <rect height="266.112" width="357.12" x="57.6" y="41.472"/>
  </clipPath>
 </defs>
</svg>
