<?xml version="1.0" encoding="utf-8" standalone="no"?>
<!DOCTYPE svg PUBLIC "-//W3C//DTD SVG 1.1//EN"
  "http://www.w3.org/Graphics/SVG/1.1/DTD/svg11.dtd">
<!-- Created with matplotlib (https://matplotlib.org/) -->
<svg height="345.6pt" version="1.1" viewBox="0 0 460.8 345.6" width="460.8pt" xmlns="http://www.w3.org/2000/svg" xmlns:xlink="http://www.w3.org/1999/xlink">
 <defs>
  <style type="text/css">
*{stroke-linecap:butt;stroke-linejoin:round;}
  </style>
 </defs>
 <g id="figure_1">
  <g id="patch_1">
   <path d="M 0 345.6 
L 460.8 345.6 
L 460.8 0 
L 0 0 
z
" style="fill:#ffffff;"/>
  </g>
  <g id="axes_1">
   <g id="patch_2">
    <path d="M 57.6 307.584 
L 414.72 307.584 
L 414.72 41.472 
L 57.6 41.472 
z
" style="fill:#ffffff;"/>
   </g>
   <g id="matplotlib.axis_1">
    <g id="xtick_1">
     <g id="line2d_1">
      <path clip-path="url(#p041088bd17)" d="M 65.508252 307.584 
L 65.508252 41.472 
" style="fill:none;stroke:#cccccc;stroke-linecap:round;stroke-width:0.8;"/>
     </g>
     <g id="text_1">
      <!-- 0 -->
      <defs>
       <path d="M 4.15625 35.296875 
Q 4.15625 48 6.765625 55.734375 
Q 9.375 63.484375 14.515625 67.671875 
Q 19.671875 71.875 27.484375 71.875 
Q 33.25 71.875 37.59375 69.546875 
Q 41.9375 67.234375 44.765625 62.859375 
Q 47.609375 58.5 49.21875 52.21875 
Q 50.828125 45.953125 50.828125 35.296875 
Q 50.828125 22.703125 48.234375 14.96875 
Q 45.65625 7.234375 40.5 3 
Q 35.359375 -1.21875 27.484375 -1.21875 
Q 17.140625 -1.21875 11.234375 6.203125 
Q 4.15625 15.140625 4.15625 35.296875 
z
M 13.1875 35.296875 
Q 13.1875 17.671875 17.3125 11.828125 
Q 21.4375 6 27.484375 6 
Q 33.546875 6 37.671875 11.859375 
Q 41.796875 17.71875 41.796875 35.296875 
Q 41.796875 52.984375 37.671875 58.78125 
Q 33.546875 64.59375 27.390625 64.59375 
Q 21.34375 64.59375 17.71875 59.46875 
Q 13.1875 52.9375 13.1875 35.296875 
z
" id="ArialMT-48"/>
      </defs>
      <g style="fill:#262626;" transform="translate(62.727783 321.741812)scale(0.1 -0.1)">
       <use xlink:href="#ArialMT-48"/>
      </g>
     </g>
    </g>
    <g id="xtick_2">
     <g id="line2d_2">
      <path clip-path="url(#p041088bd17)" d="M 107.130629 307.584 
L 107.130629 41.472 
" style="fill:none;stroke:#cccccc;stroke-linecap:round;stroke-width:0.8;"/>
     </g>
     <g id="text_2">
      <!-- 50 -->
      <defs>
       <path d="M 4.15625 18.75 
L 13.375 19.53125 
Q 14.40625 12.796875 18.140625 9.390625 
Q 21.875 6 27.15625 6 
Q 33.5 6 37.890625 10.78125 
Q 42.28125 15.578125 42.28125 23.484375 
Q 42.28125 31 38.0625 35.34375 
Q 33.84375 39.703125 27 39.703125 
Q 22.75 39.703125 19.328125 37.765625 
Q 15.921875 35.84375 13.96875 32.765625 
L 5.71875 33.84375 
L 12.640625 70.609375 
L 48.25 70.609375 
L 48.25 62.203125 
L 19.671875 62.203125 
L 15.828125 42.96875 
Q 22.265625 47.46875 29.34375 47.46875 
Q 38.71875 47.46875 45.15625 40.96875 
Q 51.609375 34.46875 51.609375 24.265625 
Q 51.609375 14.546875 45.953125 7.46875 
Q 39.0625 -1.21875 27.15625 -1.21875 
Q 17.390625 -1.21875 11.203125 4.25 
Q 5.03125 9.71875 4.15625 18.75 
z
" id="ArialMT-53"/>
      </defs>
      <g style="fill:#262626;" transform="translate(101.569692 321.741812)scale(0.1 -0.1)">
       <use xlink:href="#ArialMT-53"/>
       <use x="55.615234" xlink:href="#ArialMT-48"/>
      </g>
     </g>
    </g>
    <g id="xtick_3">
     <g id="line2d_3">
      <path clip-path="url(#p041088bd17)" d="M 148.753007 307.584 
L 148.753007 41.472 
" style="fill:none;stroke:#cccccc;stroke-linecap:round;stroke-width:0.8;"/>
     </g>
     <g id="text_3">
      <!-- 100 -->
      <defs>
       <path d="M 37.25 0 
L 28.46875 0 
L 28.46875 56 
Q 25.296875 52.984375 20.140625 49.953125 
Q 14.984375 46.921875 10.890625 45.40625 
L 10.890625 53.90625 
Q 18.265625 57.375 23.78125 62.296875 
Q 29.296875 67.234375 31.59375 71.875 
L 37.25 71.875 
z
" id="ArialMT-49"/>
      </defs>
      <g style="fill:#262626;" transform="translate(140.411601 321.741812)scale(0.1 -0.1)">
       <use xlink:href="#ArialMT-49"/>
       <use x="55.615234" xlink:href="#ArialMT-48"/>
       <use x="111.230469" xlink:href="#ArialMT-48"/>
      </g>
     </g>
    </g>
    <g id="xtick_4">
     <g id="line2d_4">
      <path clip-path="url(#p041088bd17)" d="M 190.375385 307.584 
L 190.375385 41.472 
" style="fill:none;stroke:#cccccc;stroke-linecap:round;stroke-width:0.8;"/>
     </g>
     <g id="text_4">
      <!-- 150 -->
      <g style="fill:#262626;" transform="translate(182.033978 321.741812)scale(0.1 -0.1)">
       <use xlink:href="#ArialMT-49"/>
       <use x="55.615234" xlink:href="#ArialMT-53"/>
       <use x="111.230469" xlink:href="#ArialMT-48"/>
      </g>
     </g>
    </g>
    <g id="xtick_5">
     <g id="line2d_5">
      <path clip-path="url(#p041088bd17)" d="M 231.997762 307.584 
L 231.997762 41.472 
" style="fill:none;stroke:#cccccc;stroke-linecap:round;stroke-width:0.8;"/>
     </g>
     <g id="text_5">
      <!-- 200 -->
      <defs>
       <path d="M 50.34375 8.453125 
L 50.34375 0 
L 3.03125 0 
Q 2.9375 3.171875 4.046875 6.109375 
Q 5.859375 10.9375 9.828125 15.625 
Q 13.8125 20.3125 21.34375 26.46875 
Q 33.015625 36.03125 37.109375 41.625 
Q 41.21875 47.21875 41.21875 52.203125 
Q 41.21875 57.421875 37.46875 61 
Q 33.734375 64.59375 27.734375 64.59375 
Q 21.390625 64.59375 17.578125 60.78125 
Q 13.765625 56.984375 13.71875 50.25 
L 4.6875 51.171875 
Q 5.609375 61.28125 11.65625 66.578125 
Q 17.71875 71.875 27.9375 71.875 
Q 38.234375 71.875 44.234375 66.15625 
Q 50.25 60.453125 50.25 52 
Q 50.25 47.703125 48.484375 43.546875 
Q 46.734375 39.40625 42.65625 34.8125 
Q 38.578125 30.21875 29.109375 22.21875 
Q 21.1875 15.578125 18.9375 13.203125 
Q 16.703125 10.84375 15.234375 8.453125 
z
" id="ArialMT-50"/>
      </defs>
      <g style="fill:#262626;" transform="translate(223.656356 321.741812)scale(0.1 -0.1)">
       <use xlink:href="#ArialMT-50"/>
       <use x="55.615234" xlink:href="#ArialMT-48"/>
       <use x="111.230469" xlink:href="#ArialMT-48"/>
      </g>
     </g>
    </g>
    <g id="xtick_6">
     <g id="line2d_6">
      <path clip-path="url(#p041088bd17)" d="M 273.62014 307.584 
L 273.62014 41.472 
" style="fill:none;stroke:#cccccc;stroke-linecap:round;stroke-width:0.8;"/>
     </g>
     <g id="text_6">
      <!-- 250 -->
      <g style="fill:#262626;" transform="translate(265.278734 321.741812)scale(0.1 -0.1)">
       <use xlink:href="#ArialMT-50"/>
       <use x="55.615234" xlink:href="#ArialMT-53"/>
       <use x="111.230469" xlink:href="#ArialMT-48"/>
      </g>
     </g>
    </g>
    <g id="xtick_7">
     <g id="line2d_7">
      <path clip-path="url(#p041088bd17)" d="M 315.242517 307.584 
L 315.242517 41.472 
" style="fill:none;stroke:#cccccc;stroke-linecap:round;stroke-width:0.8;"/>
     </g>
     <g id="text_7">
      <!-- 300 -->
      <defs>
       <path d="M 4.203125 18.890625 
L 12.984375 20.0625 
Q 14.5 12.59375 18.140625 9.296875 
Q 21.78125 6 27 6 
Q 33.203125 6 37.46875 10.296875 
Q 41.75 14.59375 41.75 20.953125 
Q 41.75 27 37.796875 30.921875 
Q 33.84375 34.859375 27.734375 34.859375 
Q 25.25 34.859375 21.53125 33.890625 
L 22.515625 41.609375 
Q 23.390625 41.5 23.921875 41.5 
Q 29.546875 41.5 34.03125 44.421875 
Q 38.53125 47.359375 38.53125 53.46875 
Q 38.53125 58.296875 35.25 61.46875 
Q 31.984375 64.65625 26.8125 64.65625 
Q 21.6875 64.65625 18.265625 61.421875 
Q 14.84375 58.203125 13.875 51.765625 
L 5.078125 53.328125 
Q 6.6875 62.15625 12.390625 67.015625 
Q 18.109375 71.875 26.609375 71.875 
Q 32.46875 71.875 37.390625 69.359375 
Q 42.328125 66.84375 44.9375 62.5 
Q 47.5625 58.15625 47.5625 53.265625 
Q 47.5625 48.640625 45.0625 44.828125 
Q 42.578125 41.015625 37.703125 38.765625 
Q 44.046875 37.3125 47.5625 32.6875 
Q 51.078125 28.078125 51.078125 21.140625 
Q 51.078125 11.765625 44.234375 5.25 
Q 37.40625 -1.265625 26.953125 -1.265625 
Q 17.53125 -1.265625 11.296875 4.34375 
Q 5.078125 9.96875 4.203125 18.890625 
z
" id="ArialMT-51"/>
      </defs>
      <g style="fill:#262626;" transform="translate(306.901111 321.741812)scale(0.1 -0.1)">
       <use xlink:href="#ArialMT-51"/>
       <use x="55.615234" xlink:href="#ArialMT-48"/>
       <use x="111.230469" xlink:href="#ArialMT-48"/>
      </g>
     </g>
    </g>
    <g id="xtick_8">
     <g id="line2d_8">
      <path clip-path="url(#p041088bd17)" d="M 356.864895 307.584 
L 356.864895 41.472 
" style="fill:none;stroke:#cccccc;stroke-linecap:round;stroke-width:0.8;"/>
     </g>
     <g id="text_8">
      <!-- 350 -->
      <g style="fill:#262626;" transform="translate(348.523489 321.741812)scale(0.1 -0.1)">
       <use xlink:href="#ArialMT-51"/>
       <use x="55.615234" xlink:href="#ArialMT-53"/>
       <use x="111.230469" xlink:href="#ArialMT-48"/>
      </g>
     </g>
    </g>
    <g id="xtick_9">
     <g id="line2d_9">
      <path clip-path="url(#p041088bd17)" d="M 398.487273 307.584 
L 398.487273 41.472 
" style="fill:none;stroke:#cccccc;stroke-linecap:round;stroke-width:0.8;"/>
     </g>
     <g id="text_9">
      <!-- 400 -->
      <defs>
       <path d="M 32.328125 0 
L 32.328125 17.140625 
L 1.265625 17.140625 
L 1.265625 25.203125 
L 33.9375 71.578125 
L 41.109375 71.578125 
L 41.109375 25.203125 
L 50.78125 25.203125 
L 50.78125 17.140625 
L 41.109375 17.140625 
L 41.109375 0 
z
M 32.328125 25.203125 
L 32.328125 57.46875 
L 9.90625 25.203125 
z
" id="ArialMT-52"/>
      </defs>
      <g style="fill:#262626;" transform="translate(390.145866 321.741812)scale(0.1 -0.1)">
       <use xlink:href="#ArialMT-52"/>
       <use x="55.615234" xlink:href="#ArialMT-48"/>
       <use x="111.230469" xlink:href="#ArialMT-48"/>
      </g>
     </g>
    </g>
    <g id="text_10">
     <!-- experiments run -->
     <defs>
      <path d="M 42.09375 16.703125 
L 51.171875 15.578125 
Q 49.03125 7.625 43.21875 3.21875 
Q 37.40625 -1.171875 28.375 -1.171875 
Q 17 -1.171875 10.328125 5.828125 
Q 3.65625 12.84375 3.65625 25.484375 
Q 3.65625 38.578125 10.390625 45.796875 
Q 17.140625 53.03125 27.875 53.03125 
Q 38.28125 53.03125 44.875 45.953125 
Q 51.46875 38.875 51.46875 26.03125 
Q 51.46875 25.25 51.421875 23.6875 
L 12.75 23.6875 
Q 13.234375 15.140625 17.578125 10.59375 
Q 21.921875 6.0625 28.421875 6.0625 
Q 33.25 6.0625 36.671875 8.59375 
Q 40.09375 11.140625 42.09375 16.703125 
z
M 13.234375 30.90625 
L 42.1875 30.90625 
Q 41.609375 37.453125 38.875 40.71875 
Q 34.671875 45.796875 27.984375 45.796875 
Q 21.921875 45.796875 17.796875 41.75 
Q 13.671875 37.703125 13.234375 30.90625 
z
" id="ArialMT-101"/>
      <path d="M 0.734375 0 
L 19.671875 26.953125 
L 2.15625 51.859375 
L 13.140625 51.859375 
L 21.09375 39.703125 
Q 23.34375 36.234375 24.703125 33.890625 
Q 26.859375 37.109375 28.65625 39.59375 
L 37.40625 51.859375 
L 47.90625 51.859375 
L 29.984375 27.4375 
L 49.265625 0 
L 38.484375 0 
L 27.828125 16.109375 
L 25 20.453125 
L 11.375 0 
z
" id="ArialMT-120"/>
      <path d="M 6.59375 -19.875 
L 6.59375 51.859375 
L 14.59375 51.859375 
L 14.59375 45.125 
Q 17.4375 49.078125 21 51.046875 
Q 24.5625 53.03125 29.640625 53.03125 
Q 36.28125 53.03125 41.359375 49.609375 
Q 46.4375 46.1875 49.015625 39.953125 
Q 51.609375 33.734375 51.609375 26.3125 
Q 51.609375 18.359375 48.75 11.984375 
Q 45.90625 5.609375 40.453125 2.21875 
Q 35.015625 -1.171875 29 -1.171875 
Q 24.609375 -1.171875 21.109375 0.6875 
Q 17.625 2.546875 15.375 5.375 
L 15.375 -19.875 
z
M 14.546875 25.640625 
Q 14.546875 15.625 18.59375 10.84375 
Q 22.65625 6.0625 28.421875 6.0625 
Q 34.28125 6.0625 38.453125 11.015625 
Q 42.625 15.96875 42.625 26.375 
Q 42.625 36.28125 38.546875 41.203125 
Q 34.46875 46.140625 28.8125 46.140625 
Q 23.1875 46.140625 18.859375 40.890625 
Q 14.546875 35.640625 14.546875 25.640625 
z
" id="ArialMT-112"/>
      <path d="M 6.5 0 
L 6.5 51.859375 
L 14.40625 51.859375 
L 14.40625 44 
Q 17.4375 49.515625 20 51.265625 
Q 22.5625 53.03125 25.640625 53.03125 
Q 30.078125 53.03125 34.671875 50.203125 
L 31.640625 42.046875 
Q 28.421875 43.953125 25.203125 43.953125 
Q 22.3125 43.953125 20.015625 42.21875 
Q 17.71875 40.484375 16.75 37.40625 
Q 15.28125 32.71875 15.28125 27.15625 
L 15.28125 0 
z
" id="ArialMT-114"/>
      <path d="M 6.640625 61.46875 
L 6.640625 71.578125 
L 15.4375 71.578125 
L 15.4375 61.46875 
z
M 6.640625 0 
L 6.640625 51.859375 
L 15.4375 51.859375 
L 15.4375 0 
z
" id="ArialMT-105"/>
      <path d="M 6.59375 0 
L 6.59375 51.859375 
L 14.453125 51.859375 
L 14.453125 44.578125 
Q 16.890625 48.390625 20.9375 50.703125 
Q 25 53.03125 30.171875 53.03125 
Q 35.9375 53.03125 39.625 50.640625 
Q 43.3125 48.25 44.828125 43.953125 
Q 50.984375 53.03125 60.84375 53.03125 
Q 68.5625 53.03125 72.703125 48.75 
Q 76.859375 44.484375 76.859375 35.59375 
L 76.859375 0 
L 68.109375 0 
L 68.109375 32.671875 
Q 68.109375 37.9375 67.25 40.25 
Q 66.40625 42.578125 64.15625 43.984375 
Q 61.921875 45.40625 58.890625 45.40625 
Q 53.421875 45.40625 49.796875 41.765625 
Q 46.1875 38.140625 46.1875 30.125 
L 46.1875 0 
L 37.40625 0 
L 37.40625 33.6875 
Q 37.40625 39.546875 35.25 42.46875 
Q 33.109375 45.40625 28.21875 45.40625 
Q 24.515625 45.40625 21.359375 43.453125 
Q 18.21875 41.5 16.796875 37.734375 
Q 15.375 33.984375 15.375 26.90625 
L 15.375 0 
z
" id="ArialMT-109"/>
      <path d="M 6.59375 0 
L 6.59375 51.859375 
L 14.5 51.859375 
L 14.5 44.484375 
Q 20.21875 53.03125 31 53.03125 
Q 35.6875 53.03125 39.625 51.34375 
Q 43.5625 49.65625 45.515625 46.921875 
Q 47.46875 44.1875 48.25 40.4375 
Q 48.734375 37.984375 48.734375 31.890625 
L 48.734375 0 
L 39.9375 0 
L 39.9375 31.546875 
Q 39.9375 36.921875 38.90625 39.578125 
Q 37.890625 42.234375 35.28125 43.8125 
Q 32.671875 45.40625 29.15625 45.40625 
Q 23.53125 45.40625 19.453125 41.84375 
Q 15.375 38.28125 15.375 28.328125 
L 15.375 0 
z
" id="ArialMT-110"/>
      <path d="M 25.78125 7.859375 
L 27.046875 0.09375 
Q 23.34375 -0.6875 20.40625 -0.6875 
Q 15.625 -0.6875 12.984375 0.828125 
Q 10.359375 2.34375 9.28125 4.8125 
Q 8.203125 7.28125 8.203125 15.1875 
L 8.203125 45.015625 
L 1.765625 45.015625 
L 1.765625 51.859375 
L 8.203125 51.859375 
L 8.203125 64.703125 
L 16.9375 69.96875 
L 16.9375 51.859375 
L 25.78125 51.859375 
L 25.78125 45.015625 
L 16.9375 45.015625 
L 16.9375 14.703125 
Q 16.9375 10.9375 17.40625 9.859375 
Q 17.875 8.796875 18.921875 8.15625 
Q 19.96875 7.515625 21.921875 7.515625 
Q 23.390625 7.515625 25.78125 7.859375 
z
" id="ArialMT-116"/>
      <path d="M 3.078125 15.484375 
L 11.765625 16.84375 
Q 12.5 11.625 15.84375 8.84375 
Q 19.1875 6.0625 25.203125 6.0625 
Q 31.25 6.0625 34.171875 8.515625 
Q 37.109375 10.984375 37.109375 14.3125 
Q 37.109375 17.28125 34.515625 19 
Q 32.71875 20.171875 25.53125 21.96875 
Q 15.875 24.421875 12.140625 26.203125 
Q 8.40625 27.984375 6.46875 31.125 
Q 4.546875 34.28125 4.546875 38.09375 
Q 4.546875 41.546875 6.125 44.5 
Q 7.71875 47.46875 10.453125 49.421875 
Q 12.5 50.921875 16.03125 51.96875 
Q 19.578125 53.03125 23.640625 53.03125 
Q 29.734375 53.03125 34.34375 51.265625 
Q 38.96875 49.515625 41.15625 46.5 
Q 43.359375 43.5 44.1875 38.484375 
L 35.59375 37.3125 
Q 35.015625 41.3125 32.203125 43.546875 
Q 29.390625 45.796875 24.265625 45.796875 
Q 18.21875 45.796875 15.625 43.796875 
Q 13.03125 41.796875 13.03125 39.109375 
Q 13.03125 37.40625 14.109375 36.03125 
Q 15.1875 34.625 17.484375 33.6875 
Q 18.796875 33.203125 25.25 31.453125 
Q 34.578125 28.953125 38.25 27.359375 
Q 41.9375 25.78125 44.03125 22.75 
Q 46.140625 19.734375 46.140625 15.234375 
Q 46.140625 10.84375 43.578125 6.953125 
Q 41.015625 3.078125 36.171875 0.953125 
Q 31.34375 -1.171875 25.25 -1.171875 
Q 15.140625 -1.171875 9.84375 3.03125 
Q 4.546875 7.234375 3.078125 15.484375 
z
" id="ArialMT-115"/>
      <path id="ArialMT-32"/>
      <path d="M 40.578125 0 
L 40.578125 7.625 
Q 34.515625 -1.171875 24.125 -1.171875 
Q 19.53125 -1.171875 15.546875 0.578125 
Q 11.578125 2.34375 9.640625 5 
Q 7.71875 7.671875 6.9375 11.53125 
Q 6.390625 14.109375 6.390625 19.734375 
L 6.390625 51.859375 
L 15.1875 51.859375 
L 15.1875 23.09375 
Q 15.1875 16.21875 15.71875 13.8125 
Q 16.546875 10.359375 19.234375 8.375 
Q 21.921875 6.390625 25.875 6.390625 
Q 29.828125 6.390625 33.296875 8.421875 
Q 36.765625 10.453125 38.203125 13.9375 
Q 39.65625 17.4375 39.65625 24.078125 
L 39.65625 51.859375 
L 48.4375 51.859375 
L 48.4375 0 
z
" id="ArialMT-117"/>
     </defs>
     <g style="fill:#262626;" transform="translate(200.313125 334.887125)scale(0.1 -0.1)">
      <use xlink:href="#ArialMT-101"/>
      <use x="55.615234" xlink:href="#ArialMT-120"/>
      <use x="105.615234" xlink:href="#ArialMT-112"/>
      <use x="161.230469" xlink:href="#ArialMT-101"/>
      <use x="216.845703" xlink:href="#ArialMT-114"/>
      <use x="250.146484" xlink:href="#ArialMT-105"/>
      <use x="272.363281" xlink:href="#ArialMT-109"/>
      <use x="355.664062" xlink:href="#ArialMT-101"/>
      <use x="411.279297" xlink:href="#ArialMT-110"/>
      <use x="466.894531" xlink:href="#ArialMT-116"/>
      <use x="494.677734" xlink:href="#ArialMT-115"/>
      <use x="544.677734" xlink:href="#ArialMT-32"/>
      <use x="572.460938" xlink:href="#ArialMT-114"/>
      <use x="605.761719" xlink:href="#ArialMT-117"/>
      <use x="661.376953" xlink:href="#ArialMT-110"/>
     </g>
    </g>
   </g>
   <g id="matplotlib.axis_2">
    <g id="ytick_1">
     <g id="line2d_10">
      <path clip-path="url(#p041088bd17)" d="M 57.6 297.172499 
L 414.72 297.172499 
" style="fill:none;stroke:#cccccc;stroke-linecap:round;stroke-width:0.8;"/>
     </g>
     <g id="text_11">
      <!-- 0 -->
      <g style="fill:#262626;" transform="translate(45.039062 300.751405)scale(0.1 -0.1)">
       <use xlink:href="#ArialMT-48"/>
      </g>
     </g>
    </g>
    <g id="ytick_2">
     <g id="line2d_11">
      <path clip-path="url(#p041088bd17)" d="M 57.6 264.778284 
L 414.72 264.778284 
" style="fill:none;stroke:#cccccc;stroke-linecap:round;stroke-width:0.8;"/>
     </g>
     <g id="text_12">
      <!-- 50 -->
      <g style="fill:#262626;" transform="translate(39.478125 268.35719)scale(0.1 -0.1)">
       <use xlink:href="#ArialMT-53"/>
       <use x="55.615234" xlink:href="#ArialMT-48"/>
      </g>
     </g>
    </g>
    <g id="ytick_3">
     <g id="line2d_12">
      <path clip-path="url(#p041088bd17)" d="M 57.6 232.384069 
L 414.72 232.384069 
" style="fill:none;stroke:#cccccc;stroke-linecap:round;stroke-width:0.8;"/>
     </g>
     <g id="text_13">
      <!-- 100 -->
      <g style="fill:#262626;" transform="translate(33.917187 235.962975)scale(0.1 -0.1)">
       <use xlink:href="#ArialMT-49"/>
       <use x="55.615234" xlink:href="#ArialMT-48"/>
       <use x="111.230469" xlink:href="#ArialMT-48"/>
      </g>
     </g>
    </g>
    <g id="ytick_4">
     <g id="line2d_13">
      <path clip-path="url(#p041088bd17)" d="M 57.6 199.989853 
L 414.72 199.989853 
" style="fill:none;stroke:#cccccc;stroke-linecap:round;stroke-width:0.8;"/>
     </g>
     <g id="text_14">
      <!-- 150 -->
      <g style="fill:#262626;" transform="translate(33.917187 203.568759)scale(0.1 -0.1)">
       <use xlink:href="#ArialMT-49"/>
       <use x="55.615234" xlink:href="#ArialMT-53"/>
       <use x="111.230469" xlink:href="#ArialMT-48"/>
      </g>
     </g>
    </g>
    <g id="ytick_5">
     <g id="line2d_14">
      <path clip-path="url(#p041088bd17)" d="M 57.6 167.595638 
L 414.72 167.595638 
" style="fill:none;stroke:#cccccc;stroke-linecap:round;stroke-width:0.8;"/>
     </g>
     <g id="text_15">
      <!-- 200 -->
      <g style="fill:#262626;" transform="translate(33.917187 171.174544)scale(0.1 -0.1)">
       <use xlink:href="#ArialMT-50"/>
       <use x="55.615234" xlink:href="#ArialMT-48"/>
       <use x="111.230469" xlink:href="#ArialMT-48"/>
      </g>
     </g>
    </g>
    <g id="ytick_6">
     <g id="line2d_15">
      <path clip-path="url(#p041088bd17)" d="M 57.6 135.201423 
L 414.72 135.201423 
" style="fill:none;stroke:#cccccc;stroke-linecap:round;stroke-width:0.8;"/>
     </g>
     <g id="text_16">
      <!-- 250 -->
      <g style="fill:#262626;" transform="translate(33.917187 138.780329)scale(0.1 -0.1)">
       <use xlink:href="#ArialMT-50"/>
       <use x="55.615234" xlink:href="#ArialMT-53"/>
       <use x="111.230469" xlink:href="#ArialMT-48"/>
      </g>
     </g>
    </g>
    <g id="ytick_7">
     <g id="line2d_16">
      <path clip-path="url(#p041088bd17)" d="M 57.6 102.807207 
L 414.72 102.807207 
" style="fill:none;stroke:#cccccc;stroke-linecap:round;stroke-width:0.8;"/>
     </g>
     <g id="text_17">
      <!-- 300 -->
      <g style="fill:#262626;" transform="translate(33.917187 106.386114)scale(0.1 -0.1)">
       <use xlink:href="#ArialMT-51"/>
       <use x="55.615234" xlink:href="#ArialMT-48"/>
       <use x="111.230469" xlink:href="#ArialMT-48"/>
      </g>
     </g>
    </g>
    <g id="ytick_8">
     <g id="line2d_17">
      <path clip-path="url(#p041088bd17)" d="M 57.6 70.412992 
L 414.72 70.412992 
" style="fill:none;stroke:#cccccc;stroke-linecap:round;stroke-width:0.8;"/>
     </g>
     <g id="text_18">
      <!-- 350 -->
      <g style="fill:#262626;" transform="translate(33.917187 73.991898)scale(0.1 -0.1)">
       <use xlink:href="#ArialMT-51"/>
       <use x="55.615234" xlink:href="#ArialMT-53"/>
       <use x="111.230469" xlink:href="#ArialMT-48"/>
      </g>
     </g>
    </g>
    <g id="text_19">
     <!-- faults found -->
     <defs>
      <path d="M 8.6875 0 
L 8.6875 45.015625 
L 0.921875 45.015625 
L 0.921875 51.859375 
L 8.6875 51.859375 
L 8.6875 57.375 
Q 8.6875 62.59375 9.625 65.140625 
Q 10.890625 68.5625 14.078125 70.671875 
Q 17.28125 72.796875 23.046875 72.796875 
Q 26.765625 72.796875 31.25 71.921875 
L 29.9375 64.265625 
Q 27.203125 64.75 24.75 64.75 
Q 20.75 64.75 19.09375 63.03125 
Q 17.4375 61.328125 17.4375 56.640625 
L 17.4375 51.859375 
L 27.546875 51.859375 
L 27.546875 45.015625 
L 17.4375 45.015625 
L 17.4375 0 
z
" id="ArialMT-102"/>
      <path d="M 40.4375 6.390625 
Q 35.546875 2.25 31.03125 0.53125 
Q 26.515625 -1.171875 21.34375 -1.171875 
Q 12.796875 -1.171875 8.203125 3 
Q 3.609375 7.171875 3.609375 13.671875 
Q 3.609375 17.484375 5.34375 20.625 
Q 7.078125 23.78125 9.890625 25.6875 
Q 12.703125 27.59375 16.21875 28.5625 
Q 18.796875 29.25 24.03125 29.890625 
Q 34.671875 31.15625 39.703125 32.90625 
Q 39.75 34.71875 39.75 35.203125 
Q 39.75 40.578125 37.25 42.78125 
Q 33.890625 45.75 27.25 45.75 
Q 21.046875 45.75 18.09375 43.578125 
Q 15.140625 41.40625 13.71875 35.890625 
L 5.125 37.0625 
Q 6.296875 42.578125 8.984375 45.96875 
Q 11.671875 49.359375 16.75 51.1875 
Q 21.828125 53.03125 28.515625 53.03125 
Q 35.15625 53.03125 39.296875 51.46875 
Q 43.453125 49.90625 45.40625 47.53125 
Q 47.359375 45.171875 48.140625 41.546875 
Q 48.578125 39.3125 48.578125 33.453125 
L 48.578125 21.734375 
Q 48.578125 9.46875 49.140625 6.21875 
Q 49.703125 2.984375 51.375 0 
L 42.1875 0 
Q 40.828125 2.734375 40.4375 6.390625 
z
M 39.703125 26.03125 
Q 34.90625 24.078125 25.34375 22.703125 
Q 19.921875 21.921875 17.671875 20.9375 
Q 15.4375 19.96875 14.203125 18.09375 
Q 12.984375 16.21875 12.984375 13.921875 
Q 12.984375 10.40625 15.640625 8.0625 
Q 18.3125 5.71875 23.4375 5.71875 
Q 28.515625 5.71875 32.46875 7.9375 
Q 36.421875 10.15625 38.28125 14.015625 
Q 39.703125 17 39.703125 22.796875 
z
" id="ArialMT-97"/>
      <path d="M 6.390625 0 
L 6.390625 71.578125 
L 15.1875 71.578125 
L 15.1875 0 
z
" id="ArialMT-108"/>
      <path d="M 3.328125 25.921875 
Q 3.328125 40.328125 11.328125 47.265625 
Q 18.015625 53.03125 27.640625 53.03125 
Q 38.328125 53.03125 45.109375 46.015625 
Q 51.90625 39.015625 51.90625 26.65625 
Q 51.90625 16.65625 48.90625 10.90625 
Q 45.90625 5.171875 40.15625 2 
Q 34.421875 -1.171875 27.640625 -1.171875 
Q 16.75 -1.171875 10.03125 5.8125 
Q 3.328125 12.796875 3.328125 25.921875 
z
M 12.359375 25.921875 
Q 12.359375 15.96875 16.703125 11.015625 
Q 21.046875 6.0625 27.640625 6.0625 
Q 34.1875 6.0625 38.53125 11.03125 
Q 42.875 16.015625 42.875 26.21875 
Q 42.875 35.84375 38.5 40.796875 
Q 34.125 45.75 27.640625 45.75 
Q 21.046875 45.75 16.703125 40.8125 
Q 12.359375 35.890625 12.359375 25.921875 
z
" id="ArialMT-111"/>
      <path d="M 40.234375 0 
L 40.234375 6.546875 
Q 35.296875 -1.171875 25.734375 -1.171875 
Q 19.53125 -1.171875 14.328125 2.25 
Q 9.125 5.671875 6.265625 11.796875 
Q 3.421875 17.921875 3.421875 25.875 
Q 3.421875 33.640625 6 39.96875 
Q 8.59375 46.296875 13.765625 49.65625 
Q 18.953125 53.03125 25.34375 53.03125 
Q 30.03125 53.03125 33.6875 51.046875 
Q 37.359375 49.078125 39.65625 45.90625 
L 39.65625 71.578125 
L 48.390625 71.578125 
L 48.390625 0 
z
M 12.453125 25.875 
Q 12.453125 15.921875 16.640625 10.984375 
Q 20.84375 6.0625 26.5625 6.0625 
Q 32.328125 6.0625 36.34375 10.765625 
Q 40.375 15.484375 40.375 25.140625 
Q 40.375 35.796875 36.265625 40.765625 
Q 32.171875 45.75 26.171875 45.75 
Q 20.3125 45.75 16.375 40.96875 
Q 12.453125 36.1875 12.453125 25.875 
z
" id="ArialMT-100"/>
     </defs>
     <g style="fill:#262626;" transform="translate(27.929687 200.378)rotate(-90)scale(0.1 -0.1)">
      <use xlink:href="#ArialMT-102"/>
      <use x="27.783203" xlink:href="#ArialMT-97"/>
      <use x="83.398438" xlink:href="#ArialMT-117"/>
      <use x="139.013672" xlink:href="#ArialMT-108"/>
      <use x="161.230469" xlink:href="#ArialMT-116"/>
      <use x="189.013672" xlink:href="#ArialMT-115"/>
      <use x="239.013672" xlink:href="#ArialMT-32"/>
      <use x="266.796875" xlink:href="#ArialMT-102"/>
      <use x="294.580078" xlink:href="#ArialMT-111"/>
      <use x="350.195312" xlink:href="#ArialMT-117"/>
      <use x="405.810547" xlink:href="#ArialMT-110"/>
      <use x="461.425781" xlink:href="#ArialMT-100"/>
     </g>
    </g>
   </g>
   <g id="line2d_18">
    <path clip-path="url(#p041088bd17)" d="M 73.832727 293.317588 
L 82.157203 288.393667 
L 90.481678 282.951439 
L 98.806154 277.606393 
L 107.130629 272.261348 
L 115.455105 266.948696 
L 123.77958 261.571257 
L 132.104056 256.290999 
L 140.428531 250.492435 
L 148.753007 244.92063 
L 157.077483 238.960094 
L 165.401958 233.258712 
L 173.726434 227.233388 
L 182.050909 221.240458 
L 190.375385 215.279923 
L 198.69986 209.319387 
L 207.024336 203.456034 
L 215.348811 197.722258 
L 223.673287 191.696934 
L 231.997762 185.606822 
L 240.322238 179.549103 
L 248.646713 173.68575 
L 256.971189 167.628032 
L 265.295664 161.53792 
L 273.62014 155.447807 
L 281.944615 149.357695 
L 290.269091 143.1704 
L 298.593566 136.983104 
L 306.918042 130.990175 
L 315.242517 124.608514 
L 323.566993 118.615584 
L 331.891469 112.298712 
L 340.215944 106.079023 
L 348.54042 100.086093 
L 356.864895 93.866404 
L 365.189371 87.84108 
L 373.513846 81.718573 
L 381.838322 75.628461 
L 390.162797 69.538348 
L 398.487273 63.513024 
" style="fill:none;stroke:#1f77b4;stroke-linecap:round;stroke-width:1.5;"/>
   </g>
   <g id="line2d_19">
    <path clip-path="url(#p041088bd17)" d="M 73.832727 294.516174 
L 82.157203 289.268311 
L 90.481678 285.348611 
L 98.806154 279.031739 
L 107.130629 276.181048 
L 115.455105 269.702205 
L 123.77958 263.482515 
L 132.104056 257.003672 
L 140.428531 250.524829 
L 148.753007 244.045986 
L 157.077483 237.567143 
L 165.401958 234.684058 
L 173.726434 228.205215 
L 182.050909 221.726372 
L 190.375385 215.506682 
L 198.69986 209.027839 
L 207.024336 202.58139 
L 215.348811 196.102547 
L 223.673287 189.623704 
L 231.997762 183.144861 
L 240.322238 176.666018 
L 248.646713 170.187175 
L 256.971189 163.708332 
L 265.295664 157.229489 
L 273.62014 150.750646 
L 281.944615 144.271803 
L 290.269091 137.79296 
L 298.593566 131.314117 
L 306.918042 124.835274 
L 315.242517 118.356431 
L 323.566993 111.877588 
L 331.891469 105.398745 
L 340.215944 98.919901 
L 348.54042 92.441058 
L 356.864895 85.962215 
L 365.189371 79.483372 
L 373.513846 73.004529 
L 381.838322 66.525686 
L 390.162797 60.046843 
L 398.487273 53.568 
" style="fill:none;stroke:#ff7f0e;stroke-linecap:round;stroke-width:1.5;"/>
   </g>
   <g id="line2d_20">
    <path clip-path="url(#p041088bd17)" d="M 73.832727 293.479559 
L 82.157203 290.013378 
L 90.481678 286.579591 
L 98.806154 282.983833 
L 107.130629 279.58244 
L 115.455105 276.051471 
L 123.77958 272.747261 
L 132.104056 269.345868 
L 140.428531 265.97687 
L 148.753007 262.964208 
L 157.077483 259.530421 
L 165.401958 256.517759 
L 173.726434 252.695242 
L 182.050909 249.423426 
L 190.375385 245.989639 
L 198.69986 242.361487 
L 207.024336 238.636152 
L 215.348811 235.137577 
L 223.673287 231.250271 
L 231.997762 227.978455 
L 240.322238 224.47988 
L 248.646713 220.884122 
L 256.971189 217.48273 
L 265.295664 213.984154 
L 273.62014 210.388396 
L 281.944615 207.181369 
L 290.269091 203.779976 
L 298.593566 200.73492 
L 306.918042 197.560287 
L 315.242517 194.1265 
L 323.566993 190.563137 
L 331.891469 187.096956 
L 340.215944 183.792746 
L 348.54042 180.423747 
L 356.864895 177.508268 
L 365.189371 174.236452 
L 373.513846 170.478723 
L 381.838322 166.785783 
L 390.162797 163.287207 
L 398.487273 160.209757 
" style="fill:none;stroke:#2ca02c;stroke-linecap:round;stroke-width:1.5;"/>
   </g>
   <g id="line2d_21">
    <path clip-path="url(#p041088bd17)" d="M 73.832727 293.155616 
L 82.157203 288.976763 
L 90.481678 284.733121 
L 98.806154 280.230325 
L 107.130629 276.019077 
L 115.455105 271.419098 
L 123.77958 267.20785 
L 132.104056 262.67266 
L 140.428531 258.558595 
L 148.753007 254.379741 
L 157.077483 250.07131 
L 165.401958 245.633303 
L 173.726434 241.162901 
L 182.050909 236.627711 
L 190.375385 232.222097 
L 198.69986 227.816484 
L 207.024336 223.702419 
L 215.348811 219.393988 
L 223.673287 215.053163 
L 231.997762 210.809521 
L 240.322238 206.209543 
L 248.646713 201.803929 
L 256.971189 197.301133 
L 265.295664 192.992703 
L 273.62014 188.425118 
L 281.944615 184.084294 
L 290.269091 179.775863 
L 298.593566 175.435038 
L 306.918042 171.22379 
L 315.242517 166.785783 
L 323.566993 162.250592 
L 331.891469 157.877373 
L 340.215944 153.504154 
L 348.54042 149.033753 
L 356.864895 144.692928 
L 365.189371 140.319709 
L 373.513846 136.173249 
L 381.838322 131.735242 
L 390.162797 127.167657 
L 398.487273 122.826832 
" style="fill:none;stroke:#d62728;stroke-linecap:round;stroke-width:1.5;"/>
   </g>
   <g id="line2d_22">
    <path clip-path="url(#p041088bd17)" d="M 73.832727 293.382376 
L 82.157203 290.013378 
L 90.481678 286.644379 
L 98.806154 283.372563 
L 107.130629 280.068354 
L 115.455105 276.89372 
L 123.77958 273.654299 
L 132.104056 270.738819 
L 140.428531 267.564186 
L 148.753007 264.357159 
L 157.077483 258.169864 
L 165.401958 251.852992 
L 173.726434 245.698091 
L 182.050909 239.478402 
L 190.375385 233.258712 
L 198.69986 227.103811 
L 207.024336 220.916516 
L 215.348811 214.826404 
L 223.673287 208.80108 
L 231.997762 202.646179 
L 240.322238 196.491278 
L 248.646713 190.43356 
L 256.971189 184.311053 
L 265.295664 178.285729 
L 273.62014 172.163222 
L 281.944615 166.105504 
L 290.269091 160.242151 
L 298.593566 154.184433 
L 306.918042 148.09432 
L 315.242517 142.10139 
L 323.566993 136.108461 
L 331.891469 129.985954 
L 340.215944 124.057813 
L 348.54042 118.097277 
L 356.864895 111.909982 
L 365.189371 105.884658 
L 373.513846 99.826939 
L 381.838322 93.639644 
L 390.162797 87.484743 
L 398.487273 81.427025 
" style="fill:none;stroke:#9467bd;stroke-linecap:round;stroke-width:1.5;"/>
   </g>
   <g id="line2d_23">
    <path clip-path="url(#p041088bd17)" d="M 73.832727 293.609136 
L 82.157203 290.142954 
L 90.481678 287.357052 
L 98.806154 284.150025 
L 107.130629 280.975392 
L 115.455105 277.703576 
L 123.77958 274.205001 
L 132.104056 270.803608 
L 140.428531 267.337427 
L 148.753007 263.968428 
L 157.077483 257.91071 
L 165.401958 251.723415 
L 173.726434 245.341755 
L 182.050909 239.122065 
L 190.375385 233.031953 
L 198.69986 226.877052 
L 207.024336 220.689757 
L 215.348811 214.470067 
L 223.673287 208.18559 
L 231.997762 201.868718 
L 240.322238 195.972971 
L 248.646713 189.720887 
L 256.971189 183.533592 
L 265.295664 177.60545 
L 273.62014 171.385761 
L 281.944615 165.198466 
L 290.269091 159.075959 
L 298.593566 152.953453 
L 306.918042 146.798552 
L 315.242517 140.578862 
L 323.566993 134.423961 
L 331.891469 128.333849 
L 340.215944 122.211342 
L 348.54042 115.959259 
L 356.864895 109.674781 
L 365.189371 103.422697 
L 373.513846 97.235402 
L 381.838322 91.210078 
L 390.162797 85.022783 
L 398.487273 78.867882 
" style="fill:none;stroke:#8c564b;stroke-linecap:round;stroke-width:1.5;"/>
   </g>
   <g id="line2d_24">
    <path clip-path="url(#p041088bd17)" d="M 73.832727 295.488 
L 82.157203 292.378155 
L 90.481678 288.231696 
L 98.806154 283.599323 
L 107.130629 278.35146 
L 115.455105 272.650078 
L 123.77958 266.916302 
L 132.104056 261.020555 
L 140.428531 255.44875 
L 148.753007 249.68258 
L 157.077483 244.07838 
L 165.401958 238.215027 
L 173.726434 232.481251 
L 182.050909 226.617898 
L 190.375385 221.240458 
L 198.69986 215.636259 
L 207.024336 209.578541 
L 215.348811 203.877159 
L 223.673287 198.564508 
L 231.997762 192.927914 
L 240.322238 191.470175 
L 248.646713 188.425118 
L 256.971189 183.922322 
L 265.295664 179.549103 
L 273.62014 174.560394 
L 281.944615 169.247743 
L 290.269091 163.643544 
L 298.593566 157.780191 
L 306.918042 152.111203 
L 315.242517 146.571792 
L 323.566993 140.838016 
L 331.891469 135.071846 
L 340.215944 129.143704 
L 348.54042 123.604294 
L 356.864895 118.000094 
L 365.189371 112.493078 
L 373.513846 106.500148 
L 381.838322 100.733978 
L 390.162797 95.032596 
L 398.487273 89.557973 
" style="fill:none;stroke:#e377c2;stroke-linecap:round;stroke-width:1.5;"/>
   </g>
   <g id="line2d_25">
    <path clip-path="url(#p041088bd17)" d="M 73.832727 293.835895 
L 82.157203 290.369714 
L 90.481678 287.227475 
L 98.806154 283.858477 
L 107.130629 280.489478 
L 115.455105 277.055691 
L 123.77958 273.395145 
L 132.104056 269.443051 
L 140.428531 266.236024 
L 148.753007 263.190967 
L 157.077483 259.336056 
L 165.401958 255.772692 
L 173.726434 252.338905 
L 182.050909 249.261455 
L 190.375385 246.184004 
L 198.69986 243.203736 
L 207.024336 239.964315 
L 215.348811 236.109403 
L 223.673287 232.772799 
L 231.997762 229.177041 
L 240.322238 225.419312 
L 248.646713 221.629189 
L 256.971189 218.195402 
L 265.295664 214.696827 
L 273.62014 210.744733 
L 281.944615 207.472917 
L 290.269091 204.136313 
L 298.593566 200.702526 
L 306.918042 197.689864 
L 315.242517 194.256077 
L 323.566993 191.567357 
L 331.891469 188.425118 
L 340.215944 184.796966 
L 348.54042 181.946275 
L 356.864895 178.933613 
L 365.189371 175.499826 
L 373.513846 172.325193 
L 381.838322 169.247743 
L 390.162797 165.911139 
L 398.487273 162.282987 
" style="fill:none;stroke:#7f7f7f;stroke-linecap:round;stroke-width:1.5;"/>
   </g>
   <g id="line2d_26">
    <path clip-path="url(#p041088bd17)" d="M 73.832727 292.475338 
L 82.157203 286.903533 
L 90.481678 281.493699 
L 98.806154 275.759923 
L 107.130629 270.090935 
L 115.455105 264.421948 
L 123.77958 258.75296 
L 132.104056 252.662847 
L 140.428531 246.7671 
L 148.753007 240.806565 
L 157.077483 234.878423 
L 165.401958 229.274224 
L 173.726434 223.605236 
L 182.050909 217.677095 
L 190.375385 211.846136 
L 198.69986 205.723629 
L 207.024336 199.7307 
L 215.348811 193.802558 
L 223.673287 187.842022 
L 231.997762 181.849093 
L 240.322238 175.694192 
L 248.646713 169.798445 
L 256.971189 163.611149 
L 265.295664 157.456249 
L 273.62014 151.592896 
L 281.944615 145.859119 
L 290.269091 140.028161 
L 298.593566 134.132413 
L 306.918042 128.107089 
L 315.242517 122.146554 
L 323.566993 116.186018 
L 331.891469 109.966329 
L 340.215944 104.200159 
L 348.54042 98.174834 
L 356.864895 92.37627 
L 365.189371 86.221369 
L 373.513846 80.098862 
L 381.838322 73.943961 
L 390.162797 67.789061 
L 398.487273 61.796131 
" style="fill:none;stroke:#bcbd22;stroke-linecap:round;stroke-width:1.5;"/>
   </g>
   <g id="patch_3">
    <path d="M 57.6 307.584 
L 57.6 41.472 
" style="fill:none;stroke:#cccccc;stroke-linecap:square;stroke-linejoin:miter;stroke-width:0.8;"/>
   </g>
   <g id="patch_4">
    <path d="M 414.72 307.584 
L 414.72 41.472 
" style="fill:none;stroke:#cccccc;stroke-linecap:square;stroke-linejoin:miter;stroke-width:0.8;"/>
   </g>
   <g id="patch_5">
    <path d="M 57.6 307.584 
L 414.72 307.584 
" style="fill:none;stroke:#cccccc;stroke-linecap:square;stroke-linejoin:miter;stroke-width:0.8;"/>
   </g>
   <g id="patch_6">
    <path d="M 57.6 41.472 
L 414.72 41.472 
" style="fill:none;stroke:#cccccc;stroke-linecap:square;stroke-linejoin:miter;stroke-width:0.8;"/>
   </g>
   <g id="text_20">
    <!-- FDR for a1false-a2false-b1true-c1true, reward function 1 -->
    <defs>
     <path d="M 8.203125 0 
L 8.203125 71.578125 
L 56.5 71.578125 
L 56.5 63.140625 
L 17.671875 63.140625 
L 17.671875 40.96875 
L 51.265625 40.96875 
L 51.265625 32.515625 
L 17.671875 32.515625 
L 17.671875 0 
z
" id="ArialMT-70"/>
     <path d="M 7.71875 0 
L 7.71875 71.578125 
L 32.375 71.578125 
Q 40.71875 71.578125 45.125 70.5625 
Q 51.265625 69.140625 55.609375 65.4375 
Q 61.28125 60.640625 64.078125 53.1875 
Q 66.890625 45.75 66.890625 36.1875 
Q 66.890625 28.03125 64.984375 21.734375 
Q 63.09375 15.4375 60.109375 11.296875 
Q 57.125 7.171875 53.578125 4.796875 
Q 50.046875 2.4375 45.046875 1.21875 
Q 40.046875 0 33.546875 0 
z
M 17.1875 8.453125 
L 32.46875 8.453125 
Q 39.546875 8.453125 43.578125 9.765625 
Q 47.609375 11.078125 50 13.484375 
Q 53.375 16.84375 55.25 22.53125 
Q 57.125 28.21875 57.125 36.328125 
Q 57.125 47.5625 53.4375 53.59375 
Q 49.75 59.625 44.484375 61.671875 
Q 40.671875 63.140625 32.234375 63.140625 
L 17.1875 63.140625 
z
" id="ArialMT-68"/>
     <path d="M 7.859375 0 
L 7.859375 71.578125 
L 39.59375 71.578125 
Q 49.171875 71.578125 54.140625 69.640625 
Q 59.125 67.71875 62.109375 62.828125 
Q 65.09375 57.953125 65.09375 52.046875 
Q 65.09375 44.4375 60.15625 39.203125 
Q 55.21875 33.984375 44.921875 32.5625 
Q 48.6875 30.765625 50.640625 29 
Q 54.78125 25.203125 58.5 19.484375 
L 70.953125 0 
L 59.03125 0 
L 49.5625 14.890625 
Q 45.40625 21.34375 42.71875 24.75 
Q 40.046875 28.171875 37.921875 29.53125 
Q 35.796875 30.90625 33.59375 31.453125 
Q 31.984375 31.78125 28.328125 31.78125 
L 17.328125 31.78125 
L 17.328125 0 
z
M 17.328125 39.984375 
L 37.703125 39.984375 
Q 44.1875 39.984375 47.84375 41.328125 
Q 51.515625 42.671875 53.421875 45.625 
Q 55.328125 48.578125 55.328125 52.046875 
Q 55.328125 57.125 51.640625 60.390625 
Q 47.953125 63.671875 39.984375 63.671875 
L 17.328125 63.671875 
z
" id="ArialMT-82"/>
     <path d="M 3.171875 21.484375 
L 3.171875 30.328125 
L 30.171875 30.328125 
L 30.171875 21.484375 
z
" id="ArialMT-45"/>
     <path d="M 14.703125 0 
L 6.546875 0 
L 6.546875 71.578125 
L 15.328125 71.578125 
L 15.328125 46.046875 
Q 20.90625 53.03125 29.546875 53.03125 
Q 34.328125 53.03125 38.59375 51.09375 
Q 42.875 49.171875 45.625 45.671875 
Q 48.390625 42.1875 49.953125 37.25 
Q 51.515625 32.328125 51.515625 26.703125 
Q 51.515625 13.375 44.921875 6.09375 
Q 38.328125 -1.171875 29.109375 -1.171875 
Q 19.921875 -1.171875 14.703125 6.5 
z
M 14.59375 26.3125 
Q 14.59375 17 17.140625 12.84375 
Q 21.296875 6.0625 28.375 6.0625 
Q 34.125 6.0625 38.328125 11.0625 
Q 42.53125 16.0625 42.53125 25.984375 
Q 42.53125 36.140625 38.5 40.96875 
Q 34.46875 45.796875 28.765625 45.796875 
Q 23 45.796875 18.796875 40.796875 
Q 14.59375 35.796875 14.59375 26.3125 
z
" id="ArialMT-98"/>
     <path d="M 40.4375 19 
L 49.078125 17.875 
Q 47.65625 8.9375 41.8125 3.875 
Q 35.984375 -1.171875 27.484375 -1.171875 
Q 16.84375 -1.171875 10.375 5.78125 
Q 3.90625 12.75 3.90625 25.734375 
Q 3.90625 34.125 6.6875 40.421875 
Q 9.46875 46.734375 15.15625 49.875 
Q 20.84375 53.03125 27.546875 53.03125 
Q 35.984375 53.03125 41.359375 48.75 
Q 46.734375 44.484375 48.25 36.625 
L 39.703125 35.296875 
Q 38.484375 40.53125 35.375 43.15625 
Q 32.28125 45.796875 27.875 45.796875 
Q 21.234375 45.796875 17.078125 41.03125 
Q 12.9375 36.28125 12.9375 25.984375 
Q 12.9375 15.53125 16.9375 10.796875 
Q 20.953125 6.0625 27.390625 6.0625 
Q 32.5625 6.0625 36.03125 9.234375 
Q 39.5 12.40625 40.4375 19 
z
" id="ArialMT-99"/>
     <path d="M 8.890625 0 
L 8.890625 10.015625 
L 18.890625 10.015625 
L 18.890625 0 
Q 18.890625 -5.515625 16.9375 -8.90625 
Q 14.984375 -12.3125 10.75 -14.15625 
L 8.296875 -10.40625 
Q 11.078125 -9.1875 12.390625 -6.8125 
Q 13.71875 -4.4375 13.875 0 
z
" id="ArialMT-44"/>
     <path d="M 16.15625 0 
L 0.296875 51.859375 
L 9.375 51.859375 
L 17.625 21.921875 
L 20.703125 10.796875 
Q 20.90625 11.625 23.390625 21.484375 
L 31.640625 51.859375 
L 40.671875 51.859375 
L 48.4375 21.78125 
L 51.03125 11.859375 
L 54 21.875 
L 62.890625 51.859375 
L 71.4375 51.859375 
L 55.21875 0 
L 46.09375 0 
L 37.84375 31.0625 
L 35.84375 39.890625 
L 25.34375 0 
z
" id="ArialMT-119"/>
    </defs>
    <g style="fill:#262626;" transform="translate(85.767188 35.472)scale(0.12 -0.12)">
     <use xlink:href="#ArialMT-70"/>
     <use x="61.083984" xlink:href="#ArialMT-68"/>
     <use x="133.300781" xlink:href="#ArialMT-82"/>
     <use x="205.517578" xlink:href="#ArialMT-32"/>
     <use x="233.300781" xlink:href="#ArialMT-102"/>
     <use x="261.083984" xlink:href="#ArialMT-111"/>
     <use x="316.699219" xlink:href="#ArialMT-114"/>
     <use x="350" xlink:href="#ArialMT-32"/>
     <use x="377.783203" xlink:href="#ArialMT-97"/>
     <use x="433.398438" xlink:href="#ArialMT-49"/>
     <use x="489.013672" xlink:href="#ArialMT-102"/>
     <use x="516.796875" xlink:href="#ArialMT-97"/>
     <use x="572.412109" xlink:href="#ArialMT-108"/>
     <use x="594.628906" xlink:href="#ArialMT-115"/>
     <use x="644.628906" xlink:href="#ArialMT-101"/>
     <use x="700.244141" xlink:href="#ArialMT-45"/>
     <use x="733.544922" xlink:href="#ArialMT-97"/>
     <use x="789.160156" xlink:href="#ArialMT-50"/>
     <use x="844.775391" xlink:href="#ArialMT-102"/>
     <use x="872.558594" xlink:href="#ArialMT-97"/>
     <use x="928.173828" xlink:href="#ArialMT-108"/>
     <use x="950.390625" xlink:href="#ArialMT-115"/>
     <use x="1000.390625" xlink:href="#ArialMT-101"/>
     <use x="1056.005859" xlink:href="#ArialMT-45"/>
     <use x="1089.306641" xlink:href="#ArialMT-98"/>
     <use x="1144.921875" xlink:href="#ArialMT-49"/>
     <use x="1200.537109" xlink:href="#ArialMT-116"/>
     <use x="1228.320312" xlink:href="#ArialMT-114"/>
     <use x="1261.621094" xlink:href="#ArialMT-117"/>
     <use x="1317.236328" xlink:href="#ArialMT-101"/>
     <use x="1372.851562" xlink:href="#ArialMT-45"/>
     <use x="1406.152344" xlink:href="#ArialMT-99"/>
     <use x="1456.152344" xlink:href="#ArialMT-49"/>
     <use x="1511.767578" xlink:href="#ArialMT-116"/>
     <use x="1539.550781" xlink:href="#ArialMT-114"/>
     <use x="1572.851562" xlink:href="#ArialMT-117"/>
     <use x="1628.466797" xlink:href="#ArialMT-101"/>
     <use x="1684.082031" xlink:href="#ArialMT-44"/>
     <use x="1711.865234" xlink:href="#ArialMT-32"/>
     <use x="1739.648438" xlink:href="#ArialMT-114"/>
     <use x="1772.949219" xlink:href="#ArialMT-101"/>
     <use x="1828.564453" xlink:href="#ArialMT-119"/>
     <use x="1900.78125" xlink:href="#ArialMT-97"/>
     <use x="1956.396484" xlink:href="#ArialMT-114"/>
     <use x="1989.697266" xlink:href="#ArialMT-100"/>
     <use x="2045.3125" xlink:href="#ArialMT-32"/>
     <use x="2073.095703" xlink:href="#ArialMT-102"/>
     <use x="2100.878906" xlink:href="#ArialMT-117"/>
     <use x="2156.494141" xlink:href="#ArialMT-110"/>
     <use x="2212.109375" xlink:href="#ArialMT-99"/>
     <use x="2262.109375" xlink:href="#ArialMT-116"/>
     <use x="2289.892578" xlink:href="#ArialMT-105"/>
     <use x="2312.109375" xlink:href="#ArialMT-111"/>
     <use x="2367.724609" xlink:href="#ArialMT-110"/>
     <use x="2423.339844" xlink:href="#ArialMT-32"/>
     <use x="2451.123047" xlink:href="#ArialMT-49"/>
    </g>
   </g>
   <g id="legend_1">
    <g id="patch_7">
     <path d="M 64.6 177.25325 
L 145.517188 177.25325 
Q 147.517188 177.25325 147.517188 175.25325 
L 147.517188 48.472 
Q 147.517188 46.472 145.517188 46.472 
L 64.6 46.472 
Q 62.6 46.472 62.6 48.472 
L 62.6 175.25325 
Q 62.6 177.25325 64.6 177.25325 
z
" style="fill:#ffffff;opacity:0.8;stroke:#cccccc;stroke-linejoin:miter;"/>
    </g>
    <g id="line2d_27">
     <path d="M 66.6 54.129813 
L 86.6 54.129813 
" style="fill:none;stroke:#1f77b4;stroke-linecap:round;stroke-width:1.5;"/>
    </g>
    <g id="line2d_28"/>
    <g id="text_21">
     <!-- bandit-eps -->
     <g style="fill:#262626;" transform="translate(94.6 57.629813)scale(0.1 -0.1)">
      <use xlink:href="#ArialMT-98"/>
      <use x="55.615234" xlink:href="#ArialMT-97"/>
      <use x="111.230469" xlink:href="#ArialMT-110"/>
      <use x="166.845703" xlink:href="#ArialMT-100"/>
      <use x="222.460938" xlink:href="#ArialMT-105"/>
      <use x="244.677734" xlink:href="#ArialMT-116"/>
      <use x="272.460938" xlink:href="#ArialMT-45"/>
      <use x="305.761719" xlink:href="#ArialMT-101"/>
      <use x="361.376953" xlink:href="#ArialMT-112"/>
      <use x="416.992188" xlink:href="#ArialMT-115"/>
     </g>
    </g>
    <g id="line2d_29">
     <path d="M 66.6 68.275125 
L 86.6 68.275125 
" style="fill:none;stroke:#ff7f0e;stroke-linecap:round;stroke-width:1.5;"/>
    </g>
    <g id="line2d_30"/>
    <g id="text_22">
     <!-- bandit-opt -->
     <g style="fill:#262626;" transform="translate(94.6 71.775125)scale(0.1 -0.1)">
      <use xlink:href="#ArialMT-98"/>
      <use x="55.615234" xlink:href="#ArialMT-97"/>
      <use x="111.230469" xlink:href="#ArialMT-110"/>
      <use x="166.845703" xlink:href="#ArialMT-100"/>
      <use x="222.460938" xlink:href="#ArialMT-105"/>
      <use x="244.677734" xlink:href="#ArialMT-116"/>
      <use x="272.460938" xlink:href="#ArialMT-45"/>
      <use x="305.761719" xlink:href="#ArialMT-111"/>
      <use x="361.376953" xlink:href="#ArialMT-112"/>
      <use x="416.992188" xlink:href="#ArialMT-116"/>
     </g>
    </g>
    <g id="line2d_31">
     <path d="M 66.6 82.420437 
L 86.6 82.420437 
" style="fill:none;stroke:#2ca02c;stroke-linecap:round;stroke-width:1.5;"/>
    </g>
    <g id="line2d_32"/>
    <g id="text_23">
     <!-- random -->
     <g style="fill:#262626;" transform="translate(94.6 85.920437)scale(0.1 -0.1)">
      <use xlink:href="#ArialMT-114"/>
      <use x="33.300781" xlink:href="#ArialMT-97"/>
      <use x="88.916016" xlink:href="#ArialMT-110"/>
      <use x="144.53125" xlink:href="#ArialMT-100"/>
      <use x="200.146484" xlink:href="#ArialMT-111"/>
      <use x="255.761719" xlink:href="#ArialMT-109"/>
     </g>
    </g>
    <g id="line2d_33">
     <path d="M 66.6 96.56575 
L 86.6 96.56575 
" style="fill:none;stroke:#d62728;stroke-linecap:round;stroke-width:1.5;"/>
    </g>
    <g id="line2d_34"/>
    <g id="text_24">
     <!-- qlearning -->
     <defs>
      <path d="M 39.65625 -19.875 
L 39.65625 5.515625 
Q 37.59375 2.640625 33.90625 0.734375 
Q 30.21875 -1.171875 26.078125 -1.171875 
Q 16.84375 -1.171875 10.171875 6.203125 
Q 3.515625 13.578125 3.515625 26.421875 
Q 3.515625 34.234375 6.21875 40.421875 
Q 8.9375 46.625 14.078125 49.828125 
Q 19.234375 53.03125 25.390625 53.03125 
Q 35.015625 53.03125 40.53125 44.921875 
L 40.53125 51.859375 
L 48.4375 51.859375 
L 48.4375 -19.875 
z
M 12.546875 26.078125 
Q 12.546875 16.0625 16.75 11.0625 
Q 20.953125 6.0625 26.8125 6.0625 
Q 32.421875 6.0625 36.46875 10.8125 
Q 40.53125 15.578125 40.53125 25.296875 
Q 40.53125 35.640625 36.25 40.859375 
Q 31.984375 46.09375 26.21875 46.09375 
Q 20.515625 46.09375 16.53125 41.234375 
Q 12.546875 36.375 12.546875 26.078125 
z
" id="ArialMT-113"/>
      <path d="M 4.984375 -4.296875 
L 13.53125 -5.5625 
Q 14.0625 -9.515625 16.5 -11.328125 
Q 19.78125 -13.765625 25.4375 -13.765625 
Q 31.546875 -13.765625 34.859375 -11.328125 
Q 38.1875 -8.890625 39.359375 -4.5 
Q 40.046875 -1.8125 39.984375 6.78125 
Q 34.234375 0 25.640625 0 
Q 14.9375 0 9.078125 7.71875 
Q 3.21875 15.4375 3.21875 26.21875 
Q 3.21875 33.640625 5.90625 39.90625 
Q 8.59375 46.1875 13.6875 49.609375 
Q 18.796875 53.03125 25.6875 53.03125 
Q 34.859375 53.03125 40.828125 45.609375 
L 40.828125 51.859375 
L 48.921875 51.859375 
L 48.921875 7.03125 
Q 48.921875 -5.078125 46.453125 -10.125 
Q 44 -15.1875 38.640625 -18.109375 
Q 33.296875 -21.046875 25.484375 -21.046875 
Q 16.21875 -21.046875 10.5 -16.875 
Q 4.78125 -12.703125 4.984375 -4.296875 
z
M 12.25 26.859375 
Q 12.25 16.65625 16.296875 11.96875 
Q 20.359375 7.28125 26.46875 7.28125 
Q 32.515625 7.28125 36.609375 11.9375 
Q 40.71875 16.609375 40.71875 26.5625 
Q 40.71875 36.078125 36.5 40.90625 
Q 32.28125 45.75 26.3125 45.75 
Q 20.453125 45.75 16.34375 40.984375 
Q 12.25 36.234375 12.25 26.859375 
z
" id="ArialMT-103"/>
     </defs>
     <g style="fill:#262626;" transform="translate(94.6 100.06575)scale(0.1 -0.1)">
      <use xlink:href="#ArialMT-113"/>
      <use x="55.615234" xlink:href="#ArialMT-108"/>
      <use x="77.832031" xlink:href="#ArialMT-101"/>
      <use x="133.447266" xlink:href="#ArialMT-97"/>
      <use x="189.0625" xlink:href="#ArialMT-114"/>
      <use x="222.363281" xlink:href="#ArialMT-110"/>
      <use x="277.978516" xlink:href="#ArialMT-105"/>
      <use x="300.195312" xlink:href="#ArialMT-110"/>
      <use x="355.810547" xlink:href="#ArialMT-103"/>
     </g>
    </g>
    <g id="line2d_35">
     <path d="M 66.6 110.82825 
L 86.6 110.82825 
" style="fill:none;stroke:#9467bd;stroke-linecap:round;stroke-width:1.5;"/>
    </g>
    <g id="line2d_36"/>
    <g id="text_25">
     <!-- bayes-high -->
     <defs>
      <path d="M 6.203125 -19.96875 
L 5.21875 -11.71875 
Q 8.109375 -12.5 10.25 -12.5 
Q 13.1875 -12.5 14.9375 -11.515625 
Q 16.703125 -10.546875 17.828125 -8.796875 
Q 18.65625 -7.46875 20.515625 -2.25 
Q 20.75 -1.515625 21.296875 -0.09375 
L 1.609375 51.859375 
L 11.078125 51.859375 
L 21.875 21.828125 
Q 23.96875 16.109375 25.640625 9.8125 
Q 27.15625 15.875 29.25 21.625 
L 40.328125 51.859375 
L 49.125 51.859375 
L 29.390625 -0.875 
Q 26.21875 -9.421875 24.46875 -12.640625 
Q 22.125 -17 19.09375 -19.015625 
Q 16.0625 -21.046875 11.859375 -21.046875 
Q 9.328125 -21.046875 6.203125 -19.96875 
z
" id="ArialMT-121"/>
      <path d="M 6.59375 0 
L 6.59375 71.578125 
L 15.375 71.578125 
L 15.375 45.90625 
Q 21.53125 53.03125 30.90625 53.03125 
Q 36.671875 53.03125 40.921875 50.75 
Q 45.171875 48.484375 47 44.484375 
Q 48.828125 40.484375 48.828125 32.859375 
L 48.828125 0 
L 40.046875 0 
L 40.046875 32.859375 
Q 40.046875 39.453125 37.1875 42.453125 
Q 34.328125 45.453125 29.109375 45.453125 
Q 25.203125 45.453125 21.75 43.421875 
Q 18.3125 41.40625 16.84375 37.9375 
Q 15.375 34.46875 15.375 28.375 
L 15.375 0 
z
" id="ArialMT-104"/>
     </defs>
     <g style="fill:#262626;" transform="translate(94.6 114.32825)scale(0.1 -0.1)">
      <use xlink:href="#ArialMT-98"/>
      <use x="55.615234" xlink:href="#ArialMT-97"/>
      <use x="111.230469" xlink:href="#ArialMT-121"/>
      <use x="161.230469" xlink:href="#ArialMT-101"/>
      <use x="216.845703" xlink:href="#ArialMT-115"/>
      <use x="266.845703" xlink:href="#ArialMT-45"/>
      <use x="300.146484" xlink:href="#ArialMT-104"/>
      <use x="355.761719" xlink:href="#ArialMT-105"/>
      <use x="377.978516" xlink:href="#ArialMT-103"/>
      <use x="433.59375" xlink:href="#ArialMT-104"/>
     </g>
    </g>
    <g id="line2d_37">
     <path d="M 66.6 125.09075 
L 86.6 125.09075 
" style="fill:none;stroke:#8c564b;stroke-linecap:round;stroke-width:1.5;"/>
    </g>
    <g id="line2d_38"/>
    <g id="text_26">
     <!-- bayes-low -->
     <g style="fill:#262626;" transform="translate(94.6 128.59075)scale(0.1 -0.1)">
      <use xlink:href="#ArialMT-98"/>
      <use x="55.615234" xlink:href="#ArialMT-97"/>
      <use x="111.230469" xlink:href="#ArialMT-121"/>
      <use x="161.230469" xlink:href="#ArialMT-101"/>
      <use x="216.845703" xlink:href="#ArialMT-115"/>
      <use x="266.845703" xlink:href="#ArialMT-45"/>
      <use x="300.146484" xlink:href="#ArialMT-108"/>
      <use x="322.363281" xlink:href="#ArialMT-111"/>
      <use x="377.978516" xlink:href="#ArialMT-119"/>
     </g>
    </g>
    <g id="line2d_39">
     <path d="M 66.6 139.475125 
L 86.6 139.475125 
" style="fill:none;stroke:#e377c2;stroke-linecap:round;stroke-width:1.5;"/>
    </g>
    <g id="line2d_40"/>
    <g id="text_27">
     <!-- mlfq -->
     <g style="fill:#262626;" transform="translate(94.6 142.975125)scale(0.1 -0.1)">
      <use xlink:href="#ArialMT-109"/>
      <use x="83.300781" xlink:href="#ArialMT-108"/>
      <use x="105.517578" xlink:href="#ArialMT-102"/>
      <use x="133.300781" xlink:href="#ArialMT-113"/>
     </g>
    </g>
    <g id="line2d_41">
     <path d="M 66.6 153.620438 
L 86.6 153.620438 
" style="fill:none;stroke:#7f7f7f;stroke-linecap:round;stroke-width:1.5;"/>
    </g>
    <g id="line2d_42"/>
    <g id="text_28">
     <!-- tableau -->
     <g style="fill:#262626;" transform="translate(94.6 157.120438)scale(0.1 -0.1)">
      <use xlink:href="#ArialMT-116"/>
      <use x="27.783203" xlink:href="#ArialMT-97"/>
      <use x="83.398438" xlink:href="#ArialMT-98"/>
      <use x="139.013672" xlink:href="#ArialMT-108"/>
      <use x="161.230469" xlink:href="#ArialMT-101"/>
      <use x="216.845703" xlink:href="#ArialMT-97"/>
      <use x="272.460938" xlink:href="#ArialMT-117"/>
     </g>
    </g>
    <g id="line2d_43">
     <path d="M 66.6 167.76575 
L 86.6 167.76575 
" style="fill:none;stroke:#bcbd22;stroke-linecap:round;stroke-width:1.5;"/>
    </g>
    <g id="line2d_44"/>
    <g id="text_29">
     <!-- ann -->
     <g style="fill:#262626;" transform="translate(94.6 171.26575)scale(0.1 -0.1)">
      <use xlink:href="#ArialMT-97"/>
      <use x="55.615234" xlink:href="#ArialMT-110"/>
      <use x="111.230469" xlink:href="#ArialMT-110"/>
     </g>
    </g>
   </g>
  </g>
 </g>
 <defs>
  <clipPath id="p041088bd17">
   <rect height="266.112" width="357.12" x="57.6" y="41.472"/>
  </clipPath>
 </defs>
</svg>
